<svg xmlns="http://www.w3.org/2000/svg" viewBox="0 0 1000 1000" fill="#7c42f4">--&gt;<circle class="st0" cx="500" cy="500" r="389.9"></circle><path class="st1" fill="#fff" d="M666.8 730.4l24.4-158.5c3.1-20.2-12.5-38.4-32.9-38.4H604c-2.9-3.4-5.9-6.8-9.1-9.9-1.5-1.5-3.1-2.9-4.7-4.4-6.3-5.7-13.2-10.8-20.6-15.1-6.6-4-13.7-7.3-21.1-10.1v-.7l-.3-9.7c0-5.2-1.8-9.9-6.5-12.3-4.7-2.3-10.2-1.8-14.4 1.4l-26.2 19.9-26.2-19.9c-4.2-3.2-9.7-3.7-14.4-1.4-4.7 2.3-6.5 7-6.5 12.3v10.9c-.1 0-.2.1-.3.1-.1 0-.1.1-.2.1-2 .8-4 1.7-6 2.6-.4.2-.7.3-1.1.5-1.9.9-3.8 1.8-5.6 2.8-.4.2-.9.5-1.3.7-1.8 1-3.6 2-5.3 3-.4.2-.8.5-1.2.8-1.7 1-3.3 2.1-4.9 3.2-.4.2-.7.5-1.1.7-1.5 1.1-3 2.1-4.5 3.3-.5.4-.9.7-1.4 1.1-1.5 1.2-3 2.4-4.4 3.6-.5.5-1.1.9-1.6 1.4-1.4 1.2-2.7 2.4-4.1 3.7-.6.5-1.1 1.1-1.6 1.6-1 1-2 2-3 3.1l-1.1 1.1c-1.7 1.9-3.4 3.8-5 5.7h-58.4c-20.4 0-36 18.2-32.9 38.4l24.4 158.5c1.1 7.3 4.6 13.7 9.5 18.6h-14.1c-7.3 0-13.3 5.9-13.3 13.3s5.9 13.3 13.3 13.3h342.8c7.3 0 13.3-5.9 13.3-13.3s-5.9-13.3-13.3-13.3h-14.1c4.8-5 8.2-11.4 9.3-18.7zM534.7 482.5V500h-23.1l23.1-17.5zm-67.2 0l23.1 17.5h-23.1v-17.5zm-13.7 27.9v4.7c0 5.2 1.7 9.9 6.3 12.3 2 1 4.2 1.6 6.3 1.6 2.8 0 5.6-.9 7.9-2.5l26.7-18.9 26.7 18.9c2.4 1.7 5.2 2.5 7.9 2.5 2.2 0 4.3-.5 6.3-1.6 4.6-2.4 6.3-7.1 6.3-12.3l.1-5.5c1.2.5 2.5 1.1 3.7 1.6 12 5.6 22.9 13.2 32.2 22.3H419.7c10-9.5 21.5-17.4 34.1-23.1zm80.7 135.7c0 19.1-15.5 34.5-34.5 34.5-19.1 0-34.5-15.5-34.5-34.5s15.5-34.5 34.5-34.5c19.1 0 34.5 15.4 34.5 34.5zM500.7 342.5s-.1 0 0 0c-8 .1-14 3-18.3 7.1-6.8-9.9-18.3-16.5-31.2-16.5-18.9 0-34.7 14-37.4 32.2h-14.1V382H415c4.7 15.5 19.2 26.8 36.2 26.8 20.6 0 37.5-16.6 37.8-37.2.3-1.9 2.3-12.4 11.7-12.5 9.2.1 11.4 10.3 11.7 12.5.4 20.5 17.2 37.1 37.8 37.1 17 0 31.5-11.3 36.2-26.8h15.3v-16.7h-14.1c-2.7-18.2-18.5-32.2-37.4-32.2a37.7 37.7 0 0 0-31.2 16.5c-4.3-4.1-10.3-7-18.2-7.1 0 .1-.1.1-.1.1zm-49.5 49.6c-11.7 0-21.2-9.5-21.2-21.2s9.5-21.2 21.2-21.2 21.2 9.5 21.2 21.2c-.1 11.7-9.5 21.2-21.2 21.2zm99-42.3c11.7 0 21.2 9.5 21.2 21.2s-9.5 21.2-21.2 21.2S529 382.7 529 371c.1-11.7 9.6-21.2 21.2-21.2z"></path><path class="st1" fill="#fff" d="M451 358.9c-6.6 0-12 5.3-12 11.9h24c0-6.5-5.4-11.9-12-11.9zM550.2 358.9c-6.6 0-12 5.3-12 11.9h24c0-6.5-5.4-11.9-12-11.9z"></path><path class="st1" fill="#fff" d="M367.5 385c.1 2.3.3 4.5.6 6.8 0 .4.1.8.1 1.3.3 2.2.6 4.5 1 6.7.1.3.1.7.2 1 .4 2.3.9 4.6 1.4 6.9.5 2.3 1.2 4.5 1.8 6.7.1.3.2.6.3 1 .6 2.1 1.3 4.2 2.1 6.2.1.4.3.8.4 1.2.8 2 1.5 4 2.4 6 .1.3.3.6.4 1 .9 2 1.8 4.1 2.8 6.1 0 .1.1.1.1.2 1 2 2 3.9 3.1 5.8.2.3.4.7.6 1 1 1.8 2.1 3.6 3.3 5.3.3.4.5.8.8 1.3 1.1 1.7 2.3 3.4 3.5 5.1l.9 1.2c1.2 1.6 2.3 3.1 3.6 4.6.3.3.6.7.8 1l3.6 4.2c.4.4.8.9 1.2 1.3 1.3 1.4 2.6 2.7 3.9 4.1l1.5 1.5c1.3 1.3 2.7 2.5 4 3.7.6.5 1.2 1 1.7 1.5 1.1.9 2.2 1.9 3.3 2.8.4.3.8.7 1.2 1 4.4 3.5 9.1 6.7 13.9 9.5v-17.3c-30.5-21.4-50.4-56.7-50.4-96.7 0-14.3 2.5-27.9 7.2-40.6 9.9-26.9 29.2-49.2 54-62.9H557c24.8 13.7 44.1 36 54 62.9 4.6 12.7 7.2 26.3 7.2 40.6 0 40-20 75.3-50.4 96.7V491c4.8-2.9 9.5-6.1 13.9-9.5.4-.3.8-.7 1.2-1 1.1-.9 2.2-1.8 3.3-2.8.6-.5 1.2-1 1.7-1.5 1.4-1.2 2.7-2.5 4-3.7l1.5-1.5c1.3-1.3 2.7-2.7 3.9-4.1.4-.4.8-.9 1.2-1.3 1.2-1.4 2.5-2.8 3.6-4.2.3-.3.6-.7.8-1 1.2-1.5 2.4-3.1 3.6-4.6l.9-1.2c1.2-1.7 2.4-3.3 3.5-5.1.3-.4.5-.8.8-1.3 1.1-1.8 2.2-3.5 3.3-5.3.2-.3.4-.7.6-1 1.1-1.9 2.1-3.8 3.1-5.8 0-.1.1-.1.1-.2 1-2 1.9-4 2.8-6.1.1-.3.3-.6.4-1l2.4-6c.1-.4.3-.8.4-1.2.7-2.1 1.4-4.1 2.1-6.2.1-.3.2-.6.3-1 .7-2.2 1.3-4.4 1.8-6.7s1-4.5 1.4-6.9c.1-.3.1-.7.2-1 .4-2.2.7-4.4 1-6.7.1-.4.1-.8.1-1.3.3-2.2.5-4.5.6-6.8 0-.3 0-.7.1-1 .1-2.4.2-4.8.2-7.2 0-20.6-4.7-40.1-13.1-57.5-3.7-7.7-8.2-15.1-13.3-21.9-1.3-1.7-2.6-3.4-3.9-5-21.8-26.4-53.6-44.3-89.6-47.7 8-13.5 8-26.3 5.6-36.5 9.8-5.3 14.9-18.1 7.6-30.6-1.3-2.3-3.3-4.2-5.6-5.5-16.4-9.4-33.1 2.2-33.1 17.7 0 11.6 9.4 21 21 21.1-4 16.3-16.2 27.8-25.9 34.6-34 4.5-63.9 21.9-84.8 47.1-1.4 1.6-2.7 3.3-3.9 5-5.1 6.8-9.6 14.1-13.3 21.9-8.4 17.4-13.1 36.9-13.1 57.5 0 2.4.1 4.8.2 7.2.1.1.1.4.1.8z"></path></svg>