<?xml version="1.0" encoding="utf-8"?>
<!-- Generator: Adobe Illustrator 24.1.3, SVG Export Plug-In . SVG Version: 6.00 Build 0)  -->
<svg version="1.1" id="Camada_1" xmlns="http://www.w3.org/2000/svg" xmlns:xlink="http://www.w3.org/1999/xlink" x="0px" y="0px"
	 viewBox="0 0 311.9 304.3" style="enable-background:new 0 0 311.9 304.3;" xml:space="preserve">
<style type="text/css">
	.st0{opacity:0.72;fill:url(#SVGID_1_);enable-background:new    ;}
	.st1{opacity:0.72;fill:url(#Retângulo_2079_1_);enable-background:new    ;}
	.st2{fill:#42CDE8;}
	.st3{fill:url(#Caminho_12404_1_);}
	.st4{fill:#7BD6E8;}
	.st5{fill:url(#Retângulo_2090_1_);}
	.st6{fill:url(#Retângulo_2091_1_);}
	.st7{fill:url(#Retângulo_2092_1_);}
	.st8{fill:url(#Retângulo_2093_1_);}
	.st9{fill:url(#Retângulo_2094_1_);}
	.st10{fill:url(#Retângulo_2095_1_);}
	.st11{fill:url(#Caminho_12405_1_);}
	.st12{fill:url(#Retângulo_2096_1_);}
	.st13{fill:url(#Retângulo_2097_1_);}
	.st14{fill:url(#Retângulo_2098_1_);}
	.st15{fill:url(#Retângulo_2099_1_);}
	.st16{fill:url(#Retângulo_2100_1_);}
	.st17{fill:url(#Retângulo_2101_1_);}
	.st18{fill:url(#Retângulo_2102_1_);}
	.st19{fill:#E4F4FE;}
	.st20{fill:url(#Caminho_12409_1_);}
	.st21{fill:url(#Retângulo_2103_1_);}
	.st22{fill:url(#Retângulo_2104_1_);}
	.st23{fill:url(#Retângulo_2105_1_);}
	.st24{opacity:0.72;fill:url(#SVGID_2_);enable-background:new    ;}
	.st25{fill:url(#Caminho_12410_1_);}
	.st26{fill:#1A598C;}
	.st27{fill:#2273B5;}
	.st28{fill:url(#Caminho_12413_1_);}
	.st29{fill:#4AAFFF;}
	.st30{fill:#3788CC;}
	.st31{fill:url(#Retângulo_2107_1_);}
	.st32{fill:url(#Retângulo_2108_1_);}
	.st33{fill:url(#Retângulo_2109_1_);}
	.st34{fill:url(#Retângulo_2110_1_);}
	.st35{fill:#E2F3FE;}
	.st36{fill:url(#Retângulo_2111_1_);}
	.st37{fill:url(#Retângulo_2112_1_);}
	.st38{fill:#FFFFFF;}
	.st39{fill:#F3F3F3;}
	.st40{fill:#DBDFF0;}
	.st41{fill:#EEA886;}
	.st42{fill:#EDDBD2;}
	.st43{fill:#EBEEF7;}
	.st44{fill:#26292B;}
	.st45{fill:#353A3D;}
	.st46{fill:#495055;}
	.st47{fill:#424649;}
	.st48{fill:#3C4145;}
	.st49{fill:#DECCC4;}
	.st50{fill:#A77860;}
	.st51{fill:#51565C;}
	.st52{fill:#2F4563;}
	.st53{fill:#354C70;}
	.st54{fill:#9E7B5C;}
	.st55{fill:#DBC8C3;}
	.st56{fill:#B08A63;}
	.st57{fill:#EDDAD3;}
	.st58{fill:#E5A183;}
	.st59{fill:#EEA987;}
	.st60{fill:#243B61;}
	.st61{fill:#393D63;}
	.st62{fill:#4A4A4A;}
	.st63{fill:#163342;}
	.st64{fill:#8DC4B5;}
	.st65{fill:#AAADBA;}
	.st66{fill:#616161;}
	.st67{fill:#E0CEC7;}
</style>
<g id="Grupo_3743" transform="translate(-289.333 -196.718)">
	<linearGradient id="SVGID_1_" gradientUnits="userSpaceOnUse" x1="515.8315" y1="321.8952" x2="601.2079" y2="321.8952">
		<stop  offset="0" style="stop-color:#409EE6"/>
		<stop  offset="1" style="stop-color:#5577FF"/>
	</linearGradient>
	<path class="st0" d="M527.7,392.5h61.7c6.5,0,11.8-5.3,11.8-11.8V263.2c0-6.5-5.3-11.8-11.8-11.8h-61.7c-6.5,0-11.8,5.3-11.8,11.8
		v117.5C515.8,387.2,521.1,392.5,527.7,392.5z"/>
	
		<linearGradient id="Retângulo_2079_1_" gradientUnits="userSpaceOnUse" x1="-496.2829" y1="881.4385" x2="-495.2829" y2="881.4385" gradientTransform="matrix(49.746 0 0 -49.746 25207.7715 44069.6289)">
		<stop  offset="0" style="stop-color:#409EE6"/>
		<stop  offset="1" style="stop-color:#5577FF"/>
	</linearGradient>
	<path id="Retângulo_2079" class="st1" d="M544.6,196.7L544.6,196.7c13.7,0,24.9,11.1,24.9,24.9c0,0,0,0,0,0l0,0
		c0,13.7-11.1,24.9-24.9,24.9c0,0,0,0,0,0l0,0c-13.7,0-24.9-11.1-24.9-24.9c0,0,0,0,0,0l0,0C519.7,207.9,530.8,196.7,544.6,196.7
		C544.6,196.7,544.6,196.7,544.6,196.7z"/>
	<g>
		<g id="Grupo_3627" transform="translate(542.318 210.234)">
			<g id="Grupo_3622">
				<rect id="Retângulo_2080" x="-11.3" y="1.6" class="st2" width="0.1" height="17.1"/>
			</g>
			<g id="Grupo_3623" transform="translate(9.689)">
				<rect id="Retângulo_2081" x="-14.5" y="1.6" class="st2" width="0.1" height="17.1"/>
			</g>
			<g id="Grupo_3624" transform="translate(19.378)">
				<rect id="Retângulo_2082" x="-17.7" y="1.6" class="st2" width="0.1" height="17.1"/>
			</g>
			<g id="Grupo_3625" transform="translate(29.067)">
				<rect id="Retângulo_2083" x="-20.9" y="1.6" class="st2" width="0.1" height="17.1"/>
			</g>
			<g id="Grupo_3626" transform="translate(38.756)">
				<rect id="Retângulo_2084" x="-24.1" y="1.6" class="st2" width="0.1" height="17.1"/>
			</g>
		</g>
		
			<linearGradient id="Caminho_12404_1_" gradientUnits="userSpaceOnUse" x1="-491.6574" y1="873.0324" x2="-490.9893" y2="873.0324" gradientTransform="matrix(38.7561 0 0 -23.728 19585.834 20936.2871)">
			<stop  offset="0" style="stop-color:#D5E4FF"/>
			<stop  offset="1" style="stop-color:#EDFFFE"/>
		</linearGradient>
		<path id="Caminho_12404" class="st3" d="M531.1,222c0,0,2.4,1.5,4.9-1.2c2.5-2.6,5.3-4.7,7.9-2.5s4.2,2.8,6.8,0.3s2.4-5.5,6.2-5.5
			v15.9h-25.9L531.1,222z"/>
		<rect id="Retângulo_2085" x="531.1" y="210.4" class="st4" width="2.6" height="0.6"/>
		<rect id="Retângulo_2086" x="537.6" y="210.4" class="st4" width="1.6" height="0.6"/>
		<rect id="Retângulo_2087" x="544.1" y="210.4" class="st4" width="2" height="0.6"/>
		<rect id="Retângulo_2088" x="550.5" y="210.4" class="st4" width="3.1" height="0.6"/>
		<rect id="Retângulo_2089" x="557" y="210.4" class="st4" width="1.1" height="0.6"/>
		
			<linearGradient id="Retângulo_2090_1_" gradientUnits="userSpaceOnUse" x1="-470.8504" y1="720.2164" x2="-470.1823" y2="720.2164" gradientTransform="matrix(19.179 0 0 -2.24 9561.6143 1845.3113)">
			<stop  offset="0" style="stop-color:#D5E4FF"/>
			<stop  offset="1" style="stop-color:#EDFFFE"/>
		</linearGradient>
		<rect id="Retângulo_2090" x="531.2" y="231.3" class="st5" width="12.8" height="1.5"/>
	</g>
	<g id="Grupo_3633" transform="translate(540.141 336.719)">
		<g id="Grupo_3628">
			
				<linearGradient id="Retângulo_2091_1_" gradientUnits="userSpaceOnUse" x1="1072.4773" y1="544.3129" x2="1073.4773" y2="544.3129" gradientTransform="matrix(0.369 0 0 -47.275 -413.1201 25756.0293)">
				<stop  offset="0" style="stop-color:#D5E4FF"/>
				<stop  offset="1" style="stop-color:#EDFFFE"/>
			</linearGradient>
			<rect id="Retângulo_2091" x="-17.4" y="0" class="st6" width="0.4" height="47.3"/>
		</g>
		<g id="Grupo_3629" transform="translate(17.923)">
			
				<linearGradient id="Retângulo_2092_1_" gradientUnits="userSpaceOnUse" x1="1054.5543" y1="544.3129" x2="1055.5543" y2="544.3129" gradientTransform="matrix(0.369 0 0 -47.275 -406.5065 25756.0293)">
				<stop  offset="0" style="stop-color:#D5E4FF"/>
				<stop  offset="1" style="stop-color:#EDFFFE"/>
			</linearGradient>
			<rect id="Retângulo_2092" x="-17.4" y="0" class="st7" width="0.4" height="47.3"/>
		</g>
		<g id="Grupo_3630" transform="translate(35.845)">
			
				<linearGradient id="Retângulo_2093_1_" gradientUnits="userSpaceOnUse" x1="1036.6323" y1="544.3129" x2="1037.6323" y2="544.3129" gradientTransform="matrix(0.369 0 0 -47.275 -399.8933 25756.0293)">
				<stop  offset="0" style="stop-color:#D5E4FF"/>
				<stop  offset="1" style="stop-color:#EDFFFE"/>
			</linearGradient>
			<rect id="Retângulo_2093" x="-17.4" y="0" class="st8" width="0.4" height="47.3"/>
		</g>
		<g id="Grupo_3631" transform="translate(53.767)">
			
				<linearGradient id="Retângulo_2094_1_" gradientUnits="userSpaceOnUse" x1="1018.7103" y1="544.3129" x2="1019.7103" y2="544.3129" gradientTransform="matrix(0.369 0 0 -47.275 -393.2801 25756.0293)">
				<stop  offset="0" style="stop-color:#D5E4FF"/>
				<stop  offset="1" style="stop-color:#EDFFFE"/>
			</linearGradient>
			<rect id="Retângulo_2094" x="-17.4" y="0" class="st9" width="0.4" height="47.3"/>
		</g>
		<g id="Grupo_3632" transform="translate(71.689)">
			
				<linearGradient id="Retângulo_2095_1_" gradientUnits="userSpaceOnUse" x1="1000.7883" y1="544.3129" x2="1001.7883" y2="544.3129" gradientTransform="matrix(0.369 0 0 -47.275 -386.6669 25756.0293)">
				<stop  offset="0" style="stop-color:#D5E4FF"/>
				<stop  offset="1" style="stop-color:#EDFFFE"/>
			</linearGradient>
			<rect id="Retângulo_2095" x="-17.4" y="0" class="st10" width="0.4" height="47.3"/>
		</g>
	</g>
	
		<linearGradient id="Caminho_12405_1_" gradientUnits="userSpaceOnUse" x1="-501.1075" y1="880.4025" x2="-500.1075" y2="880.4025" gradientTransform="matrix(71.693 0 0 -43.9 36448.8438 39011.6875)">
		<stop  offset="0" style="stop-color:#D5E4FF"/>
		<stop  offset="1" style="stop-color:#EDFFFE"/>
	</linearGradient>
	<path id="Caminho_12405" class="st11" d="M522.9,364.8c0,0,7.3,6.1,14.4-1.1s15.2-9.7,22.4-3.6s10-2.3,17.2-9.2s7.1-10.8,17.7-10.8
		V384H523L522.9,364.8z"/>
	
		<linearGradient id="Retângulo_2096_1_" gradientUnits="userSpaceOnUse" x1="-401.7137" y1="664.3488" x2="-400.7137" y2="664.3488" gradientTransform="matrix(7.106 0 0 -1.721 3377.5266 1476.9867)">
		<stop  offset="0" style="stop-color:#D5E4FF"/>
		<stop  offset="1" style="stop-color:#EDFFFE"/>
	</linearGradient>
	<rect id="Retângulo_2096" x="522.9" y="332.8" class="st12" width="7.1" height="1.7"/>
	
		<linearGradient id="Retângulo_2097_1_" gradientUnits="userSpaceOnUse" x1="-336.0215" y1="664.3488" x2="-335.0215" y2="664.3488" gradientTransform="matrix(4.454 0 0 -1.721 2037.5115 1476.9867)">
		<stop  offset="0" style="stop-color:#D5E4FF"/>
		<stop  offset="1" style="stop-color:#EDFFFE"/>
	</linearGradient>
	<rect id="Retângulo_2097" x="540.9" y="332.8" class="st13" width="4.5" height="1.7"/>
	
		<linearGradient id="Retângulo_2098_1_" gradientUnits="userSpaceOnUse" x1="-369.2119" y1="664.3488" x2="-368.2119" y2="664.3488" gradientTransform="matrix(5.489 0 0 -1.721 2585.3979 1476.9867)">
		<stop  offset="0" style="stop-color:#D5E4FF"/>
		<stop  offset="1" style="stop-color:#EDFFFE"/>
	</linearGradient>
	<rect id="Retângulo_2098" x="558.8" y="332.8" class="st14" width="5.5" height="1.7"/>
	
		<linearGradient id="Retângulo_2099_1_" gradientUnits="userSpaceOnUse" x1="-369.2119" y1="664.3488" x2="-368.2119" y2="664.3488" gradientTransform="matrix(5.489 0 0 -1.721 2603.136 1476.9867)">
		<stop  offset="0" style="stop-color:#D5E4FF"/>
		<stop  offset="1" style="stop-color:#EDFFFE"/>
	</linearGradient>
	<rect id="Retângulo_2099" x="576.5" y="332.8" class="st15" width="5.5" height="1.7"/>
	
		<linearGradient id="Retângulo_2100_1_" gradientUnits="userSpaceOnUse" x1="-479.3286" y1="761.5374" x2="-478.3286" y2="761.5374" gradientTransform="matrix(23.965 0 0 -3.031 12054.6494 2611.4331)">
		<stop  offset="0" style="stop-color:#D5E4FF"/>
		<stop  offset="1" style="stop-color:#EDFFFE"/>
	</linearGradient>
	<rect id="Retângulo_2100" x="567.5" y="301.7" class="st16" width="24" height="3"/>
	
		<linearGradient id="Retângulo_2101_1_" gradientUnits="userSpaceOnUse" x1="-476.405" y1="761.5374" x2="-475.405" y2="761.5374" gradientTransform="matrix(21.999 0 0 -3.031 11047.9736 2624.1392)">
		<stop  offset="0" style="stop-color:#D5E4FF"/>
		<stop  offset="1" style="stop-color:#EDFFFE"/>
	</linearGradient>
	<rect id="Retângulo_2101" x="567.5" y="314.4" class="st17" width="22" height="3"/>
	
		<linearGradient id="Retângulo_2102_1_" gradientUnits="userSpaceOnUse" x1="-470.8535" y1="761.5374" x2="-469.8535" y2="761.5374" gradientTransform="matrix(19.034 0 0 -3.031 9529.7656 2617.7861)">
		<stop  offset="0" style="stop-color:#D5E4FF"/>
		<stop  offset="1" style="stop-color:#EDFFFE"/>
	</linearGradient>
	<rect id="Retângulo_2102" x="567.5" y="308.1" class="st18" width="19" height="3"/>
	<path id="Caminho_12406" class="st19" d="M546.1,297.4c0,2.3-1.9,4.2-4.2,4.2c-2.3,0-4.2-1.9-4.2-4.2s1.9-4.2,4.2-4.2l0,0
		C544.2,293.2,546.1,295.1,546.1,297.4z"/>
	<path id="Caminho_12407" class="st19" d="M549.4,311v8c-4.8,2.2-10.4,2.2-15.2,0v-8c-0.1-4.2,3.1-7.7,7.3-7.9
		c4.2-0.1,7.7,3.1,7.9,7.3C549.4,310.7,549.4,310.9,549.4,311z"/>
	<g id="Grupo_3634" transform="translate(540.325 283.383)">
		<path id="Caminho_12408" class="st19" d="M1.5,37.8c-2.7,0-5.4-0.6-7.8-1.7c-9.5-4.3-13.7-15.5-9.4-25c4.3-9.5,15.5-13.7,25-9.4
			s13.7,15.5,9.4,25c-1.9,4.2-5.2,7.5-9.4,9.4C6.9,37.2,4.2,37.8,1.5,37.8z M1.5,1c-9.9,0-17.9,8-17.9,17.9c0,9.9,8,17.9,17.9,17.9
			s17.9-8,17.9-17.9c0,0,0,0,0,0C19.4,9,11.4,1,1.5,1L1.5,1z"/>
	</g>
	<g id="Grupo_3635" transform="translate(586.21 272.438)">
		
			<linearGradient id="Caminho_12409_1_" gradientUnits="userSpaceOnUse" x1="-1060.7124" y1="598.2491" x2="-1059.7124" y2="598.2491" gradientTransform="matrix(20.884 0 0 -20.884 22134.5762 12504.2959)">
			<stop  offset="0" style="stop-color:#D5E4FF"/>
			<stop  offset="1" style="stop-color:#EDFFFE"/>
		</linearGradient>
		<path id="Caminho_12409" class="st20" d="M-6.9,20.9c-5.8,0-10.4-4.7-10.4-10.4S-12.7,0-6.9,0C-1.2,0,3.5,4.7,3.5,10.4
			C3.5,16.2-1.2,20.9-6.9,20.9z M-6.9,0.4C-12.5,0.4-17,4.9-17,10.4c0,5.6,4.5,10.1,10.1,10.1c5.6,0,10.1-4.5,10.1-10.1
			C3.1,4.9-1.4,0.4-6.9,0.4z"/>
	</g>
	
		<linearGradient id="Retângulo_2103_1_" gradientUnits="userSpaceOnUse" x1="-466.4192" y1="747.9771" x2="-465.4192" y2="747.9771" gradientTransform="matrix(17.184 0 0 -2.74 8555.918 2310.9763)">
		<stop  offset="0" style="stop-color:#D5E4FF"/>
		<stop  offset="1" style="stop-color:#EDFFFE"/>
	</linearGradient>
	<rect id="Retângulo_2103" x="541" y="260.1" class="st21" width="17.2" height="2.7"/>
	
		<linearGradient id="Retângulo_2104_1_" gradientUnits="userSpaceOnUse" x1="-458.524" y1="747.9771" x2="-457.524" y2="747.9771" gradientTransform="matrix(14.649 0 0 -2.74 7260.4238 2318.0383)">
		<stop  offset="0" style="stop-color:#D5E4FF"/>
		<stop  offset="1" style="stop-color:#EDFFFE"/>
	</linearGradient>
	<rect id="Retângulo_2104" x="543.5" y="267.2" class="st22" width="14.6" height="2.7"/>
	
		<linearGradient id="Retângulo_2105_1_" gradientUnits="userSpaceOnUse" x1="-478.7592" y1="747.9771" x2="-477.7592" y2="747.9771" gradientTransform="matrix(23.555 0 0 -2.74 11811.7734 2325.1003)">
		<stop  offset="0" style="stop-color:#D5E4FF"/>
		<stop  offset="1" style="stop-color:#EDFFFE"/>
	</linearGradient>
	<rect id="Retângulo_2105" x="534.6" y="274.3" class="st23" width="23.6" height="2.7"/>
	<linearGradient id="SVGID_2_" gradientUnits="userSpaceOnUse" x1="289.333" y1="311.093" x2="502.882" y2="311.093">
		<stop  offset="0" style="stop-color:#409EE6"/>
		<stop  offset="1" style="stop-color:#5577FF"/>
	</linearGradient>
	<path class="st24" d="M301.2,396.5h189.9c6.5,0,11.8-5.3,11.8-11.8V237.5c0-6.5-5.3-11.8-11.8-11.8H301.2
		c-6.5,0-11.8,5.3-11.8,11.8v147.1C289.3,391.2,294.6,396.5,301.2,396.5z"/>
	<g id="Grupo_3642" transform="translate(410.012 285.542)">
		<g id="Grupo_3637">
			<g id="Grupo_3636">
				
					<linearGradient id="Caminho_12410_1_" gradientUnits="userSpaceOnUse" x1="-897.2252" y1="591.4025" x2="-896.2252" y2="591.4025" gradientTransform="matrix(31.575 0 0 -31.5314 28312.3926 18663.4648)">
					<stop  offset="0" style="stop-color:#D5E4FF"/>
					<stop  offset="1" style="stop-color:#EDFFFE"/>
				</linearGradient>
				<path id="Caminho_12410" class="st25" d="M5.1,1.5c-7.8-3.8-17.2-0.4-21,7.4c-3.8,7.8-0.4,17.2,7.4,21c0,0,0.1,0,0.1,0.1
					c0.3,0.2,0.6,0.3,1,0.4c8.1,3.2,17.2-0.8,20.4-8.9C16.1,13.8,12.6,5.1,5.1,1.5L5.1,1.5z M9,20.8C6.4,26.4-0.2,29-6,26.7
					c-0.2-0.1-0.5-0.2-0.7-0.3c-5.9-2.8-8.4-9.8-5.6-15.7s9.8-8.4,15.7-5.6C9.3,7.9,11.8,14.9,9,20.8z"/>
			</g>
		</g>
		<g id="Grupo_3639" transform="translate(0 4.949)">
			<g id="Grupo_3638">
				<path id="Caminho_12411" class="st26" d="M-12.1,16.3l-3.5,1.8c-3.1-5.9-2.1-13.2,2.5-18.1l2.9,2.7
					C-13.7,6.4-14.4,11.8-12.1,16.3L-12.1,16.3z"/>
			</g>
		</g>
		<g id="Grupo_3641" transform="translate(1.802 21.225)">
			<g id="Grupo_3640">
				<path id="Caminho_12412" class="st27" d="M-7.8,5.5l-1.4,3.7c-0.3-0.1-0.6-0.3-1-0.4c-3.1-1.5-5.6-3.9-7.2-6.9l3.5-1.8
					c1.2,2.3,3.1,4.1,5.4,5.2C-8.2,5.3-8,5.4-7.8,5.5z"/>
			</g>
		</g>
	</g>
	<g id="Grupo_3651" transform="translate(410.013 237.604)">
		<g id="Grupo_3644" transform="translate(0 0)">
			<g id="Grupo_3643">
				
					<linearGradient id="Caminho_12413_1_" gradientUnits="userSpaceOnUse" x1="-897.2125" y1="639.3793" x2="-896.2125" y2="639.3793" gradientTransform="matrix(31.5576 0 0 -31.6313 28296.4512 20240.1191)">
					<stop  offset="0" style="stop-color:#D5E4FF"/>
					<stop  offset="1" style="stop-color:#EDFFFE"/>
				</linearGradient>
				<path id="Caminho_12413" class="st28" d="M12.6,22.5c3.8-7.8,0.5-17.2-7.3-21s-17.2-0.5-21,7.3c0,0.1-0.1,0.2-0.1,0.3
					c-0.2,0.3-0.3,0.6-0.4,1c-3.2,8.1,0.8,17.2,8.9,20.4C0.3,33.4,9.1,30,12.6,22.5L12.6,22.5z M-6.7,26.4c-5.6-2.7-8.2-9.2-5.9-15
					c0.1-0.2,0.2-0.5,0.3-0.7c2.8-5.9,9.8-8.4,15.7-5.6s8.4,9.8,5.6,15.7C6.2,26.7-0.8,29.2-6.7,26.4z"/>
			</g>
		</g>
		<g id="Grupo_3646" transform="translate(8.437 0)">
			<g id="Grupo_3645">
				<path id="Caminho_12414" class="st29" d="M-15.5,5.3l-1.8-3.5c5.9-3.1,13.2-2.1,18.1,2.5L-2,7.2C-5.6,3.7-11.1,3-15.5,5.3
					L-15.5,5.3z"/>
			</g>
		</g>
		<g id="Grupo_3648" transform="translate(1.096 1.802)">
			<g id="Grupo_3647">
				<path id="Caminho_12415" class="st27" d="M-13.7,9.6l-3.7-1.4c0.1-0.3,0.3-0.6,0.4-1c1.5-3.1,3.9-5.6,6.9-7.2l1.8,3.5
					c-2.3,1.2-4.1,3.1-5.2,5.4C-13.5,9.1-13.6,9.4-13.7,9.6z"/>
			</g>
		</g>
		<g id="Grupo_3650" transform="translate(0.051 9.981)">
			<g id="Grupo_3649">
				<path id="Caminho_12416" class="st30" d="M-17.4,4.5c0.1-1.5,0.5-3.1,1-4.5l3.7,1.4c-0.4,1.1-0.7,2.2-0.8,3.4L-17.4,4.5z"/>
			</g>
		</g>
	</g>
	<g id="Grupo_3656" transform="translate(453.302 237.604)">
		<g id="Grupo_3652" transform="translate(0 0)">
			
				<linearGradient id="Retângulo_2107_1_" gradientUnits="userSpaceOnUse" x1="-807.4714" y1="646.7416" x2="-806.4714" y2="646.7416" gradientTransform="matrix(4.966 0 0 -79.428 3992.5273 51409.1133)">
				<stop  offset="0" style="stop-color:#D5E4FF"/>
				<stop  offset="1" style="stop-color:#EDFFFE"/>
			</linearGradient>
			<rect id="Retângulo_2107" x="-17.4" y="0" class="st31" width="5" height="79.4"/>
		</g>
		<g id="Grupo_3653" transform="translate(13.225 0)">
			
				<linearGradient id="Retângulo_2108_1_" gradientUnits="userSpaceOnUse" x1="-820.6965" y1="646.7416" x2="-819.6965" y2="646.7416" gradientTransform="matrix(4.966 0 0 -79.428 4058.2026 51409.1133)">
				<stop  offset="0" style="stop-color:#D5E4FF"/>
				<stop  offset="1" style="stop-color:#EDFFFE"/>
			</linearGradient>
			<rect id="Retângulo_2108" x="-17.4" y="0" class="st32" width="5" height="79.4"/>
		</g>
		<g id="Grupo_3654" transform="translate(26.45 0)">
			
				<linearGradient id="Retângulo_2109_1_" gradientUnits="userSpaceOnUse" x1="-833.9214" y1="646.7416" x2="-832.9214" y2="646.7416" gradientTransform="matrix(4.966 0 0 -79.428 4123.8779 51409.1133)">
				<stop  offset="0" style="stop-color:#D5E4FF"/>
				<stop  offset="1" style="stop-color:#EDFFFE"/>
			</linearGradient>
			<rect id="Retângulo_2109" x="-17.4" y="0" class="st33" width="5" height="79.4"/>
		</g>
		<g id="Grupo_3655" transform="translate(39.675 0)">
			
				<linearGradient id="Retângulo_2110_1_" gradientUnits="userSpaceOnUse" x1="-847.1465" y1="646.7416" x2="-846.1465" y2="646.7416" gradientTransform="matrix(4.966 0 0 -79.428 4189.5532 51409.1133)">
				<stop  offset="0" style="stop-color:#D5E4FF"/>
				<stop  offset="1" style="stop-color:#EDFFFE"/>
			</linearGradient>
			<rect id="Retângulo_2110" x="-17.4" y="0" class="st34" width="5" height="79.4"/>
		</g>
	</g>
	<g id="Grupo_3657" transform="translate(391.527 315.667)">
		<path id="Caminho_12417" class="st35" d="M12,11.7h-29.4v-0.6h28.8V0H12L12,11.7z"/>
	</g>
	<g id="Grupo_3658" transform="translate(327.334 311.643)">
		<path id="Caminho_12418" class="st35" d="M20.9,15.7h-38.2v-0.6h37.6V0h0.6V15.7z"/>
	</g>
	<g id="Grupo_3659" transform="translate(327.334 320.692)">
		
			<linearGradient id="Retângulo_2111_1_" gradientUnits="userSpaceOnUse" x1="-809.5739" y1="458.1123" x2="-808.5739" y2="458.1123" gradientTransform="matrix(26.306 0 0 -3.505 21279.2754 1607.4363)">
			<stop  offset="0" style="stop-color:#D5E4FF"/>
			<stop  offset="1" style="stop-color:#EDFFFE"/>
		</linearGradient>
		<rect id="Retângulo_2111" x="-17.4" y="0" class="st36" width="26.3" height="3.5"/>
	</g>
	<g id="Grupo_3660" transform="translate(391.527 320.692)">
		
			<linearGradient id="Retângulo_2112_1_" gradientUnits="userSpaceOnUse" x1="-852.9011" y1="458.1123" x2="-851.9011" y2="458.1123" gradientTransform="matrix(15.473 0 0 -3.505 13179.5625 1607.4363)">
			<stop  offset="0" style="stop-color:#D5E4FF"/>
			<stop  offset="1" style="stop-color:#EDFFFE"/>
		</linearGradient>
		<rect id="Retângulo_2112" x="-17.4" y="0" class="st37" width="15.5" height="3.5"/>
	</g>
	<rect id="Retângulo_2113" x="304.3" y="347.3" class="st38" width="150.3" height="4.1"/>
	<rect id="Retângulo_2114" x="304.3" y="356.9" class="st38" width="161.5" height="4.1"/>
	<rect id="Retângulo_2115" x="304.3" y="366.6" class="st38" width="123.2" height="4.1"/>
	<rect id="Retângulo_2116" x="304.3" y="347.3" class="st27" width="91.5" height="4.1"/>
	<rect id="Retângulo_2117" x="304.3" y="356.9" class="st27" width="98.9" height="4.1"/>
	<rect id="Retângulo_2118" x="304.3" y="366.6" class="st27" width="64.2" height="4.1"/>
	<path id="Caminho_12419" class="st38" d="M366.2,271.3h-18.3V253h-11.4v18.3h-18.3v11.4h18.3v18.3h11.4v-18.3h18.3V271.3z"/>
	<g id="Grupo_3661" transform="translate(323.298 240.623)">
		<path id="Caminho_12420" class="st39" d="M18.9,72.6c-20.1,0-36.3-16.3-36.3-36.3S-1.1,0,18.9,0C39,0,55.3,16.3,55.3,36.3
			c0,0,0,0,0,0C55.2,56.4,39,72.6,18.9,72.6z M18.9,1.5c-19.2,0-34.8,15.6-34.8,34.8s15.6,34.8,34.8,34.8
			c19.2,0,34.8-15.6,34.8-34.8C53.7,17.1,38.1,1.6,18.9,1.5L18.9,1.5z"/>
	</g>
	<g id="Grupo_3696" transform="translate(464.642 305.492)">
		<g id="Grupo_3662" transform="translate(23.672 26.497)">
			<path id="Caminho_12421" class="st40" d="M12.4,3.7l2.9,52.9l-32.7,3.1L-10,6.4l6.1-5.8l2.4,5.1L6.1,0L12.4,3.7z"/>
		</g>
		<g id="Grupo_3663" transform="translate(36.539 20.66)">
			<path id="Caminho_12422" class="st41" d="M-6.8,5.8c0.4,1.5-7.6,5.8-7.6,5.8l-3-3.4c0,0,0.6-1.8,0.7-2c0-0.1,0-0.1,0-0.2
				c0.1-0.4,0.1-1,0.2-1.5s0.1-1.1,0.2-1.4C-16.2,2.4-6.6,0-6.6,0S-7.2,4.4-6.8,5.8z"/>
		</g>
		<g id="Grupo_3664" transform="translate(20.764 26.024)">
			<path id="Caminho_12423" class="st42" d="M-17.4,0c0,0,3.4,0.9,4.9,2.1S-6.9,6-6.9,6l-6,3.8L-17.4,0z"/>
		</g>
		<path id="Caminho_12424" class="st43" d="M19.8,26.9c0,0-0.6,1.7,2.4,5.4l-3.4,5.4v-9.9L19.8,26.9z"/>
		<g id="Grupo_3665" transform="translate(12.968 178.338)">
			<path id="Caminho_12425" class="st44" d="M-17.4,1l0.1,1.9c0,0,5.2,0.1,6.7-0.8l0.1-2.1L-17.4,1z"/>
		</g>
		<g id="Grupo_3666" transform="translate(0 180.355)">
			<path id="Caminho_12426" class="st44" d="M-4.3,0.9c-1.8,1.5-3.5,3.1-5.1,4.8c-1.1,1.4-6.8,2.2-7.7,3.8c-0.5,0.8-0.4,1.7,0.1,2.5
				c0,0,11,0.7,13.9-0.6s2.3-2.2,5.9-3.3c2.1-0.6,0.4-7.7-0.3-8S-4.3,0.9-4.3,0.9z"/>
		</g>
		<g id="Grupo_3667" transform="translate(48.25 178.338)">
			<path id="Caminho_12427" class="st44" d="M-17.4,1l0.1,1.9c0,0,5.2,0.1,6.7-0.8l0.1-2.1L-17.4,1z"/>
		</g>
		<g id="Grupo_3668" transform="translate(11.496 82.781)">
			<path id="Caminho_12428" class="st45" d="M28.5,14.3c0,0-2.3,26.2-2,28.2s0.4,11.5,1,13.9s0,40.6,0,40.6s-9.1,1-9.6,0
				s-4.4-41.1-4.6-42.9s-4-30.2-4-32.4s-13,26-13.1,27.3c-0.4,2.7-0.5,5.5-0.3,8.2c0.4,3.1-3.4,39.9-3.4,39.9s-9.9,0.6-9.9,0.2
				s0-47.9,0.1-50.2S-5.2,3.5-5.2,3.5S24.2-0.7,27,0.1S28.5,14.3,28.5,14.3z"/>
		</g>
		<g id="Grupo_3669" transform="translate(23.801 81.002)">
			<path id="Caminho_12429" class="st46" d="M-15.8,2.5c0,0,20.2-2.7,21.9-2.5s1,3.1,1,3.1s-23.4,2.4-24.3,2.8S-15.8,2.5-15.8,2.5z"
				/>
		</g>
		<g id="Grupo_3670" transform="translate(33.832 0.557)">
			<path id="Caminho_12430" class="st41" d="M-4.9,0.6c0,0-10.8-4.3-12.2,9.9s3.6,14.3,4.7,14.4c0.9,0.1,6.7-0.6,8.5-4.8
				s5.1-9.8,5.1-12C1.3,4.4-1.3,1.3-4.9,0.6z"/>
		</g>
		<g id="Grupo_3671" transform="translate(41.629 26.637)">
			<path id="Caminho_12431" class="st47" d="M11.2,37.8c-0.1,1-5.6,3.3-11.4,5.4c0.3,2.3,0.6,3.9,0.6,4.1C0.5,48,5.2,64.7,5.9,65.6
				s-13.8,8.6-14.3,8.6s-5.3-20.7-6.5-25.8C-15.5,45-16,41.5-16.2,38c-0.8-8.4-1.4-18.7-1.1-20.2C-16.8,15.4-11.6,0-11.6,0
				s1.2,0.7,2.7,1.6c1.4,0.8,2.9,1.7,3.3,2c0.8,0.7,8.6,3.4,9,3.7S11.5,35.7,11.2,37.8z"/>
		</g>
		<g id="Grupo_3672" transform="translate(17.517 27.254)">
			<path id="Caminho_12432" class="st48" d="M1.9,0c-0.4,0.9-4,14.5-4.4,15.9C-2.7,17-4.2,30.8-4.9,38.2l0,0
				c-0.2,2.2-0.3,3.9-0.3,4.5c0,2.5-6.3,22.9-6.9,23.6s-5.5,6-5.3,5.5c0.5-1,6.6-26.5,6.2-28.2s4.1-16,4.1-16l-4.5-18.1
				C-9.1,8.1-6.8,6.6-4.6,5c0.5-0.5,2-1.6,3.5-2.7C0.6,1.1,1.9,0,1.9,0z"/>
		</g>
		<g id="Grupo_3673" transform="translate(34.077)">
			<path id="Caminho_12433" class="st45" d="M-3.5,19.1c0,0,0.8-4.3,0-4.9s-2.3,0.9-2.3,0.9L-7.6,15c0,0,2-4,1.1-4.5
				s-6.6,0.6-10.8-0.4c0,0-0.8-4.8,1.4-7.6s12.1-4,15.6,0.6S1.9,9.9-3.5,19.1z"/>
		</g>
		<g id="Grupo_3674" transform="translate(35.566 180.355)">
			<path id="Caminho_12434" class="st44" d="M-4.5,0.9C-6.3,2.3-8,3.9-9.6,5.6c-1.1,1.4-7.8,2.9-7.8,4.5s0.6,1.8,0.6,1.8
				s10.5,0.7,13.5-0.6s3.9-2.4,5.9-3.3c2-0.8,0.4-7.7-0.3-8S-4.5,0.9-4.5,0.9z"/>
		</g>
		<g id="Grupo_3675" transform="translate(34.973 37.682)">
			<path id="Caminho_12435" class="st49" d="M-16.9,44.6l-0.5-0.1c0.7-5.9,1.8-27.1,1.2-33c-0.2-4,0.5-7.9,2.2-11.5l0.4,0.2
				c-1.7,3.5-2.4,7.4-2.2,11.2C-15.1,17.4-16.2,38.7-16.9,44.6z"/>
		</g>
		<g id="Grupo_3676" transform="translate(45.243 12.333)">
			<path id="Caminho_12436" class="st41" d="M-15.3,0.2c0,0,1.5-0.8,1.5,0.8s-1.4,3.7-2.9,3.4S-16.8,0.7-15.3,0.2z"/>
		</g>
		<g id="Grupo_3677" transform="translate(37.22 23.435)">
			<path id="Caminho_12437" class="st50" d="M-9.6,0c0,0-2.4,2.9-7.8,3.3c0.1-0.4,0.1-1,0.2-1.5C-17.2,1.8-14.4,3-9.6,0z"/>
		</g>
		<g id="Grupo_3678" transform="translate(33.57 81.695)">
			<path id="Caminho_12438" class="st48" d="M-17.3,0.6c0,0,4.6-0.6,4.8-0.6s0.2,3.7,0.2,3.7l-5,0.6C-17.4,3.1-17.4,1.8-17.3,0.6z"
				/>
		</g>
		<g id="Grupo_3679" transform="translate(28.402 82.782)">
			<path id="Caminho_12439" class="st48" d="M-17.1,0.1c0,0-0.3,3.4-0.3,3.7l0.9-0.1c0,0,0.2-3.6,0.3-3.8L-17.1,0.1z"/>
		</g>
		<g id="Grupo_3680" transform="translate(42.91 81.096)">
			<path id="Caminho_12440" class="st45" d="M-17.4,0.1l1-0.1c0,0,0.3,3.4,0.4,3.7L-17,3.8C-17,3.8-17.3,0.8-17.4,0.1z"/>
		</g>
		<g id="Grupo_3681" transform="translate(28.402 27.254)">
			<path id="Caminho_12441" class="st51" d="M-9,0c-0.4,0.9-4,14.5-4.4,15.9c-0.2,1.1-1.8,14.9-2.5,22.3l-1.6-21.6l2.2-1.5l-1.4-2.1
				l4.6-10.7l0,0C-10.3,1.1-9,0-9,0z"/>
		</g>
		<g id="Grupo_3682" transform="translate(52.129 56.206)">
			<path id="Caminho_12442" class="st45" d="M-17.4,7l7.6-3.8c0,0,0.4-3.3,0-3.2S-17.4,7-17.4,7z"/>
		</g>
		<path id="Caminho_12443" class="st41" d="M-3.4,60.6c-0.7,0.9-1,2-0.8,3.1c0.3,2,4.4,6.6,5.9,5.6S-3.1,61.5-3.4,60.6z"/>
		<path id="Caminho_12444" class="st41" d="M-4.1,61.8c0,0-0.5-1.5,0.4-2.1c0,0,0.9,1.9,1.1,2.2S-4.1,61.8-4.1,61.8z"/>
		<path id="Caminho_12445" class="st51" d="M21.1,34.5c-1.8,4.1-3,8.4-3.4,12.9c-0.6,7-2.2,24.3-2.2,24.3l2.6,5.8l4.3-5.8
			c0,0,0.3-35.8,0.4-36.5S21.1,34.5,21.1,34.5z"/>
		<g id="Grupo_3683" transform="translate(23.581 55.819)">
			<path id="Caminho_12446" class="st52" d="M-13,0c0,0,5.4,6.2,5.8,7s-10.1-4.8-10.1-4.8L-13,0z"/>
		</g>
		<g id="Grupo_3684" transform="translate(11.864 57.988)">
			<path id="Caminho_12447" class="st53" d="M-17.4,0.4c0,0,0.4,11.1,5.9,12.8s13.2,3.3,14.9,3.2s1.9,0.8,1.9,0.8
				c0,2.4-0.1,4.8-0.4,7.1c-0.4,1.7-2.8,5.7-2.3,7.5s6.5,4.2,7.6,2.8s-1.8-3.8-2.3-4.5s3.6-11.4,4.2-14.2s1.5-7.9-3.7-10
				S-4.9,0-4.9,0L-17.4,0.4z"/>
		</g>
		<g id="Grupo_3685" transform="translate(10.588 22.563)">
			<path id="Caminho_12448" class="st41" d="M-7.2,3.5c1.1,8.3-8.9,1.8-8.6,1.8c0.1,0,0.1-0.1,0.2-0.2c0.1-0.4,0.1-0.7,0.1-1.1
				c0-0.3-1.9-2-1.9-2s8.8-3.4,8.9-1.2C-8.6,1.8-8.1,2.9-7.2,3.5z"/>
		</g>
		<g id="Grupo_3686" transform="translate(6.788 9.027)">
			<path id="Caminho_12449" class="st41" d="M-8.2,0c0,0,5.2,4.7,5.9,9.8s-1.6,7.7-7.5,7.5s-6.9-9.2-7.4-10.3S-17.9,0.6-8.2,0z"/>
		</g>
		<g id="Grupo_3687" transform="translate(5.678 8.272)">
			<path id="Caminho_12450" class="st54" d="M-13.7,14.6c0,0-0.1-3.8,1.1-4.6s1.9,0.7,2.5-0.8s2.4-4.8,7.3-3.3c0,0-1.7-7-8.6-5.7
				c-3.7,0.7-6,4.8-5.9,7.2S-15.3,12.9-13.7,14.6z"/>
		</g>
		<g id="Grupo_3688" transform="translate(9.141 16.12)">
			<path id="Caminho_12451" class="st41" d="M-15.2,0.6c-0.2-0.5-1.7-1.2-2.1,0.3s1.3,3.3,2.2,2.3S-15.2,0.6-15.2,0.6z"/>
		</g>
		<g id="Grupo_3689" transform="translate(5.815 25.947)">
			<path id="Caminho_12452" class="st55" d="M-2.4,0.1c0-0.3,1.8,0.3,3.2,2.5c1.2,1.8,2,3.8,2.4,6C3.4,9.7,2.5,16,4.2,19.9
				s1.1,6.7,0.6,10s-15.5,3.5-16.4,2.4s-4-9.7-3.8-16.2s-2.3-7.9-1.9-8.5s5.7-6.3,6.3-5.8S-2.8,5.5-2.4,0.1z"/>
		</g>
		<path id="Caminho_12453" class="st41" d="M-8.9,48.9c-1,1.6-1.2,3.5-0.7,5.3c0.9,2.9,3.9,4.3,3.9,3.9S-8.4,51.5-8.9,48.9z"/>
		<g id="Grupo_3690" transform="translate(26.999 66.244)">
			<path id="Caminho_12454" class="st41" d="M-0.7,1.6C-1.3,1.9-2,2.1-2.7,2c-0.8-0.2-3.8-2.1-5.1-2s1.1,1.4,1.2,1.8
				s0.5,1.1,0.2,1.4c-1.5,0.6-3,0.9-4.6,1c-1.6,0-5.9-0.5-6.3,0s0.5,1,0.7,1s-1.3,1,0.1,2.3s8.1,2.1,10.9,1.4s7.9-2.1,7.9-2.1
				L-0.7,1.6z"/>
		</g>
		<g id="Grupo_3691" transform="translate(42.161 59.384)">
			<path id="Caminho_12455" class="st48" d="M0.2,0c0,0-16.2,8.1-17.3,8.4s1.8,6.7,1.8,6.7l14.5-4.7L0.2,0z"/>
		</g>
		<g id="Grupo_3692" transform="translate(16.102 52.092)">
			<path id="Caminho_12456" class="st41" d="M-15.7,0c0,0,1.3,0,2.7,0s1.7,0.7,1.4,1.3s3.2,0.6,2.5,2.2s-5.1,2-6.4,0.6
				c-0.5-0.6-1.1-1.2-1.8-1.6C-17.4,2.5-17.1,0.3-15.7,0z"/>
		</g>
		<g id="Grupo_3693" transform="translate(1.783 31.879)">
			<path id="Caminho_12457" class="st42" d="M-7.9,5c0,0,2.2-3.8-1.8-4.9c-2.7-0.8-7.2,3.6-7.7,16.2c-0.1,2.8,13.1,5.4,13.9,6.5
				s3.4-1.2,1.9-2.8s-9.1-5.6-8.8-8.4S-7.9,5-7.9,5z"/>
		</g>
		<path id="Caminho_12458" class="st43" d="M29.6,25.7c0,0-0.9,2.8-7.5,6.6l1.8,6.1l7-11.1l-1-0.6L29.6,25.7z"/>
		<g id="Grupo_3694" transform="translate(41.629 26.637)">
			<path id="Caminho_12459" class="st51" d="M-9.9,12.7l-3.4,2.6l3,1.9L-16.2,38c-0.8-8.4-1.4-18.7-1.1-20.2
				C-16.8,15.4-11.6,0-11.6,0s1.2,0.7,2.7,1.6L-9.9,12.7z"/>
		</g>
		<g id="Grupo_3695" transform="translate(37.08 32.27)">
			<path id="Caminho_12460" class="st51" d="M-14.9,0l1.3,4.2C-14.7,5.1-16.4,5-17.4,4L-14.9,0z"/>
		</g>
	</g>
	<g id="Grupo_3726" transform="translate(526.557 306.38)">
		<g id="Grupo_3699" transform="translate(11.154 0)">
			<g id="Grupo_3698">
				<g id="Grupo_3697">
					<path id="Caminho_12461" class="st56" d="M-12.2,1.7c0,0-6.1,3.4-4.2,11.7s2.7,9.4,1.1,12.8s-3,17.4-1.3,20S2.2,33.5,4.1,21.4
						S1.8,4.2,0.2,2.3S-6.8-1.4-12.2,1.7z"/>
				</g>
			</g>
		</g>
		<g id="Grupo_3700" transform="translate(4.701 30.947)">
			<path id="Caminho_12462" class="st41" d="M-4.1,0c0,0,4.8,1.5,4.4,5.1s-2.8,7.5-3.4,8.9s-7.3,18.9-7.2,19.4s-0.8,6.3-1.1,13.1
				c-0.4,7.7-0.4,11.5-0.4,11.5l-5.3,0.1c0,0-1.1-20.1,0.3-25.2s4.1-23,4.1-23S-10.5,1.1-4.1,0z"/>
		</g>
		<path id="Caminho_12463" class="st55" d="M-9.3,45.3l9.8,4.1c0,0,9-22.4,1.5-19.9C-5.6,32.1-9,36.7-9.3,45.3z"/>
		<path id="Caminho_12464" class="st57" d="M-16,190.1c2-1.4,6.4-9.9,6.4-9.9s1.9-5.8,5.7-4.1c2.3,1,2.6,3.5,2.1,5.5l-0.8,9.7
			l-0.7,0.1l-0.1-6.7c-0.9,2-1.5,5.9-2.7,7.4c-1.4,1.8-8.1,1.6-9.5,1.6S-18.7,192-16,190.1z"/>
		<path id="Caminho_12465" class="st57" d="M24.4,186.5c1.1-2.2,1.4-11.7,1.4-11.7s-0.8-6,3.2-6.2c2.5-0.1,3.9,2,4.3,4l3.6,9.1
			l-0.6,0.4l-3.1-5.9c0,2.2,1.3,5.9,0.9,7.8c-0.5,2.2-6.6,5-7.7,5.7S22.8,189.4,24.4,186.5z"/>
		<g id="Grupo_3701" transform="translate(5.515 78.305)">
			<path id="Caminho_12466" class="st58" d="M2.4,21.2c-0.2,1.2-1.5,6.1-3,11.6l0,0c-1.3,5-2.8,10.5-3.7,13.9
				c-0.3,1.3-0.6,2.3-0.7,2.9c-0.8,4.1,0.6,10.4,1.2,15.7S-9.4,101-9.4,101c-1.3,0.7-4.1-3.5-4.1-3.5c0.9-1.9-0.8-35.6-1.5-37.7
				s-1.3-7.8-0.8-10.1c0.1-0.6,0.1-1.2,0.1-1.8c-0.1-2.9-0.9-7.5-1.5-12.7c-0.8-6.5,1-22.8,1.3-24.2c0-0.1,0.1-0.3,0.1-0.6
				c0.6-2.3,2.4-8.8,2.4-8.8c4.3-1.5,7.5-1.9,10-1.5c2.8,0.3,5.1,2.2,6.1,4.8C5.2,10.7,2.7,19.7,2.4,21.2z"/>
		</g>
		<g id="Grupo_3702" transform="translate(8.973 77.233)">
			<path id="Caminho_12467" class="st59" d="M20.5,92.1l-4.2,2c-1.1-3.5-21.4-27-22.7-29.6c-1.5-3.2-2.6-6.5-3.2-9.9
				c0-0.4-0.1-0.9-0.2-1.7c-0.5-3-1.6-8.6-2.8-12.9c-0.2-0.8-0.5-1.6-0.7-2.3c-1.2-3.7-2.7-16.7-3.4-24.3c-0.3-3.4-0.5-5.7-0.5-5.7
				s0.1-0.1,0.2-0.2C-15.7,5.9-1.6-4.5,2.7,2.2c1.2,2,2,4.2,2.6,6.4c1.8,6.3,0.9,13.3-0.6,19.8C3,35.6,2.1,38.1,1,48.1
				c-0.4,3.3,0.7,7.7,1.5,8.9c2.4,3.4,4.7,6.2,10.2,18.5C14.4,79.5,20.5,92.1,20.5,92.1z"/>
		</g>
		<g id="Grupo_3703" transform="translate(7.128 28.08)">
			<path id="Caminho_12468" class="st42" d="M-17.4,60.7c4.1,0.6,30.6-4.9,30.7-6s-3.5-14-4.7-17.9s0-4.8,0.5-7.9
				c0.2-1.2,1-3.5,1.9-6c0.3-0.9,0.6-1.7,0.9-2.6c0.8-2.8,1.4-5.6,1.8-8.4c1.4-9.1-5.6-10-5.6-10C5.6,1.4,1,0,1,0l-7.1,1.5
				c-0.6,0.3-1.2,0.6-1.7,1h0c-0.6,0.4-1.1,0.9-1.6,1.4c-1.4,1.8-2.7,3.6-3.9,5.6c-0.5,0.8-0.9,1.6-1.4,2.3
				c-1.4,2.5-2.5,4.5-2.4,6.8c0,2.2,2.5,6.9,2.8,9.1s1.5,10.1,1.2,12.2S-17.4,60.7-17.4,60.7z"/>
		</g>
		<path id="Caminho_12469" class="st60" d="M18.1,104.5c-3.6,11.4-5.8,14.6-3.4,19.7c0,0-0.9-1.2-7.6-0.1c-1.8,0.3-3.8,0.6-5.8,0.9
			c-3.6,0.5-8.8,1.3-12.7,1.6c-0.1-2.9-0.6-14.1-0.6-19.3c0.1-6,0.6-12,1.6-18c0-0.1,0.1-0.3,0.1-0.6c3.2-1.9,7.8-3.4,12.4-4.4
			c2.1-0.5,4.1-0.8,6.1-1.2c6.2-1,11.3-1.3,11.9-1.4C21.7,88.2,21.2,94.7,18.1,104.5z"/>
		<path id="Caminho_12470" class="st41" d="M1.1,29.6c0,0-4.5,7.6-2.8,8.2s10.4-1.4,13.8-8.5C12.1,29.2,6.3,26.6,1.1,29.6z"/>
		<path id="Caminho_12471" class="st41" d="M1.7,33c0,0,4,1.7,7.5-3.8c0,0-1-6.3,1.1-9.9s-8.9,4.3-8.9,4.3s0.2,0.7,0.4,1.8
			C1.9,26.1,2,26.7,2,27.4c0.1,0.6,0.1,1.2,0.1,1.8C2.3,30.5,2.1,31.8,1.7,33z"/>
		<g id="Grupo_3704" transform="translate(3.589 175.829)">
			<path id="Caminho_12472" class="st58" d="M-11.5,0c0,0-4.8,10.5-5.7,12s1.9,1.3,3.5,0.6s5.8-7.8,6.2-9.1c0.2-1.1,0.2-2.2,0-3.2
				L-11.5,0z"/>
		</g>
		<g id="Grupo_3705" transform="translate(42.658 168.107)">
			<path id="Caminho_12473" class="st59" d="M-17.4,1.6c0,0,0.4,11.6,0.3,13.3s2.3,0.4,3.4-1.1s1.7-9.5,1.5-10.9
				c-0.3-1.1-0.8-2-1.4-2.9L-17.4,1.6z"/>
		</g>
		<path id="Caminho_12474" class="st61" d="M11.5,41.6c0.8,4.2,6.7,9.4,6.7,9.4c0.3-0.9,0.6-1.7,0.9-2.6
			C16.2,46.4,13.7,44.2,11.5,41.6z"/>
		
			<rect id="Retângulo_2119" x="-8.7" y="70.7" transform="matrix(0.126 -0.992 0.992 0.126 -84.4759 77.0102)" class="st62" width="20.2" height="31.5"/>
		<g id="Grupo_3706" transform="translate(25.488 31.221)">
			<path id="Caminho_12475" class="st41" d="M-9.1,0c0,0-4.9,0.6-5.2,4.3s1.4,7.9,1.8,9.4s2.1,17,1.9,17.5s-2.6,11-3.3,16.2
				c-0.8,4.2-1.9,8.4-3.5,12.4l3.9,1c0,0,10.3-22.5,9.8-27.7s1.3-21.8,1.3-21.8S-0.8,1.3-9.1,0z"/>
		</g>
		<g id="Grupo_3711" transform="translate(22.206 90.304)">
			<g id="Grupo_3710">
				<g id="Grupo_3709">
					<g id="Grupo_3708">
						<g id="Grupo_3707">
							<path id="Caminho_12476" class="st41" d="M-11.5,9.4c0.2-0.2,0.4-0.5,0.6-0.8c0,0,0.2-0.6,0.3-1c0-0.1,0.1-0.2,0.1-0.3
								c0.3-0.5,0.6-1.1,0.7-1.7c0-1.5,0-3-0.1-4.5l-2-0.4L-13.8,0c0,0-3.3,3.8-3.5,4.5c0,0.1,0,0.1-0.1,0.2c0,0.5,0,1,0,1.5
								c0,0.1,0,1.4,0.3,1.6c0.3,0.3,0.7,0.4,1.2,0.3c0.4,0.3,1,0.5,1.5,0.6c0.4,0.4,1,0.5,1.6,0.3C-12.8,9.1-12,9.7-11.5,9.4z"/>
						</g>
					</g>
				</g>
			</g>
		</g>
		<path id="Caminho_12477" class="st42" d="M23.8,47l-10.4,2.4c0,0-8.2-16-0.8-18.9C20.4,27.5,25.6,38.3,23.8,47z"/>
		<g id="Grupo_3716" transform="translate(4.112 88.579)">
			<g id="Grupo_3715">
				<g id="Grupo_3714">
					<g id="Grupo_3713">
						<g id="Grupo_3712">
							<path id="Caminho_12478" class="st41" d="M-16.4,8.8c-0.2-0.3-0.4-0.6-0.5-0.9c0,0-0.1-0.6-0.1-1c0-0.1,0-0.2-0.1-0.3
								c-0.2-0.6-0.4-1.2-0.4-1.8c0.2-1.5,0.5-2.9,0.9-4.4l2.1-0.1l1.9-0.3c0,0,2.6,4.3,2.7,5.1c0,0.1,0,0.1,0,0.2
								c0,0.5-0.1,1-0.3,1.5c0,0.1-0.2,1.4-0.5,1.6c-0.4,0.2-0.8,0.3-1.2,0.1c-0.5,0.3-1,0.4-1.6,0.3C-13.9,9-14.5,9.1-15,8.8
								C-15,8.8-15.9,9.2-16.4,8.8z"/>
						</g>
					</g>
				</g>
			</g>
		</g>
		<path id="Caminho_12479" class="st41" d="M-8.4,88.6c-0.2-4.2,0.1-8.5,0.9-12.6c1.3-5.4-5.2-1.6-5.2-1.6l0.2,15.2L-8.4,88.6z"/>
		<g id="Grupo_3719" transform="translate(12.54 2.138)">
			<g id="Grupo_3718">
				<g id="Grupo_3717">
					<path id="Caminho_12480" class="st59" d="M-11.2,0.2c0,0-9.3,2.5-5,18.5s17.5-1,16.7-10.7S-11.2,0.2-11.2,0.2z"/>
				</g>
			</g>
		</g>
		<g id="Grupo_3722" transform="translate(12.579 0.911)">
			<g id="Grupo_3721">
				<g id="Grupo_3720">
					<path id="Caminho_12481" class="st56" d="M-16.8,10.4c3.3,3.1,7.4,5.1,11.9,5.6c0,0,1.4,4.5,1.5,5.8c0,0,8.7-12.2,0.7-19.5
						S-19.7,7.4-16.8,10.4z"/>
				</g>
			</g>
		</g>
		<g id="Grupo_3725" transform="translate(23.919 14.588)">
			<g id="Grupo_3724">
				<g id="Grupo_3723">
					<path id="Caminho_12482" class="st59" d="M-17.3,3.1c0.1-1.1,0.9-3.7,2.6-2.9s-0.4,6-1.5,5.7C-16.2,5.8-17.6,5.8-17.3,3.1z"/>
				</g>
			</g>
		</g>
		<path id="Caminho_12483" class="st50" d="M2.1,29c2.7-0.8,4.8-2.8,5.9-5.3c-1.5,1.9-3.7,3.2-6,3.7C2.1,27.9,2.1,28.4,2.1,29z"/>
	</g>
	<g id="Grupo_3742" transform="translate(360.864 305.492)">
		<path id="Caminho_12484" class="st63" d="M18.7,177.2c0.5,1.1,1.1,2.1,1.8,3c0.9,1.1,3.6,5.8,4.7,6.1s4.9,1,5.2,3s0.5,3.5-3.1,3.7
			s-6,0.4-7.7-2.2c-1.2-1.7-2.8-3.2-4.5-4.4v6.6h-1.4c0,0-0.6-6.9-1-7.4s-1.3-5.8,2-8.5S18.7,177.2,18.7,177.2z"/>
		<path id="Caminho_12485" class="st41" d="M25.3,186.3c0,0-3.2,0.8-4.5,0s-5.5-7.9-6.9-8.4c0,0,1.4-2.7,4.8-0.8
			C18.7,177.2,24.4,185.1,25.3,186.3z"/>
		<path id="Caminho_12486" class="st63" d="M17.9,17.6c0,0,7,14.7,2.2,15.6c-6.6,1.2-9.3-11-9.3-11L17.9,17.6z"/>
		<g id="Grupo_3729" transform="translate(73.369 47.088)">
			<g id="Grupo_3728">
				<g id="Grupo_3727">
					<path id="Caminho_12487" class="st41" d="M-17.4,7c0,0,2.2-0.7,2.4-2c0.3-1,0.8-2,1.4-2.8c0.4-0.5,1-2.7,1.7-2.2
						s-0.9,3.6-1.1,4.3s2.8-0.6,3.5-0.5c0.7,0.2,2.7,5.3,0.5,5.9s-4.9,0-5.3,0.2c-0.5,0.2-1,0.4-1.5,0.6L-17.4,7z"/>
				</g>
			</g>
		</g>
		<g id="Grupo_3732" transform="translate(80.812 49.597)">
			<g id="Grupo_3731">
				<g id="Grupo_3730">
					<path id="Caminho_12488" class="st41" d="M-17.4,1.4c0,0,6.7-1.7,7.3-1.4s0.6,0.6,0,0.8s-6.5,1.8-6.5,1.8S-8.3,2-7.8,2.1
						C-7.5,2.2-7.3,2.9-7.6,3s-8.5,1.2-8.5,1.2S-8.4,3.7-8,3.9c0.2,0.2,0.3,0.5,0.1,0.7C-8,4.8-8.1,4.9-8.3,4.9
						c-0.6,0.1-7.7,1-7.7,1s5.7-0.1,5.9,0.3C-10,6.4-9.8,7.1-11.3,7s-4.9,0.3-4.9,0.3L-17.4,1.4z"/>
				</g>
			</g>
		</g>
		<path id="Caminho_12489" class="st63" d="M0.6,181.5c0,0,3.6,5.4,5.1,6.7c0,0,3.2,1.2,3.6,3.5s0.3,3.8-3.6,3.9s-6.3-0.6-7-2.9
			c-0.5-1.4-1.2-2.8-2.2-3.9v4.9h-0.9c0,0-0.2-4.7-0.3-5.6s-0.6-4.2,1.2-5.7C-2.3,181.4-0.8,181.1,0.6,181.5z"/>
		<path id="Caminho_12490" class="st60" d="M-1.8,77.8c-2.8,3.9-4.8,8.3-5.8,13c-1.2,7,0.7,30.7,0.7,34.2s-3.3,12.1-2.6,18.7
			s3.2,39.2,3.2,39.2l7-1.4c0,0-0.4-33.3,0-36s1.2-12.8,1.4-13.9s10.3-30.9,10.3-36S9.2,69.5-1.8,77.8z"/>
		<path id="Caminho_12491" class="st60" d="M21.1,80.1c0,0,7.5,28.6,8.4,32.6s2.2,7.2,2.2,8.9c-0.2,3.4-0.7,6.8-1.5,10.2l-9.5,45.6
			h-9.1c0,0,5.1-27.3,5.2-32.7s4.3-13,3.5-15.2s-13-28.4-13-28.4S-2,71.8,21.1,80.1z"/>
		<path id="Caminho_12492" class="st41" d="M5.7,188.1c0,0-3.7,2.1-6.1-0.6c-1.3-1.6-2.4-3.3-3.1-5.2l4.1-0.8L5.7,188.1z"/>
		<g id="Grupo_3733" transform="translate(32.679 31.483)">
			<path id="Caminho_12493" class="st40" d="M-14.7,0c2.1,0.3,4,1.3,5.4,2.8c2,2.4,3.8,5,5.1,7.8c0.6,1.3,9.2,13.7,9.6,14
				s4.2-0.7,7.2-1c4.9-0.4,12.2-2.9,12.2-2.9l1.1,5.5c0,0-18,5.8-22.2,4.8c-5.1-1.3-16.8-16.3-16.8-16.3S-21.7,4.6-14.7,0z"/>
		</g>
		<g id="Grupo_3734" transform="translate(8.532 29.103)">
			<path id="Caminho_12494" class="st64" d="M4.1,0.2c1.7,0.8,3.6,1.6,5.4,2.2c1.4,0.3,6.8,7.3,7.7,9.8s0,6.4-1.9,10.9
				s-0.1,6-1,10.5S13.7,55,13.8,57.5s-26,6.3-31.2,1.7c0,0,3.5-15.2,7.7-19.5c0.9-0.9,0.8-7.2,0.2-8.7S-17,17.8-17,17.8
				S-17.6,6-14.5,3.7c2.6-2,9.7-2.8,11-3.2C-1-0.1,1.6-0.2,4.1,0.2z"/>
		</g>
		<g id="Grupo_3735" transform="translate(22.388 19.206)">
			<path id="Caminho_12495" class="st41" d="M-7.8,5.5c-0.4,3.2-0.6,6.5-0.6,9.7c0,0-4.2,4.2-8.9-4.9c1.2-2.8,1.4-5.9,0.5-8.8
				C-18.4-3.5-7.8,5.5-7.8,5.5z"/>
		</g>
		<path id="Caminho_12496" class="st65" d="M26.2,53.9c0,0,1-6.7-0.1-10.7c-0.2,2.9-0.8,5.8-1.9,8.4L26.2,53.9z"/>
		<path id="Caminho_12497" class="st59" d="M2.2,10.9c0,0-0.9-1.1-1.3,0s0.8,4.4,0.9,4.9c0,0,0.6,1.9,0.8,1.6S2.2,10.9,2.2,10.9z"/>
		<path id="Caminho_12498" class="st59" d="M18.3,11c0,0,0.9-1.1,1.3,0s-0.8,4.4-0.9,4.9c0,0-0.6,1.9-0.8,1.6S18.3,11,18.3,11z"/>
		<path id="Caminho_12499" class="st59" d="M11.7,0.3c0,0,8.4,1.3,7.2,14.6s-8.7,12.2-9.2,12.2s-7.5,0.3-8.1-15.9
			C1.7,11.2,1.4-0.8,11.7,0.3z"/>
		<path id="Caminho_12500" class="st63" d="M3.3,10.4c0,0,9.4,2.8,13.8,1.9c0,0,0.3,1.7,0.9,1.8s1-3.2,1-3.2S19.2,0.1,9.5,0
			S1.7,11.7,1.7,11.7l0.1,2C1.8,13.7,3.2,14.3,3.3,10.4z"/>
		<path id="Caminho_12501" class="st50" d="M6.4,25.9c0,0,3,2.8,7.5,0.2c-0.8,1.3-2.3,2.2-3.9,2.2C8.5,28.2,7.1,27.3,6.4,25.9z"/>
		<path id="Caminho_12502" class="st41" d="M1.8,30.2c0,0,2.9,8.5,10.7,7.8s3.7-7.1,3.7-7.1c-0.8-0.5-1.6-0.9-2.5-1.2
			c-0.6-0.1-8.7-0.2-8.7-0.2L1.8,30.2z"/>
		<path id="Caminho_12503" class="st40" d="M16.3,30.9c0,0,4.1,11.4,4.1,23s0.3,30.5,1.8,36.5s5.5,24.4,5.5,24.4l3.2-1.7
			c0,0-7.7-29.5-8.3-31.6s0.4-24.6,1-26.5s2.9-10.2,2.5-12.6c-0.5-2.9-3.2-7.3-7.6-11L16.3,30.9z"/>
		<path id="Caminho_12504" class="st40" d="M3.4,29.8C5.2,36,6.4,42.2,7.2,48.5c1.3,10.5-4,59.2-7.5,70.3l-13.7-2.2
			c0,0,3-34.4,7-40.7s5.3-11.8,1-24.9s1.9-19.6,1.9-19.6S2.2,30,3.4,29.8z"/>
		<path id="Caminho_12505" class="st66" d="M18.2,64.6L1.5,93.4L-17,82.7L-1,53.5L18.2,64.6z"/>
		<path id="Caminho_12506" class="st67" d="M16.2,65.6L1.4,91.2L-15,81.7l14.1-25.9L16.2,65.6z"/>
		<path id="Caminho_12507" class="st66" d="M10.7,63.3l1-1.8l-6.6-3.8l-1.3,1.6L10.7,63.3z"/>
		<g id="Grupo_3740" transform="translate(19.669 74.778)">
			<g id="Grupo_3739">
				<g id="Grupo_3738">
					<g id="Grupo_3737">
						<g id="Grupo_3736">
							<path id="Caminho_12508" class="st41" d="M-9.8,9c-0.4,0-0.7,0-1.1-0.2c0,0-0.6-0.3-1-0.6c-0.1-0.1-0.2-0.1-0.3-0.2
								c-0.7-0.2-1.3-0.4-1.9-0.8c-1.2-1.1-2.3-2.3-3.3-3.5l1.2-1.9l0.9-1.9c0,0,5.5,0.4,6.2,0.7c0.1,0,0.1,0.1,0.2,0.1
								C-8.4,1.2-8,1.6-7.7,2.1c0.1,0.1,1.1,1.1,1.1,1.5c0,0.5-0.3,0.9-0.7,1.1C-7.4,5.3-7.6,5.8-8,6.3c-0.1,0.6-0.4,1.2-1,1.5
								C-8.9,7.8-9.1,8.8-9.8,9z"/>
						</g>
					</g>
				</g>
			</g>
		</g>
		<g id="Grupo_3741" transform="translate(0 31.314)">
			<path id="Caminho_12509" class="st40" d="M-1.3,0.2c0,0-5-1.4-7.9,4.1c-1.9,3.3-3,6.9-3.3,10.7c-0.4,2.6-2,9.6-2.2,10.3
				s-3.9,9.3-2.2,12.4c1.7,3,19.2,12,19.1,12.6s3-6.7,3-6.7s-7.1-3.9-8.2-5.2c-1.9-2-5.8-4.1-5-6.5c1-2.9,3.8-12.6,4.5-14
				S2.9,2-1.3,0.2z"/>
		</g>
	</g>
</g>
</svg>
