<?xml version="1.0" encoding="utf-8"?>
<!-- Generator: Adobe Illustrator 22.1.0, SVG Export Plug-In . SVG Version: 6.00 Build 0)  -->
<svg version="1.1" id="Layer_2" xmlns="http://www.w3.org/2000/svg" xmlns:xlink="http://www.w3.org/1999/xlink" x="0px" y="0px"
	 width="140px" height="100px" viewBox="0 0 140 100" enable-background="new 0 0 140 100" xml:space="preserve">
<g>
	<path fill="#DED8EA" d="M129.6,81.5c-0.2,0.2-0.4,0.5-0.5,0.7c-3.5,4.8-7.9,9-13.1,12.4c-0.5,0.4-1.1,0.7-1.7,1.1s-1.2,0.7-1.8,1
		c-0.1,0-0.1,0.1-0.2,0.1c-0.1,0.1-0.2,0.1-0.3,0.2c-0.1,0-0.1,0.1-0.2,0.1c-4.4,2.2-8.1,2.9-11.5,2.5c-0.1,0-0.3,0-0.4-0.1
		c-13.4-1.8-23.1-19.3-55.3-21.4c-28-1.8-7.7-57.3,17.5-69.7C95.4-7.8,117.4,1.9,131.8,26C142.5,43.8,140.9,65.6,129.6,81.5z"/>
	<path fill="#FFFFFF" d="M84.2,80.4H4.4C2.5,80.4,1,78.9,1,77V16.1C1,10.4,5.7,5.7,11.4,5.7h95.3c5.3,0,9.6,4.3,9.6,9.6v33.1
		C116.3,66,101.9,80.4,84.2,80.4z"/>
	<rect x="55.9" y="34.8" fill="#FF6C00" width="59.3" height="9.7"/>
	<g>
		<g>
			<g>
				<g>
					<path fill="#9B8CC1" d="M114.6,70.9c-0.2,0.1-0.7-0.3-0.9-0.4c-0.5-0.3-1-0.6-1.5-0.8c-0.4-0.2-0.9-0.5-1.3-0.7
						c-0.2-0.1-0.8-0.5-0.3-0.7c0.2-0.1,0.6,0.2,0.8,0.3c0.5,0.3,1,0.5,1.5,0.8s0.9,0.5,1.4,0.8C114.5,70.3,115.2,70.7,114.6,70.9z"
						/>
				</g>
			</g>
		</g>
		<g>
			<g>
				<g>
					<path fill="#9B8CC1" d="M121.9,74.8c-0.2,0.1-0.7-0.3-0.9-0.4c-0.5-0.3-1-0.6-1.5-0.8c-0.4-0.2-0.9-0.5-1.3-0.7
						c-0.2-0.1-0.8-0.5-0.3-0.7c0.2-0.1,0.6,0.2,0.8,0.3c0.5,0.3,1,0.5,1.5,0.8s0.9,0.5,1.4,0.8C121.7,74.2,122.5,74.6,121.9,74.8z"
						/>
				</g>
			</g>
		</g>
		<g>
			<g>
				<g>
					<path fill="#9B8CC1" d="M117.3,70.1c-0.6,0.2-0.2-0.6-0.1-0.8c0.3-0.5,0.5-0.9,0.8-1.4s0.5-1,0.8-1.4c0.1-0.2,0.3-0.7,0.5-0.7
						c0.5-0.1,0.3,0.5,0.2,0.7c-0.2,0.5-0.5,0.9-0.7,1.3c-0.3,0.5-0.6,1-0.8,1.5C117.7,69.5,117.5,70,117.3,70.1z"/>
				</g>
			</g>
		</g>
		<g>
			<g>
				<g>
					<path fill="#9B8CC1" d="M113.3,77.3c-0.6,0.2-0.2-0.6-0.1-0.8c0.3-0.5,0.5-0.9,0.8-1.4s0.5-1,0.8-1.4c0.1-0.2,0.3-0.7,0.5-0.7
						c0.5-0.1,0.3,0.5,0.2,0.7c-0.2,0.5-0.5,0.9-0.7,1.3c-0.3,0.5-0.6,1-0.8,1.5C113.7,76.8,113.6,77.3,113.3,77.3z"/>
				</g>
			</g>
		</g>
	</g>
	<path fill="#DED8EA" d="M51.1,17.9H6.9c0,0-0.1,0-0.1-0.1c0,0,0-0.1,0.1-0.1H51C51.1,17.8,51.1,17.8,51.1,17.9
		C51.1,17.8,51.1,17.9,51.1,17.9z"/>
	<path fill="#DED8EA" d="M13.3,23.6H6.9c0,0-0.1,0-0.1-0.1V19c0,0,0-0.1,0.1-0.1h6.3c0,0,0.1,0,0.1,0.1L13.3,23.6
		C13.3,23.5,13.3,23.6,13.3,23.6z M7,23.5h6.2V19H7V23.5z"/>
	<path fill="#DED8EA" d="M19.6,23.6h-6.3c0,0-0.1,0-0.1-0.1V19c0,0,0-0.1,0.1-0.1h6.3c0,0,0.1,0,0.1,0.1L19.6,23.6
		C19.7,23.5,19.6,23.6,19.6,23.6z M13.3,23.5h6.2V19h-6.2V23.5z"/>
	<path fill="#DED8EA" d="M25.9,23.6h-6.3c0,0-0.1,0-0.1-0.1V19c0,0,0-0.1,0.1-0.1h6.3c0,0,0.1,0,0.1,0.1L25.9,23.6
		C26,23.5,26,23.6,25.9,23.6z M19.7,23.5h6.2V19h-6.2V23.5z"/>
	<path fill="#DED8EA" d="M32.3,23.6H26c0,0-0.1,0-0.1-0.1V19c0,0,0-0.1,0.1-0.1h6.3c0,0,0.1,0,0.1,0.1L32.3,23.6
		C32.3,23.5,32.3,23.6,32.3,23.6z M26,23.5h6.2V19H26V23.5z"/>
	<path fill="#DED8EA" d="M38.6,23.6h-6.3c0,0-0.1,0-0.1-0.1V19c0,0,0-0.1,0.1-0.1h6.3c0,0,0.1,0,0.1,0.1L38.6,23.6
		C38.7,23.5,38.7,23.6,38.6,23.6z M32.3,23.5h6.2V19h-6.2V23.5z"/>
	<path fill="#DED8EA" d="M45,23.6h-6.3c0,0-0.1,0-0.1-0.1V19c0,0,0-0.1,0.1-0.1H45c0,0,0.1,0,0.1,0.1L45,23.6
		C45,23.5,45,23.6,45,23.6z M38.7,23.5h6.2V19h-6.2V23.5z"/>
	<path fill="#DED8EA" d="M51.3,23.6H45c0,0-0.1,0-0.1-0.1V19c0,0,0-0.1,0.1-0.1h6.3c0,0,0.1,0,0.1,0.1L51.3,23.6
		C51.4,23.5,51.3,23.6,51.3,23.6z M45,23.5h6.2V19H45V23.5z"/>
	<path fill="#DED8EA" d="M13.3,32.6H6.9c0,0-0.1,0-0.1-0.1V28c0,0,0-0.1,0.1-0.1h6.3c0,0,0.1,0,0.1,0.1L13.3,32.6
		C13.3,32.5,13.3,32.6,13.3,32.6z M7,32.4h6.2V28H7V32.4z"/>
	<path fill="#DED8EA" d="M19.6,32.6h-6.3c0,0-0.1,0-0.1-0.1V28c0,0,0-0.1,0.1-0.1h6.3c0,0,0.1,0,0.1,0.1L19.6,32.6
		C19.7,32.5,19.6,32.6,19.6,32.6z M13.3,32.4h6.2V28h-6.2V32.4z"/>
	<path fill="#DED8EA" d="M25.9,32.6h-6.3c0,0-0.1,0-0.1-0.1V28c0,0,0-0.1,0.1-0.1h6.3c0,0,0.1,0,0.1,0.1L25.9,32.6
		C26,32.5,26,32.6,25.9,32.6z M19.7,32.4h6.2V28h-6.2V32.4z"/>
	<path fill="#DED8EA" d="M32.3,32.6H26c0,0-0.1,0-0.1-0.1V28c0,0,0-0.1,0.1-0.1h6.3c0,0,0.1,0,0.1,0.1L32.3,32.6
		C32.3,32.5,32.3,32.6,32.3,32.6z M26,32.4h6.2V28H26V32.4z"/>
	<path fill="#DED8EA" d="M38.6,32.6h-6.3c0,0-0.1,0-0.1-0.1V28c0,0,0-0.1,0.1-0.1h6.3c0,0,0.1,0,0.1,0.1L38.6,32.6
		C38.7,32.5,38.7,32.6,38.6,32.6z M32.3,32.4h6.2V28h-6.2V32.4z"/>
	<path fill="#DED8EA" d="M45,32.6h-6.3c0,0-0.1,0-0.1-0.1V28c0,0,0-0.1,0.1-0.1H45c0,0,0.1,0,0.1,0.1L45,32.6
		C45,32.5,45,32.6,45,32.6z M38.7,32.4h6.2V28h-6.2V32.4z"/>
	<path fill="#DED8EA" d="M51.3,32.6H45c0,0-0.1,0-0.1-0.1V28c0,0,0-0.1,0.1-0.1h6.3c0,0,0.1,0,0.1,0.1L51.3,32.6
		C51.4,32.5,51.3,32.6,51.3,32.6z M45,32.4h6.2V28H45V32.4z"/>
	<path fill="#DED8EA" d="M13.3,37.1H6.9c0,0-0.1,0-0.1-0.1v-4.5c0,0,0-0.1,0.1-0.1h6.3c0,0,0.1,0,0.1,0.1L13.3,37.1L13.3,37.1z
		 M7,37h6.2v-4.4H7V37z"/>
	<path fill="#DED8EA" d="M19.6,37.1h-6.3c0,0-0.1,0-0.1-0.1v-4.5c0,0,0-0.1,0.1-0.1h6.3c0,0,0.1,0,0.1,0.1L19.6,37.1
		C19.7,37.1,19.6,37.1,19.6,37.1z M13.3,37h6.2v-4.4h-6.2V37z"/>
	<path fill="#DED8EA" d="M25.9,37.1h-6.3c0,0-0.1,0-0.1-0.1v-4.5c0,0,0-0.1,0.1-0.1h6.3c0,0,0.1,0,0.1,0.1L25.9,37.1
		C26,37.1,26,37.1,25.9,37.1z M19.7,37h6.2v-4.4h-6.2V37z"/>
	<path fill="#DED8EA" d="M32.3,37.1H26c0,0-0.1,0-0.1-0.1v-4.5c0,0,0-0.1,0.1-0.1h6.3c0,0,0.1,0,0.1,0.1L32.3,37.1L32.3,37.1z
		 M26,37h6.2v-4.4H26V37z"/>
	<path fill="#DED8EA" d="M38.6,37.1h-6.3c0,0-0.1,0-0.1-0.1v-4.5c0,0,0-0.1,0.1-0.1h6.3c0,0,0.1,0,0.1,0.1L38.6,37.1
		C38.7,37.1,38.7,37.1,38.6,37.1z M32.3,37h6.2v-4.4h-6.2V37z"/>
	<path fill="#DED8EA" d="M45,37.1h-6.3c0,0-0.1,0-0.1-0.1v-4.5c0,0,0-0.1,0.1-0.1H45c0,0,0.1,0,0.1,0.1L45,37.1L45,37.1z M38.7,37
		h6.2v-4.4h-6.2V37z"/>
	<path fill="#DED8EA" d="M51.3,37.1H45c0,0-0.1,0-0.1-0.1v-4.5c0,0,0-0.1,0.1-0.1h6.3c0,0,0.1,0,0.1,0.1L51.3,37.1
		C51.4,37.1,51.3,37.1,51.3,37.1z M45,37h6.2v-4.4H45V37z"/>
	<path fill="#DED8EA" d="M13.3,28.1H6.9c0,0-0.1,0-0.1-0.1v-4.5c0,0,0-0.1,0.1-0.1h6.3c0,0,0.1,0,0.1,0.1L13.3,28.1L13.3,28.1z
		 M7,28h6.2v-4.4H7V28z"/>
	<path fill="#DED8EA" d="M19.6,28.1h-6.3c0,0-0.1,0-0.1-0.1v-4.5c0,0,0-0.1,0.1-0.1h6.3c0,0,0.1,0,0.1,0.1L19.6,28.1
		C19.7,28.1,19.6,28.1,19.6,28.1z M13.3,28h6.2v-4.4h-6.2V28z"/>
	<path fill="#DED8EA" d="M32.3,28.1H26c0,0-0.1,0-0.1-0.1v-4.5c0,0,0-0.1,0.1-0.1h6.3c0,0,0.1,0,0.1,0.1L32.3,28.1L32.3,28.1z
		 M26,28h6.2v-4.4H26V28z"/>
	<path fill="#DED8EA" d="M38.6,28.1h-6.3c0,0-0.1,0-0.1-0.1v-4.5c0,0,0-0.1,0.1-0.1h6.3c0,0,0.1,0,0.1,0.1L38.6,28.1
		C38.7,28.1,38.7,28.1,38.6,28.1z M32.3,28h6.2v-4.4h-6.2V28z"/>
	<path fill="#DED8EA" d="M45,28.1h-6.3c0,0-0.1,0-0.1-0.1v-4.5c0,0,0-0.1,0.1-0.1H45c0,0,0.1,0,0.1,0.1L45,28.1L45,28.1z M38.7,28
		h6.2v-4.4h-6.2V28z"/>
	<path fill="#DED8EA" d="M51.3,28.1H45c0,0-0.1,0-0.1-0.1v-4.5c0,0,0-0.1,0.1-0.1h6.3c0,0,0.1,0,0.1,0.1L51.3,28.1
		C51.4,28.1,51.3,28.1,51.3,28.1z M45,28h6.2v-4.4H45V28z"/>
	<rect x="19.3" y="23.2" fill="#DED8EA" width="7.1" height="5.1"/>
	<rect x="31.9" y="27.7" fill="#EDBBB8" width="7.1" height="5.1"/>
	<path fill="#DED8EA" d="M7.9,19.9L7.9,19.9C8,19.9,8,19.9,7.9,19.9c0.1,0,0.1,0,0.2,0l0,0c0,0,0,0,0-0.1v-0.1H8c0,0,0,0-0.1,0l0,0
		l0,0c0,0,0,0,0,0.1H7.7v-0.1c0,0,0-0.1,0.1-0.1c0,0,0,0,0.1,0H8h0.1h0.1c0,0,0,0,0.1,0.1v0.1l0,0c0,0,0,0,0,0.1l0,0c0,0,0,0-0.1,0
		h0.1l0,0c0,0,0,0,0,0.1c0,0,0,0,0,0.1v0.1c0,0,0,0.1-0.1,0.1H8.1H8H7.9H7.8c0,0,0,0-0.1-0.1v-0.1h0.1c0,0,0,0,0,0.1l0,0l0,0
		c0,0,0,0,0.1,0s0,0,0.1,0l0,0l0,0c0,0,0,0,0-0.1c0,0,0,0,0-0.1l0,0c0,0,0,0-0.1,0C8,20,8,20,7.9,19.9L7.9,19.9L7.9,19.9z"/>
	<path fill="#DED8EA" d="M8.7,20.4L8.7,20.4l-0.1-0.7l-0.2,0.1v-0.1l0.3-0.1l0,0C8.7,19.6,8.7,20.4,8.7,20.4z"/>
	<path fill="#7A65AC" d="M14.5,20.4h-0.1v-0.7l-0.2,0.1v-0.1l0.3-0.1l0,0V20.4z"/>
	<path fill="#7A65AC" d="M20.9,20.4h-0.5v-0.1l0.3-0.3c0,0,0-0.1,0.1-0.1c0,0,0,0,0-0.1l0,0l0,0c0,0,0,0,0-0.1l0,0l0,0
		c0,0,0,0-0.1,0h-0.1c0,0,0,0-0.1,0c0,0,0,0,0,0.1c0,0,0,0,0,0.1h-0.1v-0.1c0,0,0-0.1,0.1-0.1c0,0,0.1,0,0.1-0.1h0.1h0.1h0.1
		c0,0,0,0,0,0.1v0.1c0,0,0,0,0,0.1c0,0,0,0,0,0.1c0,0,0,0,0,0.1c0,0,0,0-0.1,0.1l-0.2,0.2L20.9,20.4L20.9,20.4z"/>
	<path fill="#7A65AC" d="M26.6,19.9L26.6,19.9c0.1,0,0.1,0,0.1,0s0,0,0.1,0l0,0c0,0,0,0,0-0.1v-0.1h-0.1c0,0,0,0-0.1,0l0,0l0,0
		c0,0,0,0,0,0.1h-0.1v-0.1c0,0,0-0.1,0.1-0.1c0,0,0,0,0.1,0h0.1h0.1H27c0,0,0,0,0.1,0.1v0.1l0,0c0,0,0,0,0,0.1l0,0c0,0,0,0-0.1,0
		h0.1l0,0c0,0,0,0,0,0.1c0,0,0,0,0,0.1v0.1c0,0,0,0.1-0.1,0.1h-0.1h-0.1h-0.1h-0.1c0,0,0,0-0.1-0.1v-0.1h0.1c0,0,0,0,0,0.1l0,0l0,0
		c0,0,0,0,0.1,0c0,0,0,0,0.1,0l0,0l0,0c0,0,0,0,0-0.1c0,0,0,0,0-0.1l0,0c0,0,0,0-0.1,0C26.8,20,26.7,20,26.6,19.9L26.6,19.9
		L26.6,19.9z"/>
	<path fill="#7A65AC" d="M33.6,20.1L33.6,20.1l0.1,0.1L33.6,20.1v0.3h-0.1L33.6,20.1l-0.5,0.1v-0.1l0.4-0.6h0.1V20.1z M33.2,20.1
		h0.3v-0.4l0,0L33.2,20.1z"/>
	<path fill="#7A65AC" d="M39.3,20v-0.4h0.4v0.1h-0.3v0.2c0,0,0,0,0.1,0h0.1h0.1c0,0,0.1,0,0.1,0.1v0.1v0.1v0.1v0.1c0,0,0,0-0.1,0.1
		h-0.1h-0.1h-0.1c0,0,0,0-0.1-0.1v-0.1h0.1c0,0,0,0.1,0.1,0.1h0.1c0,0,0,0,0.1,0l0,0c0,0,0,0,0-0.1c0,0,0,0,0-0.1v-0.1
		c0,0,0,0,0-0.1c0,0,0,0-0.1,0c0,0,0,0-0.1,0l0,0l0,0l0,0C39.4,20,39.4,20,39.3,20L39.3,20z"/>
	<path fill="#7A65AC" d="M46.1,19.5L46.1,19.5L46.1,19.5C46,19.6,46,19.6,46,19.6s-0.1,0-0.1,0.1c0,0,0,0.1-0.1,0.1v0.1
		c0,0,0,0,0.1-0.1H46h0.1c0,0,0.1,0,0.1,0.1V20v0.1v0.1v0.1c0,0,0,0-0.1,0.1H46h-0.1c0,0-0.1,0-0.1-0.1c0,0,0-0.1-0.1-0.1v-0.1l0,0
		V20v-0.1v-0.1c0,0,0-0.1,0.1-0.1c0,0,0.1,0,0.1-0.1C46,19.6,46.1,19.5,46.1,19.5L46.1,19.5z M46,19.9L46,19.9
		C45.9,19.9,45.9,19.9,46,19.9L46,19.9L46,19.9L46,19.9L45.9,20v0.1c0,0,0,0,0.1,0c0,0,0,0,0.1,0c0,0,0,0,0.1,0l0,0c0,0,0,0,0-0.1
		c0,0,0,0,0-0.1c0,0,0,0,0-0.1c0,0,0,0,0-0.1C46.1,20,46.1,19.9,46,19.9L46,19.9z"/>
	<path fill="#7A65AC" d="M8.2,24.2L7.9,25H7.8L8.2,24.2l-0.5,0.1v-0.1L8.2,24.2L8.2,24.2z"/>
	<path fill="#7A65AC" d="M14.7,24.3v0.1l-0.1,0.1c0,0,0,0,0.1,0l0,0c0,0,0,0,0,0.1c0,0,0,0,0,0.1v0.1c0,0,0,0.1-0.1,0.1h-0.1h-0.1
		h-0.1h-0.1c0,0,0,0-0.1-0.1v-0.1c0,0,0,0,0-0.1c0,0,0,0,0-0.1l0,0c0,0,0,0,0.1,0c0,0-0.1,0-0.1-0.1v-0.1v-0.1c0,0,0-0.1,0.1-0.1
		c0,0,0,0,0.1,0h0.1h0.1h0.1C14.6,24.2,14.7,24.2,14.7,24.3L14.7,24.3z M14.6,24.7L14.6,24.7c0-0.1,0-0.1,0-0.1s0,0-0.1,0
		c0,0,0,0-0.1,0c0,0,0,0-0.1,0l0,0c0,0,0,0,0,0.1c0,0,0,0,0,0.1c0,0,0,0,0,0.1l0,0c0,0,0,0,0.1,0c0,0,0,0,0.1,0c0,0,0,0,0.1,0
		c0,0,0,0,0.1,0C14.6,24.8,14.6,24.8,14.6,24.7C14.6,24.8,14.6,24.8,14.6,24.7z M14.6,24.3L14.6,24.3c0-0.1,0-0.1,0-0.1l0,0
		c0,0,0,0-0.1,0c0,0,0,0-0.1,0l0,0l0,0c0,0,0,0,0,0.1c0,0,0,0,0,0.1l0,0l0,0c0,0,0,0,0.1,0c0,0,0,0,0.1,0l0,0
		C14.6,24.4,14.6,24.4,14.6,24.3C14.6,24.4,14.6,24.4,14.6,24.3z"/>
	<path fill="#FFFFFF" d="M20.4,24.9c0.1,0,0.1,0,0.1,0s0.1,0,0.1-0.1v-0.1v-0.1c0,0,0,0-0.1,0.1h-0.1h-0.1c0,0-0.1,0-0.1-0.1v-0.1
		v-0.1v-0.1v-0.1c0,0,0,0,0.1-0.1h0.1h0.1c0,0,0.1,0,0.1,0.1v0.1v0.1l0,0v0.1v0.1v0.1c0,0,0,0.1-0.1,0.1
		C20.5,24.8,20.4,24.8,20.4,24.9C20.6,25,20.5,25,20.4,24.9L20.4,24.9L20.4,24.9L20.4,24.9z M20.6,24.6L20.6,24.6
		C20.6,24.6,20.7,24.6,20.6,24.6c0.1,0,0.1-0.1,0.1-0.1l0,0l0,0v-0.1v-0.1c0,0,0,0-0.1,0c0,0,0,0-0.1,0c0,0,0,0-0.1,0l0,0
		c0,0,0,0,0,0.1c0,0,0,0,0,0.1c0,0,0,0,0,0.1c0,0,0,0,0,0.1C20.5,24.6,20.5,24.6,20.6,24.6C20.5,24.6,20.5,24.6,20.6,24.6z"/>
	<path fill="#7A65AC" d="M26.8,25h-0.1v-0.7l-0.2,0.1v-0.1l0.3-0.1l0,0C26.8,24.2,26.8,25,26.8,25z"/>
	<path fill="#7A65AC" d="M27.7,24.6c0,0.1,0,0.1,0,0.2c0,0,0,0.1-0.1,0.1c0,0-0.1,0-0.1,0.1h-0.1h-0.1c0,0-0.1,0-0.1-0.1
		c0,0,0-0.1-0.1-0.1c0,0,0-0.1,0-0.2v-0.1c0-0.1,0-0.1,0-0.2c0,0,0-0.1,0.1-0.1c0,0,0.1,0,0.1-0.1h0.1h0.1c0,0,0.1,0,0.1,0.1
		c0,0,0,0.1,0.1,0.1c0,0,0,0.1,0,0.2V24.6z M27.6,24.5v-0.1v-0.1l0,0c0,0,0,0-0.1,0c0,0,0,0-0.1,0l0,0c0,0,0,0,0,0.1v0.1v0.2v0.1
		v0.1l0,0c0,0,0,0,0.1,0c0,0,0,0,0.1,0l0,0c0,0,0,0,0-0.1v-0.1V24.5z"/>
	<path fill="#7A65AC" d="M33.5,25L33.5,25l-0.1-0.7l-0.2,0.1v-0.1l0.3-0.1l0,0V25z"/>
	<path fill="#7A65AC" d="M34.1,25L34.1,25L34,24.3l-0.2,0.1v-0.1l0.3-0.1l0,0V25z"/>
	<path fill="#7A65AC" d="M39.6,25L39.6,25l-0.1-0.7l-0.2,0.1v-0.1l0.3-0.1l0,0V25z"/>
	<path fill="#7A65AC" d="M40.5,25H40v-0.1l0.3-0.3c0,0,0-0.1,0.1-0.1c0,0,0,0,0-0.1l0,0l0,0c0,0,0,0,0-0.1l0,0l0,0c0,0,0,0-0.1,0
		h-0.1c0,0,0,0-0.1,0c0,0,0,0,0,0.1c0,0,0,0,0,0.1H40v-0.1c0,0,0-0.1,0.1-0.1c0,0,0.1,0,0.1-0.1h0.1h0.1h0.1c0,0,0,0,0,0.1v0.1
		c0,0,0,0,0,0.1c0,0,0,0,0,0.1c0,0,0,0,0,0.1c0,0,0,0-0.1,0.1L40.2,25L40.5,25L40.5,25z"/>
	<path fill="#7A65AC" d="M46.1,25L46.1,25L46,24.3l-0.2,0.1v-0.1l0.3-0.1l0,0V25z"/>
	<path fill="#7A65AC" d="M46.5,24.5L46.5,24.5C46.6,24.5,46.6,24.5,46.5,24.5c0.1,0,0.1,0,0.2,0l0,0c0,0,0,0,0-0.1v-0.1h-0.1
		c0,0,0,0-0.1,0l0,0l0,0c0,0,0,0,0,0.1h-0.1v-0.1c0,0,0-0.1,0.1-0.1c0,0,0,0,0.1,0h0.1h0.1h0.1c0,0,0,0,0.1,0.1v0.1l0,0
		c0,0,0,0,0,0.1l0,0c0,0,0,0-0.1,0H47l0,0c0,0,0,0,0,0.1c0,0,0,0,0,0.1v0.1c0,0,0,0.1-0.1,0.1h-0.1h-0.1h-0.1h-0.1c0,0,0,0-0.1-0.1
		v-0.1h0.1c0,0,0,0,0,0.1l0,0l0,0c0,0,0,0,0.1,0c0,0,0,0,0.1,0l0,0l0,0c0,0,0,0,0-0.1c0,0,0,0,0-0.1l0,0c0,0,0,0-0.1,0
		C46.7,24.6,46.6,24.6,46.5,24.5L46.5,24.5L46.5,24.5z"/>
	<path fill="#7A65AC" d="M8.1,29.5H7.9v-0.7l-0.2,0.1v-0.1L8,28.6l0,0v0.9H8.1z"/>
	<path fill="#7A65AC" d="M8.8,29.2h0.1v0.1L8.8,29.2v0.3H8.7v-0.2H8.3v-0.1l0.4-0.6h0.1V29.2z M8.4,29.2h0.3v-0.4l0,0L8.4,29.2z"/>
	<path fill="#7A65AC" d="M14.5,29.5h-0.1v-0.7l-0.2,0.1v-0.1l0.3-0.1l0,0V29.5z"/>
	<path fill="#7A65AC" d="M14.9,29.1v-0.4h0.4v0.1H15V29c0,0,0,0,0.1,0h0.1h0.1c0,0,0.1,0,0.1,0.1v0.1v0.1v0.1v0.1c0,0,0,0-0.1,0.1
		h-0.1h-0.1H15c0,0,0,0-0.1-0.1v-0.1H15c0,0,0,0.1,0.1,0.1h0.1c0,0,0,0,0.1,0l0,0c0,0,0,0,0-0.1c0,0,0,0,0-0.1v-0.1c0,0,0,0,0-0.1
		c0,0,0,0-0.1,0c0,0,0,0-0.1,0l0,0l0,0l0,0C15,29.1,15,29.1,14.9,29.1L14.9,29.1z"/>
	<path fill="#7A65AC" d="M20.7,29.5h-0.1v-0.7l-0.2,0.1v-0.1l0.3-0.1l0,0C20.7,28.7,20.7,29.5,20.7,29.5z"/>
	<path fill="#7A65AC" d="M21.4,28.6L21.4,28.6L21.4,28.6c-0.1,0.1-0.1,0.1-0.1,0.1s-0.1,0-0.1,0.1c0,0,0,0.1-0.1,0.1V29
		c0,0,0,0,0.1-0.1h0.1h0.1c0,0,0.1,0,0.1,0.1v0.1v0.1v0.1v0.1c0,0,0,0-0.1,0.1h-0.1h-0.1c0,0-0.1,0-0.1-0.1c0,0,0-0.1-0.1-0.1v-0.1
		l0,0v-0.1V29v-0.1c0,0,0-0.1,0.1-0.1c0,0,0.1,0,0.1-0.1C21.3,28.6,21.3,28.6,21.4,28.6L21.4,28.6z M21.3,29
		C21.2,29,21.2,29,21.3,29c-0.1,0-0.1,0-0.1,0l0,0l0,0l0,0v0.1v0.1c0,0,0,0,0.1,0c0,0,0,0,0.1,0c0,0,0,0,0.1,0l0,0c0,0,0,0,0-0.1
		c0,0,0,0,0-0.1c0,0,0,0,0-0.1c0,0,0,0,0-0.1C21.4,29.1,21.4,29,21.3,29L21.3,29z"/>
	<path fill="#7A65AC" d="M26.8,29.5h-0.1v-0.7l-0.2,0.1v-0.1l0.3-0.1l0,0C26.8,28.7,26.8,29.5,26.8,29.5z"/>
	<path fill="#7A65AC" d="M27.7,28.7l-0.3,0.8h-0.1l0.3-0.7h-0.5v-0.1L27.7,28.7L27.7,28.7z"/>
	<path fill="#FFFFFF" d="M33.2,29.5L33.2,29.5l-0.1-0.7l-0.2,0.1v-0.1l0.3-0.1l0,0V29.5z"/>
	<path fill="#FFFFFF" d="M34,28.9V29l-0.1,0.1c0,0,0,0,0.1,0l0,0c0,0,0,0,0,0.1c0,0,0,0,0,0.1v0.1c0,0,0,0.1-0.1,0.1h-0.1h-0.1h-0.1
		h-0.1c0,0,0,0-0.1-0.1v-0.1c0,0,0,0,0-0.1c0,0,0,0,0-0.1l0,0c0,0,0,0,0.1,0c0,0-0.1,0-0.1-0.1v-0.1v-0.1c0,0,0-0.1,0.1-0.1
		c0,0,0,0,0.1,0h0.1h0.1h0.1C34,28.7,34,28.7,34,28.9C34,28.8,34,28.8,34,28.9z M33.9,29.2L33.9,29.2c0-0.1,0-0.1,0-0.1s0,0-0.1,0
		c0,0,0,0-0.1,0c0,0,0,0-0.1,0l0,0c0,0,0,0,0,0.1c0,0,0,0,0,0.1c0,0,0,0,0,0.1s0,0,0,0s0,0,0.1,0c0,0,0,0,0.1,0c0,0,0,0,0.1,0
		c0,0,0,0,0.1,0C33.9,29.3,33.9,29.3,33.9,29.2C33.9,29.3,33.9,29.3,33.9,29.2z M33.9,28.9C33.9,28.8,33.9,28.8,33.9,28.9
		c0-0.1,0-0.1,0-0.1l0,0c0,0,0,0-0.1,0c0,0,0,0-0.1,0l0,0l0,0c0,0,0,0,0,0.1c0,0,0,0,0,0.1l0,0l0,0c0,0,0,0,0.1,0c0,0,0,0,0.1,0l0,0
		V28.9L33.9,28.9z"/>
	<path fill="#7A65AC" d="M39.6,29.5L39.6,29.5l-0.1-0.7l-0.2,0.1v-0.1l0.3-0.1l0,0V29.5z"/>
	<path fill="#7A65AC" d="M40.1,29.4C40.2,29.4,40.2,29.4,40.1,29.4c0.1,0,0.2,0,0.2-0.1v-0.1v-0.1c0,0,0,0-0.1,0.1h-0.1H40
		c0,0-0.1,0-0.1-0.1V29v-0.1v-0.1v-0.1c0,0,0,0,0.1-0.1h0.1h0.1c0,0,0.1,0,0.1,0.1v0.1v0.1l0,0V29v0.1v0.1c0,0,0,0.1-0.1,0.1
		C40.2,29.3,40.1,29.3,40.1,29.4C40.2,29.5,40.1,29.5,40.1,29.4L40.1,29.4L40.1,29.4L40.1,29.4z M40.2,29.1L40.2,29.1
		C40.3,29.1,40.3,29.1,40.2,29.1c0.1,0,0.1-0.1,0.1-0.1l0,0l0,0v-0.1v-0.1c0,0,0,0-0.1,0c0,0,0,0-0.1,0c0,0,0,0-0.1,0l0,0
		c0,0,0,0,0,0.1c0,0,0,0,0,0.1c0,0,0,0,0,0.1c0,0,0,0,0,0.1C40.1,29.1,40.1,29.1,40.2,29.1C40.1,29.1,40.2,29.1,40.2,29.1z"/>
	<path fill="#7A65AC" d="M46.3,29.5h-0.5v-0.1l0.3-0.3c0,0,0-0.1,0.1-0.1c0,0,0,0,0-0.1l0,0l0,0c0,0,0,0,0-0.1l0,0l0,0
		c0,0,0,0-0.1,0H46c0,0,0,0-0.1,0c0,0,0,0,0,0.1c0,0,0,0,0,0.1h-0.1v-0.1c0,0,0-0.1,0.1-0.1c0,0,0.1,0,0.1-0.1h0.1h0.1h0.1
		c0,0,0,0,0,0.1v0.1c0,0,0,0,0,0.1c0,0,0,0,0,0.1c0,0,0,0,0,0.1c0,0,0,0-0.1,0.1L46,29.5L46.3,29.5L46.3,29.5z"/>
	<path fill="#7A65AC" d="M46.9,29.1c0,0.1,0,0.1,0,0.2c0,0,0,0.1-0.1,0.1c0,0-0.1,0-0.1,0.1h-0.1h-0.1c0,0-0.1,0-0.1-0.1
		c0,0,0-0.1-0.1-0.1c0,0,0-0.1,0-0.2V29c0-0.1,0-0.1,0-0.2c0,0,0-0.1,0.1-0.1c0,0,0.1,0,0.1-0.1h0.1h0.1c0,0,0.1,0,0.1,0.1
		c0,0,0,0.1,0.1,0.1c0,0,0,0.1,0,0.2V29.1z M46.8,29v-0.1v-0.1l0,0c0,0,0,0-0.1,0c0,0,0,0-0.1,0l0,0c0,0,0,0,0,0.1V29v0.2v0.1v0.1
		l0,0c0,0,0,0,0.1,0c0,0,0,0,0.1,0l0,0c0,0,0,0,0-0.1v-0.1V29z"/>
	<path fill="#7A65AC" d="M8.3,34.2H7.7v-0.1L8,33.8c0,0,0-0.1,0.1-0.1c0,0,0,0,0-0.1l0,0l0,0c0,0,0,0,0-0.1l0,0l0,0c0,0,0,0-0.1,0
		H7.9c0,0,0,0-0.1,0c0,0,0,0,0,0.1c0,0,0,0,0,0.1H7.7v-0.1c0,0,0-0.1,0.1-0.1c0,0,0.1,0,0.1-0.1H8h0.1h0.1c0,0,0,0,0,0.1v0.1
		c0,0,0,0,0,0.1c0,0,0,0,0,0.1c0,0,0,0,0,0.1c0,0,0,0-0.1,0.1l-0.2,0.2L8.3,34.2L8.3,34.2z"/>
	<path fill="#7A65AC" d="M8.7,34.2L8.7,34.2l-0.1-0.7l-0.2,0.1v-0.1l0.3-0.1l0,0C8.7,33.4,8.7,34.2,8.7,34.2z"/>
	<path fill="#7A65AC" d="M14.7,34.2h-0.5v-0.1l0.3-0.3c0,0,0-0.1,0.1-0.1c0,0,0,0,0-0.1l0,0l0,0c0,0,0,0,0-0.1l0,0l0,0
		c0,0,0,0-0.1,0h-0.1c0,0,0,0-0.1,0c0,0,0,0,0,0.1c0,0,0,0,0,0.1h-0.1v-0.1c0,0,0-0.1,0.1-0.1c0,0,0.1,0,0.1-0.1h0.1h0.1h0.1
		c0,0,0,0,0,0.1v0.1c0,0,0,0,0,0.1c0,0,0,0,0,0.1c0,0,0,0,0,0.1c0,0,0,0-0.1,0.1l-0.2,0.2H14.7L14.7,34.2z"/>
	<path fill="#7A65AC" d="M15.4,34.2h-0.5v-0.1l0.3-0.3c0,0,0-0.1,0.1-0.1c0,0,0,0,0-0.1l0,0l0,0c0,0,0,0,0-0.1l0,0l0,0
		c0,0,0,0-0.1,0h-0.1c0,0,0,0-0.1,0c0,0,0,0,0,0.1c0,0,0,0,0,0.1h-0.1v-0.1c0,0,0-0.1,0.1-0.1c0,0,0.1,0,0.1-0.1h0.1h0.1h0.1
		c0,0,0,0,0,0.1v0.1c0,0,0,0,0,0.1c0,0,0,0,0,0.1c0,0,0,0,0,0.1c0,0,0,0-0.1,0.1L15,34.1L15.4,34.2L15.4,34.2z"/>
	<path fill="#7A65AC" d="M20.9,34.2h-0.5v-0.1l0.3-0.3c0,0,0-0.1,0.1-0.1c0,0,0,0,0-0.1l0,0l0,0c0,0,0,0,0-0.1l0,0l0,0
		c0,0,0,0-0.1,0h-0.1c0,0,0,0-0.1,0c0,0,0,0,0,0.1c0,0,0,0,0,0.1h-0.1v-0.1c0,0,0-0.1,0.1-0.1c0,0,0.1,0,0.1-0.1h0.1h0.1h0.1
		c0,0,0,0,0,0.1v0.1c0,0,0,0,0,0.1c0,0,0,0,0,0.1c0,0,0,0,0,0.1c0,0,0,0-0.1,0.1l-0.2,0.2H20.9L20.9,34.2z"/>
	<path fill="#7A65AC" d="M21.1,33.7L21.1,33.7c0.1,0,0.1,0,0.1,0s0,0,0.1,0l0,0c0,0,0,0,0-0.1v-0.1h-0.1c0,0,0,0-0.1,0l0,0l0,0
		C21.1,33.5,21.1,33.5,21.1,33.7L21,33.6v-0.1c0,0,0-0.1,0.1-0.1c0,0,0,0,0.1,0h0.1h0.1h0.1c0,0,0,0,0.1,0.1v0.1l0,0c0,0,0,0,0,0.1
		l0,0c0,0,0,0-0.1,0h0.1l0,0c0,0,0,0,0,0.1c0,0,0,0,0,0.1V34c0,0,0,0.1-0.1,0.1h-0.1h-0.1h-0.1h-0.1c0,0,0,0-0.1-0.1v-0.1h0.1
		c0,0,0,0,0,0.1l0,0l0,0c0,0,0,0,0.1,0c0,0,0,0,0.1,0l0,0l0,0c0,0,0,0,0-0.1c0,0,0,0,0-0.1l0,0c0,0,0,0-0.1,0
		C21.3,33.8,21.2,33.8,21.1,33.7L21.1,33.7L21.1,33.7z"/>
	<path fill="#7A65AC" d="M27,34.2h-0.5v-0.1l0.3-0.3c0,0,0-0.1,0.1-0.1c0,0,0,0,0-0.1l0,0l0,0c0,0,0,0,0-0.1l0,0l0,0c0,0,0,0-0.1,0
		h-0.1c0,0,0,0-0.1,0s0,0,0,0.1c0,0,0,0,0,0.1h-0.1v-0.1c0,0,0-0.1,0.1-0.1c0,0,0.1,0,0.1-0.1h0.1h0.1H27c0,0,0,0,0,0.1v0.1
		c0,0,0,0,0,0.1c0,0,0,0,0,0.1c0,0,0,0,0,0.1c0,0,0,0-0.1,0.1l-0.2,0.2H27L27,34.2z"/>
	<path fill="#7A65AC" d="M27.6,33.9h0.1V34L27.6,33.9v0.3h-0.1V34h-0.4v-0.1l0.4-0.6h0.1V33.9z M27.2,33.9h0.3v-0.4l0,0L27.2,33.9z"
		/>
	<path fill="#7A65AC" d="M33.7,34.2h-0.5v-0.1l0.3-0.3c0,0,0-0.1,0.1-0.1c0,0,0,0,0-0.1l0,0l0,0c0,0,0,0,0-0.1l0,0l0,0
		c0,0,0,0-0.1,0h-0.1c0,0,0,0-0.1,0s0,0,0,0.1c0,0,0,0,0,0.1h-0.1v-0.1c0,0,0-0.1,0.1-0.1c0,0,0.1,0,0.1-0.1h0.1h0.1h0.1
		c0,0,0,0,0,0.1v0.1c0,0,0,0,0,0.1c0,0,0,0,0,0.1c0,0,0,0,0,0.1c0,0,0,0-0.1,0.1l-0.2,0.2H33.7L33.7,34.2z"/>
	<path fill="#7A65AC" d="M33.8,33.8v-0.4h0.4v0.1H34v0.2c0,0,0,0,0.1,0h0.1h0.1c0,0,0.1,0,0.1,0.1v0.1V34v0.1v0.1c0,0,0,0-0.1,0.1
		h-0.1h-0.1H34c0,0,0,0-0.1-0.1v-0.1H34c0,0,0,0.1,0.1,0.1h0.1c0,0,0,0,0.1,0l0,0c0,0,0,0,0-0.1c0,0,0,0,0-0.1v-0.1c0,0,0,0,0-0.1
		c0,0,0,0-0.1,0c0,0,0,0-0.1,0l0,0l0,0l0,0C33.9,33.8,33.9,33.8,33.8,33.8L33.8,33.8z"/>
	<path fill="#7A65AC" d="M39.8,34.2h-0.5v-0.1l0.3-0.3c0,0,0-0.1,0.1-0.1c0,0,0,0,0-0.1l0,0l0,0c0,0,0,0,0-0.1l0,0l0,0
		c0,0,0,0-0.1,0h-0.1c0,0,0,0-0.1,0s0,0,0,0.1c0,0,0,0,0,0.1h-0.1v-0.1c0,0,0-0.1,0.1-0.1c0,0,0.1,0,0.1-0.1h0.1h0.1h0.1
		c0,0,0,0,0,0.1v0.1c0,0,0,0,0,0.1c0,0,0,0,0,0.1c0,0,0,0,0,0.1c0,0,0,0-0.1,0.1l-0.2,0.2H39.8L39.8,34.2z"/>
	<path fill="#7A65AC" d="M40.4,33.3L40.4,33.3L40.4,33.3C40.3,33.4,40.3,33.4,40.4,33.3c-0.1,0.1-0.2,0.1-0.2,0.2c0,0,0,0.1-0.1,0.1
		v0.1c0,0,0,0,0.1-0.1h0.1h0.1c0,0,0.1,0,0.1,0.1v0.1v0.1V34v0.1c0,0,0,0-0.1,0.1h-0.1h-0.1c0,0-0.1,0-0.1-0.1c0,0,0-0.1-0.1-0.1
		v-0.1l0,0v-0.1v-0.1v-0.1c0,0,0-0.1,0.1-0.1c0,0,0.1,0,0.1-0.1C40.2,33.3,40.3,33.3,40.4,33.3L40.4,33.3z M40.2,33.7L40.2,33.7
		C40.1,33.7,40.1,33.7,40.2,33.7L40.2,33.7L40.2,33.7L40.2,33.7L40.2,33.7l-0.1,0.2c0,0,0,0,0.1,0c0,0,0,0,0.1,0c0,0,0,0,0.1,0l0,0
		c0,0,0,0,0-0.1c0,0,0,0,0-0.1c0,0,0,0,0-0.1c0,0,0,0,0-0.1C40.3,33.8,40.3,33.7,40.2,33.7C40.3,33.7,40.2,33.7,40.2,33.7z"/>
	<path fill="#7A65AC" d="M46.3,34.2h-0.5v-0.1l0.3-0.3c0,0,0-0.1,0.1-0.1c0,0,0,0,0-0.1l0,0l0,0c0,0,0,0,0-0.1l0,0l0,0
		c0,0,0,0-0.1,0H46c0,0,0,0-0.1,0s0,0,0,0.1c0,0,0,0,0,0.1h-0.1v-0.1c0,0,0-0.1,0.1-0.1c0,0,0.1,0,0.1-0.1h0.1h0.1h0.1
		c0,0,0,0,0,0.1v0.1c0,0,0,0,0,0.1c0,0,0,0,0,0.1c0,0,0,0,0,0.1c0,0,0,0-0.1,0.1L46,34.2H46.3L46.3,34.2z"/>
	<path fill="#7A65AC" d="M46.9,33.4l-0.3,0.8h-0.1L46.9,33.4l-0.6,0.1v-0.1H46.9L46.9,33.4z"/>
	<path fill="#DED8EA" d="M43,36.4H20.9c-0.5,0-0.9-0.4-0.9-0.9v-0.1c0-0.5,0.4-0.9,0.9-0.9H43c0.5,0,0.9,0.4,0.9,0.9v0.1
		C43.8,36.1,43.5,36.4,43,36.4z"/>
	<circle fill="#A7C6FB" cx="21.1" cy="35.5" r="0.6"/>
	<path fill="#A7C6FB" d="M26.2,35.7h-4c-0.1,0-0.2-0.1-0.2-0.2l0,0c0-0.1,0.1-0.2,0.2-0.2h4c0.1,0,0.2,0.1,0.2,0.2l0,0
		C26.4,35.7,26.3,35.7,26.2,35.7z"/>
	<path fill="#F2D1CF" d="M43.4,22.9h-9.7c-0.5,0-0.9-0.4-0.9-0.9l0,0c0-0.5,0.4-0.9,0.9-0.9h9.7c0.5,0,0.9,0.4,0.9,0.9l0,0
		C44.3,22.5,43.9,22.9,43.4,22.9z"/>
	<circle fill="#EDBBB8" cx="33.9" cy="22" r="0.6"/>
	<path fill="#EDBBB8" d="M39,22.2h-4c-0.1,0-0.2-0.1-0.2-0.2l0,0c0-0.1,0.1-0.2,0.2-0.2h4c0.1,0,0.2,0.1,0.2,0.2l0,0
		C39.2,22.1,39.1,22.2,39,22.2z"/>
	<path fill="#FFFFFF" d="M25.5,24.8h-2c-0.1,0-0.1,0.1-0.1,0.1v1.5c0,0.1,0.1,0.1,0.1,0.1h1.6l0.4,0.4h0.1v-0.5v-0.1V25
		C25.6,24.9,25.5,24.8,25.5,24.8z"/>
	<path fill="#FFFFFF" d="M22,24.1h2c0.1,0,0.1,0.1,0.1,0.1v1.5c0,0.1-0.1,0.1-0.1,0.1h-1.6L22,26.2h-0.1v-0.5v-0.1v-1.3
		C21.9,24.1,21.9,24.1,22,24.1z"/>
	<path fill="#DED8EA" d="M24,25.9h-0.6c0,0-0.1,0-0.1-0.1c0,0,0-0.1,0.1-0.1H24c0,0,0.1,0,0.1-0.1v-0.8c0,0,0-0.1,0.1-0.1
		c0,0,0.1,0,0.1,0.1v0.8C24.2,25.8,24.1,25.9,24,25.9z"/>
	<g>
		<path fill="#7A65AC" d="M23,25.4C22.9,25.4,22.9,25.4,23,25.4l-0.1-1c0,0,0-0.1,0.1-0.1c0,0,0.1,0,0.1,0.1L23,25.4L23,25.4z"/>
	</g>
	<g>
		<path fill="#7A65AC" d="M23.5,25h-1c0,0-0.1,0-0.1-0.1c0,0,0-0.1,0.1-0.1h1C23.5,24.8,23.5,24.9,23.5,25
			C23.5,24.9,23.5,25,23.5,25z"/>
	</g>
	<g>
		<path fill="#7A65AC" d="M24.4,25.2v0.4v0.1v0.1h0.2v-0.2v-0.1v-0.4h-0.2V25.2z M24.5,25.9c-0.1,0-0.1,0.1-0.1,0.1
			c0,0.1,0.1,0.1,0.1,0.1l0.1-0.1C24.7,26,24.6,25.9,24.5,25.9z"/>
	</g>
	<g transform="translate(-10.000000, -14.000000)">
		<g transform="translate(10.000000, 14.000000)">
			<g>
				<path fill="#FFFFFF" d="M38.2,29.1C38.2,29.1,38.2,29,38.2,29.1c-0.1-0.2-0.2-0.4-0.4-0.5s-0.3-0.2-0.5-0.2
					c-0.3,0-0.6,0.1-0.8,0.4c-0.2-0.3-0.5-0.4-0.8-0.4c-0.2,0-0.4,0-0.5,0.1c-0.4,0.3-0.6,0.8-0.5,1.3c0,0.1,0.1,0.2,0.1,0.2
					c0.2,0.3,0.6,0.8,1.1,1.1c0,0,0,0,0.1,0.1s0.2,0.2,0.3,0.2s0.1,0.1,0.1,0.1h0.1h0.1c0,0,0.1-0.1,0.2-0.1
					c0.2-0.2,0.6-0.4,0.9-0.7l0,0c0.2-0.2,0.5-0.4,0.6-0.6l0,0c0.1-0.1,0.1-0.2,0.1-0.3C38.3,29.6,38.3,29.3,38.2,29.1z"/>
			</g>
		</g>
	</g>
	<path fill="#E17768" d="M36.6,30.5L36.6,30.5C36.6,30.5,36.5,30.5,36.6,30.5l-0.3-1.1L36,30.1c0,0,0,0-0.1,0h-0.1l-0.2-0.5
		l-0.1,0.1l0,0l0,0l0,0l-0.1,0.2c0,0,0,0-0.1,0h-0.6c0,0-0.1,0-0.1-0.1s0-0.1,0.1-0.1h0.6l0.1-0.2c0,0,0,0,0.1,0c0,0,0,0,0.1,0
		l0.1,0.1l0.1-0.1c0,0,0,0,0.1,0l0,0l0.2,0.4l0.3-0.8c0,0,0,0,0.1,0c0,0,0.1,0,0.1,0.1l0.2,1.1l0.2-0.5l0,0c0,0,0,0,0.1,0l0.1,0.1
		l0.3-0.8c0,0,0,0,0.1,0h0.1l0.3,0.7l0.2-0.2c0,0,0,0,0.1,0c0,0,0,0,0.1,0l0.1,0.2h0.2c0,0,0.1,0,0.1,0.1s0,0.1-0.1,0.1H38
		c0,0,0,0-0.1,0l-0.1-0.2L37.6,30c0,0,0,0-0.1,0c0,0,0,0-0.1,0l-0.3-0.7L36.9,30l0,0c0,0,0,0-0.1,0l-0.1-0.1L36.6,30.5L36.6,30.5z"
		/>
	<g>
		<g>
			<path fill="#9B8CC1" d="M32.2,42.2H7.5C7.2,42.2,7,42,7,41.8s0.2-0.4,0.5-0.4h24.7c0.3,0,0.5,0.2,0.5,0.4
				C32.7,42.1,32.5,42.2,32.2,42.2z"/>
		</g>
	</g>
	<g>
		<g>
			<path fill="#9B8CC1" d="M41.3,46.5H7.5c-0.3,0-0.5-0.2-0.5-0.4s0.2-0.4,0.5-0.4h33.8c0.3,0,0.5,0.2,0.5,0.4S41.6,46.5,41.3,46.5z
				"/>
		</g>
	</g>
	<g>
		<g>
			<path fill="#9B8CC1" d="M19.8,50.7H7.5c-0.3,0-0.5-0.2-0.5-0.4s0.2-0.4,0.5-0.4h12.4c0.3,0,0.5,0.2,0.5,0.4
				C20.3,50.6,20.1,50.7,19.8,50.7z"/>
		</g>
	</g>
	<g>
		<g>
			<g>
				<path fill="#FFFFFF" d="M105.3,37.9H71.5c-0.3,0-0.5-0.2-0.5-0.4s0.2-0.4,0.5-0.4h33.8c0.3,0,0.5,0.2,0.5,0.4
					S105.6,37.9,105.3,37.9z"/>
			</g>
		</g>
		<g>
			<g>
				<path fill="#FFFFFF" d="M83.8,42.2H71.5c-0.3,0-0.5-0.2-0.5-0.4s0.2-0.4,0.5-0.4h12.4c0.3,0,0.5,0.2,0.5,0.4
					C84.3,42,84.1,42.2,83.8,42.2z"/>
			</g>
		</g>
	</g>
	<g>
		<g>
			<path fill="#9B8CC1" d="M35,59.9H7.5c-0.3,0-0.5-0.2-0.5-0.4s0.2-0.4,0.5-0.4H35c0.3,0,0.5,0.2,0.5,0.4
				C35.5,59.8,35.3,59.9,35,59.9z"/>
		</g>
	</g>
	<g>
		<g>
			<path fill="#9B8CC1" d="M38.8,63.5H7.5c-0.3,0-0.5-0.2-0.5-0.4s0.2-0.4,0.5-0.4h31.4c0.3,0,0.5,0.2,0.5,0.4
				C39.3,63.3,39.1,63.5,38.8,63.5z"/>
		</g>
	</g>
	<g>
		<g>
			<path fill="#9B8CC1" d="M19.8,67.1H7.5c-0.3,0-0.5-0.2-0.5-0.4c0-0.2,0.2-0.4,0.5-0.4h12.4c0.3,0,0.5,0.2,0.5,0.4
				C20.3,66.9,20.1,67.1,19.8,67.1z"/>
		</g>
	</g>
	<g>
		<g>
			<path fill="#9B8CC1" d="M40.5,70.6h-33c-0.3,0-0.5-0.2-0.5-0.4c0-0.2,0.2-0.4,0.5-0.4h33.1c0.3,0,0.5,0.2,0.5,0.4
				C41,70.4,40.8,70.6,40.5,70.6z"/>
		</g>
	</g>
	<path fill="#371883" d="M106.4,10.4H10.8c-2.1,0-3.8,1.7-3.8,3.8v0.1h103.3v-0.1C110.3,12.1,108.6,10.4,106.4,10.4z"/>
	<path fill="#FFFFFF" d="M107.7,12.6c0,0.4-0.3,0.6-0.6,0.6c-0.4,0-0.6-0.3-0.6-0.6c0-0.4,0.3-0.6,0.6-0.6
		C107.4,11.9,107.7,12.2,107.7,12.6z"/>
	<circle fill="#FFFFFF" cx="104.7" cy="12.6" r="0.6"/>
	<line fill="none" stroke="#9B8CC1" stroke-width="0.5" stroke-miterlimit="10" x1="57.6" y1="25.9" x2="109.2" y2="25.9"/>
	<line fill="none" stroke="#9B8CC1" stroke-width="0.5" stroke-miterlimit="10" x1="57.6" y1="53.3" x2="109.2" y2="53.3"/>
	<line fill="none" stroke="#9B8CC1" stroke-width="0.5" stroke-miterlimit="10" x1="57.6" y1="62.4" x2="104.7" y2="62.4"/>
	<line fill="none" stroke="#9B8CC1" stroke-width="0.5" stroke-miterlimit="10" x1="57.6" y1="71.6" x2="96.4" y2="71.6"/>
	<text transform="matrix(1 0 0 1 57.5771 24.9229)" fill="#9B8CC1" font-family="'MyriadPro-Regular'" font-size="4.1384px">08:10</text>
	<text transform="matrix(1 0 0 1 57.5771 34.0229)" fill="#9B8CC1" font-family="'MyriadPro-Regular'" font-size="4.1384px">08:20</text>
	<text transform="matrix(1 0 0 1 57.5771 43.1229)" fill="#FFFFFF" font-family="'MyriadPro-Regular'" font-size="4.1384px">08:30</text>
	<text transform="matrix(1 0 0 1 57.5771 52.2229)" fill="#9B8CC1" font-family="'MyriadPro-Regular'" font-size="4.1384px">08:40</text>
	<text transform="matrix(1 0 0 1 57.5771 61.3229)" fill="#9B8CC1" font-family="'MyriadPro-Regular'" font-size="4.1384px">08:50</text>
	<text transform="matrix(1 0 0 1 57.5771 70.4229)" fill="#9B8CC1" font-family="'MyriadPro-Regular'" font-size="4.1384px">09:00</text>
	<g>
		<g>
			<g>
				<path fill="#DED8EA" d="M120.9,30.1c0,0-1.9,7.5-0.1,10.2c0,0,1.2,2.1,3.3,2.7c0,0-4.7,2.9-8.2,3.2c-3.2,0.2-6.9-3.7-7.1-4.2
					c0,0,3.2-1.5,3.8-3.2c0.6-1.7,0.5-4,0.5-4L120.9,30.1z"/>
			</g>
		</g>
		<g>
			<path fill="#DED8EA" d="M126.4,74L126.4,74C126.3,74,126.3,74,126.4,74c0.1,0.7,1.2,3.9,2.6,8.2l-13.1,12.4
				c-0.5,0.4-1.1,0.7-1.7,1.1s-1.2,0.7-1.8,1c-0.1,0-0.1,0.1-0.2,0.1c-0.1,0.1-0.2,0.1-0.3,0.2l0.1,1.3l-0.2,0.1l0,0
				c0-0.4-0.1-0.8-0.1-1.3c-4.4,2.2-8.1,2.9-11.5,2.5c-0.1,0-0.3,0-0.4-0.1c0.5-7.5,1.8-16.9,4.9-24.7c0.5-1.1,1-2.3,1.5-3.3
				c0,0-0.5-2.3-1-4.8c0-0.1-0.1-0.2-0.1-0.4c-0.2-1-0.5-2-0.7-2.9c0-0.1-0.1-0.2-0.1-0.4c-0.3-1-0.5-1.8-0.8-2.4v-0.1
				c0,0,0,0-0.1,0.1l0,0c-0.2,0.5-1.1,2.5-2.3,4.7c-0.1,0.3-0.3,0.6-0.4,0.9c-1.1,2.1-2.4,4.2-3.3,5c-0.1,0.1-0.2,0.2-0.4,0.3
				c0,0,0,0-0.1,0c-0.3-0.1-1.1-0.4-2.4-1.7c-0.1-0.1-0.2-0.2-0.3-0.3c-0.6-0.6-1.2-1.4-2-2.5c-0.1-0.1-0.2-0.2-0.2-0.3
				c-0.5-0.7-1-1.4-1.5-2.3l-3.4-6.3l-1.3-2.5l0.6-0.4l3.5-2.3l0.3-0.2l0.4,0.6l4.8,8.1l0.1,0.1c0,0,0,0,0-0.1
				c0.3-1.1,2.7-10.8,5.6-15.3c0.6-0.9,1.2-1.6,1.7-2c0.2-0.1,0.4-0.2,0.5-0.3c1.7-1.1,3.3-1.8,4.6-2.3h0.1h0.1
				c1.7-0.7,2.8-0.9,2.9-0.9l1,4.4l0,0l0,0c0,0.1,0.1,0.5,0.3,0.8c0.1,0.1,0.1,0.2,0.2,0.3c0.5,0.5,1.3,0.8,2.9,0.5
				c0.1,0,0.3-0.1,0.4-0.1c0.5-0.1,1.2-0.4,1.9-0.7l2.5-4.6l0.4-0.8l0.1-0.1l0,0l0,0h0.2c0.3,0.1,1,0.2,1.8,0.5c0.1,0,0.1,0,0.2,0.1
				c0.2,0.1,0.3,0.1,0.5,0.2l0.2,0.1h0.1c0,0,0,0,0.1,0c0.8,0.2,1.5,0.5,2.3,0.7c0.3,0.1,0.7,0.3,1,0.4c0.1,0.1,0.3,0.1,0.4,0.2
				c0.1,0,0.2,0.1,0.2,0.1h0.1c1.5,0.8,2.9,1.8,3.7,3.5c1,1.9,1.3,4,1.5,6.1c0.5,6,0.7,11.9,0.7,17.9c0,0-0.2,2.2-5,3.1L126.4,74z"
				/>
		</g>
		<g>
			<path fill="#DED8EA" d="M114.9,77.6C114.9,77.6,115,77.6,114.9,77.6l11.4-3.5c0.1,0,0.1-0.1,0.1-0.1c0-0.1-0.1-0.1-0.1-0.1
				L115,77.4l-0.8-5.4l14.1-5.2l0.1-0.1c-0.2-0.9-1.6-16.9-1.6-17s-0.1-0.1-0.1-0.1c-0.1,0-0.1,0.1-0.1,0.1c0.1,0.6,1.3,15.4,1.6,17
				l-14.1,5.2L114,72L114.9,77.6C114.8,77.5,114.9,77.6,114.9,77.6L114.9,77.6z"/>
		</g>
		<g>
			<g>
				<path fill="#DED8EA" d="M120.5,32.6c0,0-2.4,3.7-5.3,3.8c0,0-1.5,0.1-2.1-0.2c0,0-0.1,1.1-0.2,1.8
					C112.8,37.9,119,40.4,120.5,32.6z"/>
			</g>
		</g>
		<g>
			<g>
				<path fill="#DED8EA" d="M110.3,19.2c-1.3,0.3-2.4,1.7-2.8,2.9c-0.7,2.1-0.3,4.5,1.4,6c0.4,0.4,0.8,0.7,1.2,1
					c0.2-1.2,0.1-2.6,0.2-3.8c0.1-1.3,0.1-3.1,0.9-4.2C110.8,20.5,110.6,19.9,110.3,19.2z"/>
			</g>
		</g>
		<g>
			<g>
				<path fill="#DED8EA" d="M121.5,30c-0.3,1.6-1,3.1-2.2,4.3c-1.3,1.3-3.7,3.3-6.3,1.8c-3.5-2.1-3.6-10.7-2.9-13.7
					c0.2-0.7,0.6-1.4,1.1-2c1-1,2.7-2.1,5.3-1.5c4.1,1.1,5.5,3.1,5.4,8.2L121.5,30z"/>
			</g>
		</g>
		<g>
			<g>
				<path fill="#DED8EA" d="M121.6,27.7c0,0,0.8-1,1.7,0c1,1-0.2,3.5-2.2,2.9L121.6,27.7z"/>
			</g>
		</g>
		<g>
			<g>
				<path fill="#DED8EA" d="M114.9,34.5c0.9,0,1.4-1,1.4-1c0-0.1,0-0.1,0-0.1c-0.1,0-0.1,0-0.1,0s-0.6,1.2-1.7,0.8
					c-0.1,0-0.1,0-0.1,0.1s0,0.1,0.1,0.1C114.5,34.4,114.7,34.5,114.9,34.5z"/>
			</g>
		</g>
		<g>
			<g>
				<path fill="#DED8EA" d="M113.2,22.2c0,0-2.2,5.7-4.2,5.1c0,0,0-6.1,1.8-6.8L113.2,22.2z"/>
			</g>
		</g>
		<g>
			<path fill="#DED8EA" d="M125.9,40.2c-2.2-1.9-0.8-5.2-0.8-5.2c0.8-2.8,3.5-9.8-0.6-14.2l0,0l0,0c-0.8-1.5-2-2.7-3.8-3.6
				c-5.6-2.8-10.5,2-10.5,2c-0.3,3.8,11.8,8.4,11.8,8.4c0.3-0.1,0.5-0.1,0.7-0.1c0.6,0,1.1,0.5,0.9,1.5c-0.7,1.7-2.5,1.5-2.5,1.5
				l-0.9,2.8c-0.9,5.6,0.5,7,0.5,7l2.9,0.8c1.7,0.2,5.5,2.2,5.5,2.2C128.6,42,128.1,42.1,125.9,40.2z"/>
		</g>
		<g>
			<path fill="#DED8EA" d="M112.1,44.9l0.8,9.8l4.9-8.9C117.8,45.8,113.9,46.2,112.1,44.9z"/>
		</g>
		<g>
			<path fill="#DED8EA" d="M112.9,54.9C112.9,54.9,113,54.9,112.9,54.9l6.9-7.1c0,0,0,0,0-0.1V45h2.6c0.1,0,0.1,0,0.1-0.1l0.4-4.1
				c0-0.1,0-0.1-0.1-0.1s-0.1,0-0.1,0.1l-0.4,4h-2.6c-0.1,0-0.1,0-0.1,0.1v2.7l-6.7,7l-3-7.3l0.9-2.3c0-0.1,0-0.1-0.1-0.1l-1.8-0.7
				l-0.7-2.7c0-0.1-0.1-0.1-0.1-0.1c-0.1,0-0.1,0.1-0.1,0.1l0.7,2.7c0,0,0,0.1,0.1,0.1l1.8,0.7l-0.9,2.3v0.1L112.9,54.9
				C112.8,54.8,112.8,54.9,112.9,54.9L112.9,54.9z"/>
		</g>
		<g>
			<path fill="#DED8EA" d="M113,54.8L113,54.8c0,0.7-0.4,8.8-0.8,17.9c0,1.3-0.1,2.6-0.1,3.9l0,0c-0.3,8-0.4,16.1-0.2,20.3l0.1,1.3
				l-0.2,0.1l0,0c0-0.4-0.1-0.8-0.1-1.3c-0.2-4.2-0.1-12.3,0.2-20.3c0-1.4,0.1-2.7,0.1-4.1c0.3-9.1,0.7-17.1,0.8-17.9l0,0l0,0
				c0-0.1,0-0.1,0.1-0.1l0,0C112.9,54.7,112.9,54.7,113,54.8C113,54.7,113,54.7,113,54.8z"/>
		</g>
		<g>
			<path fill="#DED8EA" d="M97,64L97,64c0.1,0,0.1-0.1,0.1-0.2l-1.5-2.3c0,0-0.1-0.1-0.1,0c0,0-0.1,0.1,0,0.1L97,64
				C96.9,64,96.9,64,97,64z"/>
		</g>
		<g>
			<path fill="#DED8EA" d="M128.3,66.8L128.3,66.8l1.6-0.6c0.1,0,0.1-0.1,0.1-0.1c0-0.1-0.1-0.1-0.1-0.1l-1.6,0.6
				C128.2,66.6,128.2,66.6,128.3,66.8C128.2,66.7,128.3,66.8,128.3,66.8z"/>
		</g>
		<g>
			<path fill="#DED8EA" d="M103.5,60.5C103.5,60.5,103.6,60.5,103.5,60.5l1.1-2.7c0-0.1,0-0.1-0.1-0.1s-0.1,0-0.1,0.1L103.5,60.5
				C103.4,60.5,103.4,60.5,103.5,60.5C103.4,60.5,103.5,60.5,103.5,60.5z"/>
		</g>
		<g>
			<path fill="#DED8EA" d="M114,55.6c-0.3,0-0.5,0.2-0.5,0.5s0.2,0.5,0.5,0.5s0.5-0.2,0.5-0.5S114.3,55.6,114,55.6z M114,56.5
				c-0.2,0-0.3-0.1-0.3-0.3s0.1-0.3,0.3-0.3s0.3,0.1,0.3,0.3S114.2,56.5,114,56.5z"/>
		</g>
		<g>
			<path fill="#DED8EA" d="M113.6,64.9c-0.3,0-0.5,0.2-0.5,0.5s0.2,0.5,0.5,0.5s0.5-0.2,0.5-0.5C114.1,65.2,113.9,64.9,113.6,64.9z
				 M113.6,65.8c-0.2,0-0.3-0.1-0.3-0.3c0-0.2,0.1-0.3,0.3-0.3c0.2,0,0.3,0.1,0.3,0.3C113.9,65.6,113.8,65.8,113.6,65.8z"/>
		</g>
		<g>
			<path fill="#DED8EA" d="M112.8,84.2c-0.3,0-0.5,0.2-0.5,0.5s0.2,0.5,0.5,0.5s0.5-0.2,0.5-0.5C113.3,84.4,113.1,84.2,112.8,84.2z
				 M112.8,85c-0.2,0-0.3-0.1-0.3-0.3c0-0.2,0.1-0.3,0.3-0.3s0.3,0.1,0.3,0.3C113.1,84.9,113,85,112.8,85z"/>
		</g>
		<g>
			<path fill="#DED8EA" d="M123.6,56.8l-6.2-0.4h-0.1c0,0,0,0,0,0.1l-0.1,0.8c0,0.1,0,0.1,0.1,0.1l6.2,0.4l0,0c0,0,0,0,0.1,0v-0.1
				V56.8C123.7,56.8,123.7,56.8,123.6,56.8z M123.4,57.6l-6-0.4v-0.6l6,0.4V57.6z"/>
		</g>
		<g>
			<g>
				<polygon fill="#DED8EA" points="114.4,72.7 113.2,72.8 113.5,75.8 114.8,75.4 				"/>
			</g>
			<g>
				<path fill="#DED8EA" d="M113.2,72.8l-3.3-0.5c0,0-1.5-0.4-2.9,1l-0.3,0.7c0,0-0.3,0.1-0.5,0.3c-0.2,0.3,0,0.6,0.3,0.8l0,0
					c0,0-0.1,0.6,0.3,1c0,0-0.1,0.6,0.6,0.7l1.3,0.4c0.9,0.3,1.9,0.2,2.7-0.3l2-1.1L113.2,72.8z"/>
			</g>
			<g>
				<path fill="#DED8EA" d="M108.3,75.5C108.3,75.5,108.4,75.5,108.3,75.5c0.1-0.2,0.1-0.2,0-0.2l-1.6-0.3c-0.1,0-0.1,0-0.1,0.1
					s0,0.1,0.1,0.1L108.3,75.5L108.3,75.5z"/>
			</g>
			<g>
				<path fill="#DED8EA" d="M109,76.6C109,76.6,109.1,76.6,109,76.6c0.1-0.2,0.1-0.2,0-0.2l-2-0.4c-0.1,0-0.1,0-0.1,0.1
					s0,0.1,0.1,0.1L109,76.6L109,76.6z"/>
			</g>
			<g>
				<path fill="#DED8EA" d="M107.9,74.3C108,74.3,108,74.3,107.9,74.3l2-1.1c0.1,0,0.1-0.1,0-0.1c0-0.1-0.1-0.1-0.1,0L107.9,74.3
					L107,74c-0.1,0-0.1,0-0.1,0.1s0,0.1,0.1,0.1L107.9,74.3L107.9,74.3z"/>
			</g>
		</g>
		<g>
			<polygon fill="#DED8EA" points="89.9,52.9 89.4,52.1 85.9,54.2 86.5,55.2 			"/>
		</g>
	</g>
	<g>
		<g>
			<g>
				<path fill="#EEBDB6" d="M121.4,29.2c0,0-1.9,7.5-0.1,10.2c0,0,1.2,2.1,3.3,2.7c0,0-4.7,2.9-8.2,3.2c-3.2,0.2-6.9-3.7-7.1-4.2
					c0,0,3.2-1.5,3.8-3.2c0.6-1.7,0.5-4,0.5-4L121.4,29.2z"/>
			</g>
		</g>
		<g>
			<path fill="#FFFFFF" d="M112.5,97.3c0-0.2,0-0.4-0.1-0.7c0.6-0.3,1.2-0.7,1.8-1c6.2-3.7,11.4-8.6,15.3-14.2
				c-1.4-4.4-2.6-7.7-2.8-8.3c0-0.1,0-0.1,0-0.1h0.1l2.3-0.7c4.8-0.9,5-3.1,5-3.1c0-6-0.2-11.9-0.7-17.9c-0.2-2.1-0.5-4.3-1.5-6.1
				c-0.8-1.6-2-2.6-3.5-3.4c-0.1,0-0.1-0.1-0.2-0.1c-0.2-0.1-0.4-0.2-0.5-0.3c-0.3-0.1-0.5-0.2-0.8-0.3c-0.8-0.3-1.7-0.6-2.7-0.9
				h-0.1H124l-0.2-0.1c-0.2-0.1-0.4-0.1-0.5-0.2c-0.1,0-0.1,0-0.2-0.1c-0.8-0.2-1.5-0.4-1.8-0.5h-0.2l0,0l0,0l-0.1,0.1l-0.4,0.8
				l-2.5,4.6c-0.7,0.3-1.3,0.5-1.9,0.7c-0.2,0.1-0.3,0.1-0.4,0.1c-1.5,0.3-2.4,0-2.9-0.5c-0.1-0.1-0.2-0.2-0.2-0.3
				c-0.2-0.4-0.3-0.7-0.3-0.8v-0.1l-1-4.4l0,0c-0.2,0-1.3,0.3-2.9,0.9h-0.1h-0.1c-1.3,0.5-2.9,1.2-4.6,2.3c-0.2,0.1-0.4,0.2-0.5,0.3
				c-0.6,0.4-1.2,1.1-1.7,2c-2.9,4.6-5.3,14.3-5.6,15.4c0,0.1,0,0.1,0,0.1l-0.1-0.1l0,0L91,52.3l-0.4-0.6L90.4,52l-0.6,0.4L87,54.2
				l-0.1,0.1l-0.6,0.4l1.3,2.5l3.4,6.3c0.5,0.9,1,1.6,1.5,2.3c0.1,0.1,0.2,0.2,0.2,0.4c0.7,1,1.4,1.8,2,2.4c0.1,0.1,0.2,0.2,0.3,0.3
				c1.3,1.3,2.1,1.6,2.4,1.7c0.1,0,0.1,0,0.1,0c0.1-0.1,0.2-0.1,0.4-0.3c0.9-0.8,2.2-2.9,3.3-5c0.1-0.3,0.3-0.6,0.4-0.9
				c1.1-2.2,2.1-4.3,2.3-4.7c0-0.1,0-0.1,0-0.1v0.1c0.2,0.6,0.5,1.4,0.8,2.4c0,0.1,0.1,0.2,0.1,0.4c0.2,0.9,0.5,1.9,0.7,2.9
				c0,0.1,0.1,0.3,0.1,0.4c0.6,2.5,1,4.8,1,4.8c-0.5,1.1-1,2.2-1.5,3.3l0,0c-3.2,8.1-4.5,18.1-4.9,25.7c3.5,0.4,7.4-0.3,12-2.7
				c0,0.2,0,0.4,0.1,0.6l0,0L112.5,97.3z"/>
		</g>
		<g>
			<path fill="#DED8EA" d="M115.4,76.7L115.4,76.7l11.4-3.5c0.1,0,0.1-0.1,0.1-0.1c0-0.1-0.1-0.1-0.1-0.1l-11.2,3.4l-0.8-5.4
				l14.1-5.2l0.1-0.1c-0.2-0.9-1.6-16.9-1.6-17s-0.1-0.1-0.1-0.1c-0.1,0-0.1,0.1-0.1,0.1c0.1,0.6,1.3,15.4,1.6,17l-14.1,5.2
				l-0.1,0.1L115.4,76.7C115.3,76.6,115.3,76.7,115.4,76.7L115.4,76.7z"/>
		</g>
		<g>
			<g>
				<path fill="#E8A39A" d="M120.9,31.7c0,0-2.4,3.7-5.3,3.8c0,0-1.5,0.1-2.1-0.2c0,0-0.1,1.1-0.2,1.8
					C113.3,37,119.4,39.5,120.9,31.7z"/>
			</g>
		</g>
		<g>
			<g>
				<path fill="#BF6B4E" d="M110.8,18.3c-1.3,0.3-2.4,1.7-2.8,2.9c-0.7,2.1-0.3,4.5,1.4,6c0.4,0.4,0.8,0.7,1.2,1
					c0.2-1.2,0.1-2.6,0.2-3.8c0.1-1.3,0.1-3.1,0.9-4.2C111.3,19.6,111.1,19,110.8,18.3z"/>
			</g>
		</g>
		<g>
			<g>
				<path fill="#EEBDB6" d="M122,29.1c-0.3,1.6-1,3.1-2.2,4.3c-1.3,1.3-3.7,3.3-6.3,1.8c-3.5-2.1-3.6-10.7-2.9-13.7
					c0.2-0.7,0.6-1.4,1.1-2c1-1,2.7-2.1,5.3-1.5c4.1,1.1,5.5,3.1,5.4,8.2L122,29.1z"/>
			</g>
		</g>
		<g>
			<g>
				<path fill="#EEBDB6" d="M122.1,26.8c0,0,0.8-1,1.7,0c1,1-0.2,3.5-2.2,2.9L122.1,26.8z"/>
			</g>
		</g>
		<g>
			<g>
				<polygon fill="#ECB4AB" points="87.1,54.2 86.5,53 89.5,51.5 89.9,52.4 				"/>
			</g>
			<g>
				<path fill="#ECB4AB" d="M89.5,51.7l-1.3-2.5c0,0,0.5-1.5,0.5-2c0-0.4,0.3-1.7,0.6-2.4c0.1-0.2,0-0.4-0.2-0.5l0,0
					c-0.2-0.1-0.3,0-0.4,0.1l-1.5,2.2L86.1,46L83,42.7c-0.1-0.2-0.4-0.2-0.5,0l0,0c-0.1,0.1-0.1,0.3,0,0.5l2.3,3h-0.6l-0.4,0.4
					c-0.1,0.1-0.1,0.4,0,0.5l0.1,0.2l0,0c-0.2-0.1-0.4-0.1-0.5,0.1l-0.2,0.2c-0.1,0.2-0.1,0.4,0,0.5l0.1,0.1l0,0
					c-0.2-0.1-0.4,0-0.5,0.1l0,0c-0.1,0.2-0.1,0.4,0.1,0.5l2.6,2.3l1,1.9L89.5,51.7z"/>
			</g>
			<g>
				<path fill="#E8A39A" d="M85.9,48.9L85.9,48.9c0.2,0,0.3-0.1,0.4-0.2c0.1-0.2,0.1-0.4,0-0.6l-1.8-1.9h-0.1v0.1l1.8,1.9
					c0.1,0.1,0.1,0.2,0,0.3c0,0.1-0.1,0.1-0.2,0.1s-0.1,0-0.2-0.1L84,47.2h-0.1v0.1l1.7,1.4C85.7,48.8,85.8,48.9,85.9,48.9z"/>
			</g>
			<g>
				<path fill="#E8A39A" d="M85.7,49.6c0.1,0,0.3-0.1,0.4-0.2c0.1-0.2,0.1-0.5-0.1-0.6l-2-1.6h-0.1v0.1l2,1.6c0.1,0.1,0.1,0.2,0,0.3
					s-0.2,0.1-0.3,0.1L83.4,48h-0.1v0.1l2.1,1.4C85.5,49.6,85.6,49.6,85.7,49.6z"/>
			</g>
			<g>
				<path fill="#E8A39A" d="M84.3,49.6c0.1,0,0.2,0,0.3-0.1c0.1-0.1,0.2-0.2,0.2-0.4s-0.1-0.3-0.2-0.4l-0.8-0.5h-0.1v0.1l0.8,0.5
					c0.1,0,0.1,0.1,0.1,0.2c0,0.1,0,0.2-0.1,0.2c-0.1,0.1-0.2,0.1-0.3,0L83.4,49c-0.1,0-0.1,0-0.1,0c0,0.1,0,0.1,0,0.1l0.8,0.4
					C84.1,49.6,84.2,49.6,84.3,49.6z"/>
			</g>
		</g>
		<g>
			<g>
				<path fill="#E27D70" d="M115.3,33.6c0.9,0,1.4-1,1.4-1c0-0.1,0-0.1,0-0.1c-0.1,0-0.1,0-0.1,0s-0.6,1.2-1.7,0.8
					c-0.1,0-0.1,0-0.1,0.1s0,0.1,0.1,0.1C115,33.5,115.2,33.6,115.3,33.6z"/>
			</g>
		</g>
		<g>
			<g>
				<path fill="#BF6B4E" d="M113.7,21.3c0,0-2.2,5.7-4.2,5.1c0,0,0-6.1,1.8-6.8L113.7,21.3z"/>
			</g>
		</g>
		<g>
			<path fill="#BF6B4E" d="M126.4,39.3c-2.2-1.9-0.8-5.2-0.8-5.2c0.8-2.8,3.5-9.8-0.6-14.2l0,0l0,0c-0.8-1.5-2-2.7-3.8-3.6
				c-5.6-2.8-10.5,2-10.5,2c-0.3,3.8,11.8,8.4,11.8,8.4c0.3-0.1,0.5-0.1,0.7-0.1c0.6,0,1.1,0.5,0.9,1.5c-0.7,1.7-2.5,1.5-2.5,1.5
				l-0.9,2.8c-0.9,5.6,0.5,7,0.5,7l2.9,0.8c1.7,0.2,5.5,2.2,5.5,2.2C129.1,41.1,128.6,41.2,126.4,39.3z"/>
		</g>
		<g>
			<path fill="#7A65AC" d="M112.6,44l0.8,9.8l4.9-8.9C118.3,44.9,114.3,45.3,112.6,44z"/>
		</g>
		<g>
			<path fill="#DED8EA" d="M113.4,54L113.4,54l6.9-7.1c0,0,0,0,0-0.1v-2.6h2.6c0.1,0,0.1,0,0.1-0.1l0.4-4.1c0-0.1,0-0.1-0.1-0.1
				s-0.1,0-0.1,0.1l-0.4,4h-2.6c-0.1,0-0.1,0-0.1,0.1v2.7l-6.7,7l-3-7.3l0.9-2.3c0-0.1,0-0.1-0.1-0.1l-1.8-0.7l-0.7-2.7
				c0-0.1-0.1-0.1-0.1-0.1c-0.1,0-0.1,0.1-0.1,0.1l0.7,2.7c0,0,0,0.1,0.1,0.1l1.8,0.7l-0.9,2.3v0.1L113.4,54
				C113.3,53.9,113.3,54,113.4,54L113.4,54z"/>
		</g>
		<g>
			<path fill="#DED8EA" d="M113.5,53.9L113.5,53.9c0,0.6-0.4,8.8-0.8,17.9c0,1.3-0.1,2.6-0.1,3.9l0,0c-0.3,8.4-0.4,16.9-0.1,21
				c0,0.2,0,0.5,0.1,0.7l0,0c0,0.1,0,0.1-0.1,0.1l0,0c0,0-0.1,0-0.1-0.1l0,0c0-0.2,0-0.4-0.1-0.6c-0.3-3.9-0.2-12.5,0.1-20.9
				c0-1.4,0.1-2.7,0.1-4.1c0.3-9.1,0.7-17.2,0.8-17.9l0,0l0,0C113.3,53.8,113.3,53.8,113.5,53.9L113.5,53.9
				C113.4,53.8,113.4,53.8,113.5,53.9C113.5,53.8,113.5,53.8,113.5,53.9z"/>
		</g>
		<g>
			<path fill="#DED8EA" d="M97.5,63.1L97.5,63.1c0.1,0,0.1-0.1,0.1-0.2L96,60.6c0,0-0.1-0.1-0.1,0c0,0-0.1,0.1,0,0.1L97.5,63.1
				C97.4,63.1,97.4,63.1,97.5,63.1z"/>
		</g>
		<g>
			<path fill="#DED8EA" d="M128.8,65.9C128.8,65.9,128.8,65.8,128.8,65.9l1.6-0.6c0.1,0,0.1-0.1,0.1-0.1c0-0.1-0.1-0.1-0.1-0.1
				l-1.6,0.6C128.7,65.7,128.7,65.7,128.8,65.9C128.7,65.8,128.7,65.9,128.8,65.9z"/>
		</g>
		<g>
			<path fill="#DED8EA" d="M103.9,59.6C104,59.6,104,59.6,103.9,59.6l1.1-2.7c0-0.1,0-0.1-0.1-0.1s-0.1,0-0.1,0.1L103.9,59.6
				L103.9,59.6L103.9,59.6z"/>
		</g>
		<g>
			<path fill="#DED8EA" d="M114.5,54.7c-0.3,0-0.5,0.2-0.5,0.5s0.2,0.5,0.5,0.5s0.5-0.2,0.5-0.5C115,55,114.8,54.7,114.5,54.7z
				 M114.5,55.6c-0.2,0-0.3-0.1-0.3-0.3s0.1-0.3,0.3-0.3c0.2,0,0.3,0.1,0.3,0.3S114.7,55.6,114.5,55.6z"/>
		</g>
		<g>
			<path fill="#DED8EA" d="M114.1,64c-0.3,0-0.5,0.2-0.5,0.5s0.2,0.5,0.5,0.5s0.5-0.2,0.5-0.5C114.6,64.3,114.4,64,114.1,64z
				 M114.1,64.9c-0.2,0-0.3-0.1-0.3-0.3c0-0.2,0.1-0.3,0.3-0.3s0.3,0.1,0.3,0.3C114.4,64.7,114.3,64.9,114.1,64.9z"/>
		</g>
		<g>
			<path fill="#DED8EA" d="M113.3,83.3c-0.3,0-0.5,0.2-0.5,0.5s0.2,0.5,0.5,0.5s0.5-0.2,0.5-0.5S113.6,83.3,113.3,83.3z M113.3,84.1
				c-0.2,0-0.3-0.1-0.3-0.3s0.1-0.3,0.3-0.3c0.2,0,0.3,0.1,0.3,0.3S113.4,84.1,113.3,84.1z"/>
		</g>
		<g>
			<path fill="#DED8EA" d="M124.1,55.9l-6.2-0.4h-0.1v0.1l-0.1,0.8c0,0.1,0,0.1,0.1,0.1l6.2,0.4h0.1c0,0,0,0,0-0.1V55.9
				C124.2,55.9,124.1,55.9,124.1,55.9z M123.9,56.7l-6-0.4v-0.6l6,0.4V56.7z"/>
		</g>
		<g>
			<g>
				<polygon fill="#EEBDB6" points="114.9,71.8 113.7,71.9 114,74.9 115.3,74.5 				"/>
			</g>
			<g>
				<path fill="#EEBDB6" d="M113.7,71.9l-3.3-0.5c0,0-1.5-0.4-2.9,1l-0.3,0.7c0,0-0.3,0.1-0.5,0.3c-0.2,0.3,0,0.6,0.3,0.8l0,0
					c0,0-0.1,0.6,0.3,1c0,0-0.1,0.6,0.6,0.7l1.3,0.4c0.9,0.3,1.9,0.2,2.7-0.3l2-1.1L113.7,71.9z"/>
			</g>
			<g>
				<path fill="#E8A39A" d="M108.8,74.6C108.8,74.6,108.9,74.6,108.8,74.6c0.1-0.2,0.1-0.2,0-0.2l-1.6-0.3c-0.1,0-0.1,0-0.1,0.1
					s0,0.1,0.1,0.1L108.8,74.6L108.8,74.6z"/>
			</g>
			<g>
				<path fill="#E8A39A" d="M109.5,75.7C109.5,75.7,109.6,75.7,109.5,75.7c0.1-0.2,0.1-0.2,0-0.2l-2.1-0.4c-0.1,0-0.1,0-0.1,0.1
					s0,0.1,0.1,0.1L109.5,75.7L109.5,75.7z"/>
			</g>
			<g>
				<path fill="#E8A39A" d="M108.4,73.4L108.4,73.4l2-1.1c0.1,0,0.1-0.1,0-0.1c0-0.1-0.1-0.1-0.1,0L108.4,73.4l-0.9-0.3
					c-0.1,0-0.1,0-0.1,0.1s0,0.1,0.1,0.1L108.4,73.4L108.4,73.4z"/>
			</g>
		</g>
		<g>
			<polygon fill="#7A65AC" points="90.4,52 89.9,51.2 86.4,53.3 86.9,54.3 			"/>
		</g>
	</g>
</g>
</svg>
