<svg xmlns="http://www.w3.org/2000/svg" xmlns:xlink="http://www.w3.org/1999/xlink" width="658.853" height="408.636" viewBox="0 0 658.853 408.636">
  <defs>
    <linearGradient id="linear-gradient" y1="0.5" x2="1" y2="0.5" gradientUnits="objectBoundingBox">
      <stop offset="0" stop-color="#d5e4ff"/>
      <stop offset="1" stop-color="#edfffe"/>
    </linearGradient>
    <linearGradient id="linear-gradient-3" x1="0" y1="0.5" x2="1" y2="0.5" xlink:href="#linear-gradient"/>
    <linearGradient id="linear-gradient-4" x1="0" y1="0.5" x2="1" y2="0.5" xlink:href="#linear-gradient"/>
    <linearGradient id="linear-gradient-5" x1="0.325" y1="-5.593" x2="0.684" y2="6.908" xlink:href="#linear-gradient"/>
    <linearGradient id="linear-gradient-6" x1="0.415" y1="-3.904" x2="0.656" y2="8.597" xlink:href="#linear-gradient"/>
    <linearGradient id="linear-gradient-7" x1="-0.305" y1="-1.915" x2="2.84" y2="7.519" xlink:href="#linear-gradient"/>
    <linearGradient id="linear-gradient-8" x1="-0.28" y1="-1.429" x2="1.455" y2="3.167" xlink:href="#linear-gradient"/>
    <linearGradient id="linear-gradient-9" x1="0.283" y1="-0.152" x2="0.981" y2="1.942" xlink:href="#linear-gradient"/>
    <linearGradient id="linear-gradient-10" x1="0.213" y1="-25.849" x2="1.007" y2="47.013" xlink:href="#linear-gradient"/>
    <linearGradient id="linear-gradient-11" x1="0.32" y1="-24.08" x2="0.854" y2="48.783" xlink:href="#linear-gradient"/>
    <linearGradient id="linear-gradient-12" x1="0.279" y1="-1.99" x2="1.817" y2="15.369" xlink:href="#linear-gradient"/>
    <linearGradient id="linear-gradient-13" x1="0.277" y1="-1.557" x2="1.126" y2="6.901" xlink:href="#linear-gradient"/>
    <linearGradient id="linear-gradient-14" x1="0.44" y1="-0.181" x2="0.781" y2="3.673" xlink:href="#linear-gradient"/>
    <linearGradient id="linear-gradient-15" x1="0.17" y1="-29.778" x2="0.964" y2="43.084" xlink:href="#linear-gradient"/>
    <linearGradient id="linear-gradient-16" x1="0.291" y1="-28.009" x2="0.826" y2="44.853" xlink:href="#linear-gradient"/>
    <linearGradient id="linear-gradient-17" x1="0.197" y1="-2.925" x2="1.734" y2="14.433" xlink:href="#linear-gradient"/>
    <linearGradient id="linear-gradient-18" x1="0.232" y1="-2.013" x2="1.08" y2="6.445" xlink:href="#linear-gradient"/>
    <linearGradient id="linear-gradient-19" x1="0.421" y1="-0.389" x2="0.763" y2="3.465" xlink:href="#linear-gradient"/>
    <linearGradient id="linear-gradient-20" x1="0.233" y1="1.459" x2="0.683" y2="0.261" gradientUnits="objectBoundingBox">
      <stop offset="0" stop-color="#289567"/>
      <stop offset="1" stop-color="#27bd94"/>
    </linearGradient>
    <linearGradient id="linear-gradient-21" x1="0.248" y1="1.546" x2="0.7" y2="0.319" gradientUnits="objectBoundingBox">
      <stop offset="0" stop-color="#27bc93"/>
      <stop offset="1" stop-color="#289567"/>
    </linearGradient>
  </defs>
  <g id="Grupo_3953" data-name="Grupo 3953" transform="translate(-706.747 -84.363)">
    <g id="Grupo_3926" data-name="Grupo 3926" transform="translate(815.499 19.437)">
      <g id="Grupo_3952" data-name="Grupo 3952" transform="translate(0 -35)">
        <g id="Grupo_3784" data-name="Grupo 3784" transform="translate(412.332 99.926)">
          <g id="Grupo_3779" data-name="Grupo 3779">
            <g id="Grupo_3778" data-name="Grupo 3778">
              <path id="Caminho_12523" data-name="Caminho 12523" d="M1463.887,276.109a25.964,25.964,0,1,0-22.212,46.938c.529.249,1.061.483,1.6.694a25.965,25.965,0,0,0,20.614-47.631Zm6.491,31.8a19.443,19.443,0,0,1-24.726,9.788q-.6-.238-1.2-.52a19.467,19.467,0,1,1,25.922-9.268Z" transform="translate(-1426.81 -273.609)" fill="url(#linear-gradient)"/>
            </g>
          </g>
          <g id="Grupo_3781" data-name="Grupo 3781" transform="translate(0.002 8.164)">
            <g id="Grupo_3780" data-name="Grupo 3780">
              <path id="Caminho_12524" data-name="Caminho 12524" d="M1435.545,328.7l-5.757,3.017a25.995,25.995,0,0,1,4.095-29.861l4.731,4.456a19.5,19.5,0,0,0-3.069,22.388Z" transform="translate(-1426.816 -301.86)" fill="#1a598c"/>
            </g>
          </g>
          <g id="Grupo_3783" data-name="Grupo 3783" transform="translate(2.974 35.008)">
            <g id="Grupo_3782" data-name="Grupo 3782">
              <path id="Caminho_12525" data-name="Caminho 12525" d="M1452.971,403.827l-2.378,6.049c-.535-.211-1.069-.442-1.6-.694a25.852,25.852,0,0,1-11.895-11.415l5.757-3.017a19.379,19.379,0,0,0,8.918,8.56C1452.168,403.5,1452.57,403.668,1452.971,403.827Z" transform="translate(-1437.1 -394.75)" fill="#2273b5"/>
            </g>
          </g>
        </g>
        <g id="Grupo_3793" data-name="Grupo 3793" transform="translate(380.276 100.001) rotate(90)">
          <g id="Grupo_3786" data-name="Grupo 3786" transform="translate(0 0)">
            <g id="Grupo_3785" data-name="Grupo 3785">
              <path id="Caminho_12526" data-name="Caminho 12526" d="M1476.261,37.077a25.964,25.964,0,1,0-46.937-22.212c-.249.526-.483,1.061-.694,1.6a25.965,25.965,0,0,0,47.631,20.616Zm-31.8,6.491a19.443,19.443,0,0,1-9.788-24.726q.238-.6.52-1.2a19.467,19.467,0,1,1,9.268,25.922Z" transform="translate(-1426.821 0)" fill="url(#linear-gradient)"/>
            </g>
          </g>
          <g id="Grupo_3788" data-name="Grupo 3788" transform="translate(13.915)">
            <g id="Grupo_3787" data-name="Grupo 3787">
              <path id="Caminho_12527" data-name="Caminho 12527" d="M1477.987,8.727l-3.017-5.757a25.994,25.994,0,0,1,29.861,4.095l-4.456,4.731a19.5,19.5,0,0,0-22.388-3.069Z" transform="translate(-1474.97 0)" fill="#4aafff"/>
            </g>
          </g>
          <g id="Grupo_3790" data-name="Grupo 3790" transform="translate(1.806 2.974)">
            <g id="Grupo_3789" data-name="Grupo 3789">
              <path id="Caminho_12528" data-name="Caminho 12528" d="M1439.119,26.158l-6.049-2.378c.211-.535.442-1.069.694-1.6a25.851,25.851,0,0,1,11.415-11.895l3.017,5.757a19.38,19.38,0,0,0-8.56,8.918C1439.451,25.358,1439.278,25.757,1439.119,26.158Z" transform="translate(-1433.07 -10.29)" fill="#2273b5"/>
            </g>
          </g>
          <g id="Grupo_3792" data-name="Grupo 3792" transform="translate(0.084 16.464)">
            <g id="Grupo_3791" data-name="Grupo 3791">
              <path id="Caminho_12529" data-name="Caminho 12529" d="M1427.11,64.385a25.742,25.742,0,0,1,1.725-7.415l6.046,2.378a19.34,19.34,0,0,0-1.295,5.56Z" transform="translate(-1427.11 -56.97)" fill="#3788cc"/>
            </g>
          </g>
        </g>
        <g id="Grupo_3794" data-name="Grupo 3794" transform="translate(381.841 159.697)">
          <path id="Caminho_12530" data-name="Caminho 12530" d="M1369.787,464.841H1321.3v-.965h47.521V445.56h.965Z" transform="translate(-1321.3 -445.56)" fill="#e2f3fe"/>
        </g>
        <g id="Grupo_3795" data-name="Grupo 3795" transform="translate(275.958 152.006)">
          <path id="Caminho_12531" data-name="Caminho 12531" d="M1017.973,448.509H954.91v-.965h62.1V422.59h.965Z" transform="translate(-954.91 -422.59)" fill="#e2f3fe"/>
        </g>
        <g id="Grupo_3796" data-name="Grupo 3796" transform="translate(275.958 168.806)">
          <rect id="Retângulo_2141" data-name="Retângulo 2141" width="43.392" height="5.783" fill="url(#linear-gradient-3)"/>
        </g>
        <g id="Grupo_3797" data-name="Grupo 3797" transform="translate(381.841 168.806)">
          <rect id="Retângulo_2142" data-name="Retângulo 2142" width="25.521" height="5.783" fill="url(#linear-gradient-4)"/>
        </g>
      </g>
      <g id="Grupo_3802" data-name="Grupo 3802" transform="translate(392.496 228.172)">
        <g id="Grupo_3801" data-name="Grupo 3801">
          <rect id="Retângulo_2143" data-name="Retângulo 2143" width="23.677" height="2.916" transform="translate(15.704 65.641)" fill="url(#linear-gradient-5)"/>
          <rect id="Retângulo_2144" data-name="Retângulo 2144" width="35.164" height="2.916" transform="translate(9.959 60.448)" fill="url(#linear-gradient-6)"/>
          <path id="Caminho_12534" data-name="Caminho 12534" d="M1444.727,673.565a6.114,6.114,0,1,1-6.115-6.115A6.113,6.113,0,0,1,1444.727,673.565Z" transform="translate(-1411.02 -653.16)" fill="url(#linear-gradient-7)"/>
          <path id="Caminho_12535" data-name="Caminho 12535" d="M1437.286,730.3v11.626a26.891,26.891,0,0,1-22.165,0V730.3a11.083,11.083,0,1,1,22.165,0Z" transform="translate(-1398.662 -689.969)" fill="url(#linear-gradient-8)"/>
          <g id="Grupo_3800" data-name="Grupo 3800">
            <path id="Caminho_12536" data-name="Caminho 12536" d="M1385.711,673.078a27.335,27.335,0,0,1-11.383-2.454,27.541,27.541,0,1,1,22.766,0A27.326,27.326,0,0,1,1385.711,673.078Zm0-53.628a26.092,26.092,0,0,0-10.782,49.851,26.166,26.166,0,0,0,21.558,0,26.092,26.092,0,0,0-10.776-49.851Z" transform="translate(-1358.17 -618)" fill="url(#linear-gradient-9)"/>
          </g>
        </g>
      </g>
      <g id="Grupo_3805" data-name="Grupo 3805" transform="translate(381.159 316.03)">
        <g id="Grupo_3804" data-name="Grupo 3804">
          <rect id="Retângulo_2145" data-name="Retângulo 2145" width="9.748" height="1.199" transform="translate(6.465 27.023)" fill="url(#linear-gradient-10)"/>
          <rect id="Retângulo_2146" data-name="Retângulo 2146" width="14.475" height="1.199" transform="translate(4.101 24.885)" fill="url(#linear-gradient-11)"/>
          <path id="Caminho_12537" data-name="Caminho 12537" d="M1354.574,900.357a2.517,2.517,0,1,1-2.517-2.517A2.517,2.517,0,0,1,1354.574,900.357Z" transform="translate(-1340.697 -891.956)" fill="url(#linear-gradient-12)"/>
          <path id="Caminho_12538" data-name="Caminho 12538" d="M1351.513,923.713V928.5a11.079,11.079,0,0,1-9.123,0v-4.786a4.562,4.562,0,1,1,9.123,0Z" transform="translate(-1335.613 -907.108)" fill="url(#linear-gradient-13)"/>
          <g id="Grupo_3803" data-name="Grupo 3803">
            <path id="Caminho_12539" data-name="Caminho 12539" d="M1330.277,900.154a11.232,11.232,0,0,1-4.684-1.011,11.337,11.337,0,1,1,9.369,0A11.179,11.179,0,0,1,1330.277,900.154Zm0-22.073a10.741,10.741,0,0,0-4.439,20.521,10.777,10.777,0,0,0,8.878,0,10.741,10.741,0,0,0-4.439-20.521Z" transform="translate(-1318.94 -877.48)" fill="url(#linear-gradient-14)"/>
          </g>
        </g>
      </g>
      <g id="Grupo_3808" data-name="Grupo 3808" transform="translate(434.786 316.03)">
        <g id="Grupo_3807" data-name="Grupo 3807">
          <rect id="Retângulo_2147" data-name="Retângulo 2147" width="9.748" height="1.199" transform="translate(6.465 27.023)" fill="url(#linear-gradient-15)"/>
          <rect id="Retângulo_2148" data-name="Retângulo 2148" width="14.475" height="1.199" transform="translate(4.098 24.885)" fill="url(#linear-gradient-16)"/>
          <path id="Caminho_12540" data-name="Caminho 12540" d="M1540.134,900.357a2.517,2.517,0,1,1-2.517-2.517A2.517,2.517,0,0,1,1540.134,900.357Z" transform="translate(-1526.26 -891.956)" fill="url(#linear-gradient-17)"/>
          <path id="Caminho_12541" data-name="Caminho 12541" d="M1537.073,923.713V928.5a11.079,11.079,0,0,1-9.123,0v-4.786a4.562,4.562,0,1,1,9.123,0Z" transform="translate(-1521.176 -907.108)" fill="url(#linear-gradient-18)"/>
          <g id="Grupo_3806" data-name="Grupo 3806">
            <path id="Caminho_12542" data-name="Caminho 12542" d="M1515.847,900.154a11.232,11.232,0,0,1-4.684-1.011,11.337,11.337,0,1,1,9.369,0A11.188,11.188,0,0,1,1515.847,900.154Zm0-22.073a10.741,10.741,0,0,0-4.439,20.521,10.777,10.777,0,0,0,8.878,0,10.741,10.741,0,0,0-4.439-20.521Z" transform="translate(-1504.51 -877.48)" fill="url(#linear-gradient-19)"/>
          </g>
        </g>
      </g>
      <path id="Caminho_12543" data-name="Caminho 12543" d="M244.9,892.955a122.121,122.121,0,0,1-16.438,61.4H15.944A121.942,121.942,0,0,1,0,904.061c21.556-5.147,46.932-9.782,76.151-14.163,67.239-10.08,114.648-43.779,126.092-89.927A122.374,122.374,0,0,1,244.9,892.955Z" transform="translate(0 -480.788)" opacity="0.408" fill="url(#linear-gradient-20)"/>
      <path id="Caminho_12544" data-name="Caminho 12544" d="M1417.1,1083.475v60.873H1292.53a77.162,77.162,0,0,1,124.574-60.873Z" transform="translate(-867.004 -670.784)" opacity="0.408" fill="url(#linear-gradient-21)"/>
      <g id="Grupo_3824" data-name="Grupo 3824" transform="translate(247.39 208.678)">
        <path id="Caminho_12545" data-name="Caminho 12545" d="M1046.378,1144.4a18.493,18.493,0,0,1-2.153,3.6c-1.032,1.347-4.242,6.881-5.658,7.265s-5.785,1.156-6.173,3.6-.578,4.179,3.728,4.372,7.138.451,9.2-2.572a22.369,22.369,0,0,1,5.338-5.208v7.884h1.67s.772-8.207,1.222-8.785,1.607-6.881-2.378-10.158S1046.378,1144.4,1046.378,1144.4Z" transform="translate(-981.302 -933.321)" fill="#163342"/>
        <path id="Caminho_12546" data-name="Caminho 12546" d="M1054.21,1156.715s3.858.965,5.338,0,6.505-9.461,8.173-9.97c0,0-1.613-3.274-5.7-.9C1062.021,1145.849,1055.3,1155.3,1054.21,1156.715Z" transform="translate(-996.945 -934.774)" fill="#eea886"/>
        <path id="Caminho_12547" data-name="Caminho 12547" d="M1073.414,489.96s-8.317,17.536-2.592,18.585c7.86,1.439,11.042-13.085,11.042-13.085Z" transform="translate(-1007.327 -469.045)" fill="#163342"/>
        <g id="Grupo_3811" data-name="Grupo 3811" transform="translate(9.354 56.097)">
          <g id="Grupo_3810" data-name="Grupo 3810">
            <g id="Grupo_3809" data-name="Grupo 3809">
              <path id="Caminho_12548" data-name="Caminho 12548" d="M899.735,620.089s-2.6-.815-2.809-2.358a8.742,8.742,0,0,0-1.717-3.358c-.483-.644-1.228-3.179-2.049-2.578s1.029,4.237,1.263,5.075-3.32-.757-4.2-.538-3.193,6.259-.624,7.074,5.849-.012,6.271.222a16.219,16.219,0,0,0,1.844.668Z" transform="translate(-888.421 -611.704)" fill="#eea886"/>
            </g>
          </g>
        </g>
        <g id="Grupo_3814" data-name="Grupo 3814" transform="translate(0 59.09)">
          <g id="Grupo_3813" data-name="Grupo 3813">
            <g id="Grupo_3812" data-name="Grupo 3812">
              <path id="Caminho_12549" data-name="Caminho 12549" d="M867.855,623.748s-8.025-1.971-8.67-1.653-.725.757.017.974,7.7,2.127,7.7,2.127-9.892-.734-10.476-.592c-.344.084-.549.93-.162,1.081s10.149,1.442,10.149,1.442-9.236-.67-9.69-.4a.638.638,0,0,0,.289,1.153c.682.1,9.219,1.2,9.219,1.2s-6.754-.064-7.005.387c-.153.275-.367,1,1.376.959s5.866.3,5.866.3Z" transform="translate(-856.054 -622.06)" fill="#eea886"/>
            </g>
          </g>
        </g>
        <path id="Caminho_12550" data-name="Caminho 12550" d="M1130.2,1165.288s-4.309,6.4-6.043,7.941c0,0-3.858,1.413-4.242,4.115s-.321,4.5,4.242,4.63,7.557-.691,8.392-3.456a12.576,12.576,0,0,1,2.665-4.647v5.786h1.029s.257-5.595.321-6.624.74-4.985-1.43-6.736A6.023,6.023,0,0,0,1130.2,1165.288Z" transform="translate(-1043.556 -949.1)" fill="#163342"/>
        <path id="Caminho_12551" data-name="Caminho 12551" d="M1124.582,732.771s5.439,7.072,6.916,15.464-.873,36.551-.806,40.7,3.922,14.467,3.15,22.278-3.818,46.692-3.818,46.692l-8.334-1.653s.483-39.638,0-42.918-1.451-15.233-1.644-16.582S1107.8,759.945,1107.8,753.9,1111.467,722.9,1124.582,732.771Z" transform="translate(-1035.048 -640.063)" fill="#546f9c"/>
        <path id="Caminho_12552" data-name="Caminho 12552" d="M1040.327,743.6s-8.938,34.109-10,38.834-2.6,8.623-2.6,10.629c0,4.656,1.728,12.132,1.728,12.132l11.349,54.278h10.808s-6.023-32.563-6.184-38.93-5.075-15.443-4.109-18.143,15.527-33.852,15.527-33.852S1067.876,733.7,1040.327,743.6Z" transform="translate(-978.118 -648.128)" fill="#546f9c"/>
        <path id="Caminho_12553" data-name="Caminho 12553" d="M1134.95,1173.618s4.41,2.465,7.251-.7a22.351,22.351,0,0,0,3.725-6.228l-4.933-1.011Z" transform="translate(-1054.352 -949.49)" fill="#eea886"/>
        <g id="Grupo_3815" data-name="Grupo 3815" transform="translate(17.37 37.509)">
          <path id="Caminho_12554" data-name="Caminho 12554" d="M964.69,547.38a11.146,11.146,0,0,0-6.468,3.329,42.668,42.668,0,0,0-6.127,9.331c-.728,1.592-10.95,16.334-11.482,16.666s-5-.844-8.577-1.141c-5.841-.485-14.579-3.462-14.579-3.462l-1.3,6.6s21.489,6.936,26.448,5.713c6.063-1.494,20.024-19.4,20.024-19.4S973.042,552.816,964.69,547.38Z" transform="translate(-916.16 -547.38)" fill="#dbdff0"/>
        </g>
        <g id="Grupo_3816" data-name="Grupo 3816" transform="translate(56.246 34.675)">
          <path id="Caminho_12555" data-name="Caminho 12555" d="M1066.768,537.824a50.107,50.107,0,0,1-6.43,2.586c-1.659.332-8.086,8.684-9.213,11.733s0,7.624,2.321,12.993.133,7.158,1.194,12.528.719,25.457.52,28.439,31.029,7.505,37.193,2.069c0,0-4.173-18.1-9.115-23.269-1.069-1.118-.956-8.563-.225-10.421s8.95-15.709,8.95-15.709.6-14.051-2.982-16.836c-3.115-2.419-11.606-3.283-13.132-3.812A25.929,25.929,0,0,0,1066.768,537.824Z" transform="translate(-1050.684 -537.574)" fill="#2f4563"/>
        </g>
        <g id="Grupo_3817" data-name="Grupo 3817" transform="translate(70.052 22.884)">
          <path id="Caminho_12556" data-name="Caminho 12556" d="M1098.46,503.307s.954,8.756.754,11.606c0,0,4.959,4.971,10.6-5.8a14.793,14.793,0,0,1-.587-10.49C1111.011,492.574,1098.46,503.307,1098.46,503.307Z" transform="translate(-1098.46 -496.774)" fill="#eea886"/>
        </g>
        <path id="Caminho_12557" data-name="Caminho 12557" d="M1049.168,608.37s-1.193-7.941.075-12.77a30.823,30.823,0,0,0,2.277,10.048Z" transform="translate(-992.999 -544.156)" fill="#aaadba"/>
        <path id="Caminho_12558" data-name="Caminho 12558" d="M1147.792,461.109s1.1-1.315,1.5.009-.928,5.257-1.075,5.826c0,0-.665,2.208-.927,1.925S1147.792,461.109,1147.792,461.109Z" transform="translate(-1063.088 -448.118)" fill="#eea987"/>
        <path id="Caminho_12559" data-name="Caminho 12559" d="M1079.123,461.669s-1.1-1.315-1.5.009.928,5.257,1.075,5.826c0,0,.662,2.208.928,1.925S1079.123,461.669,1079.123,461.669Z" transform="translate(-1013.536 -448.516)" fill="#eea987"/>
        <path id="Caminho_12560" data-name="Caminho 12560" d="M1088.682,418.794s-10.045,1.546-8.574,17.368,10.334,14.565,10.927,14.553,8.892.329,9.612-18.975C1100.646,431.738,1100.982,417.462,1088.682,418.794Z" transform="translate(-1015.254 -418.383)" fill="#eea987"/>
        <path id="Caminho_12561" data-name="Caminho 12561" d="M1098.748,429.994s-11.146,3.315-16.484,2.254c0,0-.341,1.968-1.107,2.089s-1.159-3.763-1.159-3.763-.26-12.866,11.377-12.987,9.274,13.935,9.274,13.935l-.159,2.4S1098.823,434.586,1098.748,429.994Z" transform="translate(-1015.281 -417.587)" fill="#163342"/>
        <path id="Caminho_12562" data-name="Caminho 12562" d="M1109.987,524.24s-3.517,3.332-8.927.275a5.639,5.639,0,0,0,4.63,2.6A5.111,5.111,0,0,0,1109.987,524.24Z" transform="translate(-1030.256 -493.419)" fill="#a77860"/>
        <path id="Caminho_12563" data-name="Caminho 12563" d="M1105.381,539.927s-3.41,10.077-12.779,9.334-4.439-8.508-4.439-8.508a20.8,20.8,0,0,1,2.991-1.465c.656-.127,10.357-.249,10.357-.249Z" transform="translate(-1020.166 -503.942)" fill="#eea886"/>
        <path id="Caminho_12564" data-name="Caminho 12564" d="M1048.476,544.97s-4.907,13.571-4.907,27.4-.4,36.361-2.11,43.475-6.589,29.119-6.589,29.119l-3.82-1.977s9.187-35.118,9.88-37.649-.526-29.283-1.185-31.523-3.462-12.21-3.026-14.975c.549-3.488,3.812-8.646,9.083-13.083Z" transform="translate(-980.478 -508.158)" fill="#dbdff0"/>
        <path id="Caminho_12565" data-name="Caminho 12565" d="M1132.626,540.65a141.158,141.158,0,0,0-4.595,22.269c-1.546,12.5,4.742,70.548,8.959,83.723l16.339-2.636s-3.517-41.028-8.291-48.5-6.294-14.071-1.139-29.656-2.26-23.3-2.26-23.3S1134.059,540.809,1132.626,540.65Z" transform="translate(-1049.263 -505.086)" fill="#dbdff0"/>
        <path id="Caminho_12566" data-name="Caminho 12566" d="M1083.53,651.413l19.81,34.312,22.021-12.715L1106.412,638.2Z" transform="translate(-1017.792 -574.445)" fill="#616161"/>
        <path id="Caminho_12567" data-name="Caminho 12567" d="M1091.79,659.133l17.594,30.474,19.559-11.291L1112.115,647.4Z" transform="translate(-1023.665 -580.987)" fill="#e0cec7"/>
        <path id="Caminho_12568" data-name="Caminho 12568" d="M1111.214,662.035l-1.234-2.138,7.907-4.566,1.543,1.962Z" transform="translate(-1036.598 -586.625)" fill="#616161"/>
        <g id="Grupo_3822" data-name="Grupo 3822" transform="translate(71.829 89.09)">
          <g id="Grupo_3821" data-name="Grupo 3821">
            <g id="Grupo_3820" data-name="Grupo 3820">
              <g id="Grupo_3819" data-name="Grupo 3819">
                <g id="Grupo_3818" data-name="Grupo 3818">
                  <path id="Caminho_12569" data-name="Caminho 12569" d="M1108.338,736.534a4.093,4.093,0,0,0,1.295-.188s.691-.4,1.2-.656a3.327,3.327,0,0,1,.4-.179,7.493,7.493,0,0,0,2.208-.933,50.118,50.118,0,0,0,3.977-4.2l-1.465-2.228-1.075-2.28s-6.514.422-7.4.893a2.162,2.162,0,0,0-.243.147,9.55,9.55,0,0,0-1.378,1.41c-.124.107-1.3,1.257-1.257,1.745a1.6,1.6,0,0,0,.78,1.35,3.823,3.823,0,0,0,.821,1.942,2.384,2.384,0,0,0,1.147,1.766S1107.613,736.354,1108.338,736.534Z" transform="translate(-1104.606 -725.87)" fill="#eea886"/>
                </g>
              </g>
            </g>
          </g>
        </g>
        <g id="Grupo_3823" data-name="Grupo 3823" transform="translate(81.193 37.307)">
          <path id="Caminho_12570" data-name="Caminho 12570" d="M1144.8,546.884s6.017-1.722,9.462,4.9a30.22,30.22,0,0,1,3.89,12.7c.436,3.057,2.4,11.4,2.6,12.262s4.647,11.138,2.607,14.73c-2.049,3.609-22.87,14.236-22.74,15.033s-3.607-8.034-3.607-8.034,8.424-4.7,9.805-6.141c2.243-2.349,6.97-4.878,6-7.794-1.141-3.422-4.569-14.97-5.364-16.66S1139.729,549.04,1144.8,546.884Z" transform="translate(-1137.01 -546.683)" fill="#dbdff0"/>
        </g>
      </g>
      <g id="Grupo_3830" data-name="Grupo 3830" transform="translate(354.798 210.044)">
        <path id="Caminho_12571" data-name="Caminho 12571" d="M1265.2,558.92s-4.719.977-7.005,4.266-3.026,11.456-3.026,12.6-.428,18.435-.858,20.293-.358,8,1.286,13.649,3.916,20.749,3.916,20.749l4.945-2.029-1.777-32.292Z" transform="translate(-1246.471 -519.442)" fill="#eea886"/>
        <path id="Caminho_12572" data-name="Caminho 12572" d="M1270.045,790.61l-4.485,5,1.427,6.049Z" transform="translate(-1254.626 -684.177)" fill="#4e9bde"/>
        <path id="Caminho_12573" data-name="Caminho 12573" d="M1382.962,1174.438a4.732,4.732,0,0,1-2.02,3.425c-1.858,1.144-8.933,3.286-10.074,6.144s1.714,4.789,2.93,4.93,5.858,2,11.074-1.5,9.933-4,10.432-7.216-2.216-7.86-2.216-7.86Z" transform="translate(-1329.313 -955.605)" fill="#215d91"/>
        <path id="Caminho_12574" data-name="Caminho 12574" d="M1288.089,1146.731s-.237,2.624-1.13,3.54-10.75,2.818-11.447,4.994,1.008,4.823,4.4,5.309,9.82-1.312,12.317-1.615,10.016-.049,9.242-2.948-3.612-10.606-3.4-11.285S1288.089,1146.731,1288.089,1146.731Z" transform="translate(-1261.593 -935.877)" fill="#215d91"/>
        <path id="Caminho_12575" data-name="Caminho 12575" d="M1341.91,795.194s3.318,17.851,5.031,22.712,4,21.437,4,23.055,2.858,14.863,3.43,17.53,7.338,44.4,7.338,44.4,10.1,1.618,14.1,0c0,0-2.572-35.155-2.858-40.109s-3.049-19.244-3.907-22.96-.1-33.393-2.717-44.279S1341.91,795.194,1341.91,795.194Z" transform="translate(-1308.912 -684.177)" fill="#4e9bde"/>
        <path id="Caminho_12576" data-name="Caminho 12576" d="M1242.127,784.264s-2.121,9.242-2.873,10.479-9.227,29.249-9.8,32.583-2.763,7.242-1.144,10.574,14.386,32.965,15.435,34.679,9.2,17.851,9.2,17.851,8.7,3.3,12.8-1.939c0,0-9.7-28.107-11.51-33.346s-7.43-14.672-7.716-18.674,10-24.486,11.909-28.676,10.2-20.1,10.2-20.1S1268.136,774.548,1242.127,784.264Z" transform="translate(-1227.725 -677.12)" fill="#4e9bde"/>
        <path id="Caminho_12577" data-name="Caminho 12577" d="M1285.8,549.41s-10.539,2.179-11.791,3.286c-1.358,1.179-3.751,12.721-3.9,15.938s1.272,16.646,2.627,21.648-.532,23.922-1.39,30.852c0,0,25.763,8.837,46.625,6.121,0,0-6.4-23.015-5.563-29.867,1.069-8.779,3.644-29.009,3.644-29.009s.633-13.039-1.225-14.611-17.14-4.358-17.14-4.358Z" transform="translate(-1257.858 -512.681)" fill="#2a76b8"/>
        <path id="Caminho_12578" data-name="Caminho 12578" d="M1263.76,558.24s-8.216.318-10.456,9.892-2,10.886-2,10.886l11.317,2S1267.619,562.9,1263.76,558.24Z" transform="translate(-1244.483 -518.959)" fill="#2a76b8"/>
        <path id="Caminho_12579" data-name="Caminho 12579" d="M1310.168,435.164s-12.678-4.69-11.886,12.155,3.763,18.559,12.1,16.206,9.04-12.987,10.123-18.1S1314.313,435.9,1310.168,435.164Z" transform="translate(-1277.867 -431.023)" fill="#eea886"/>
        <path id="Caminho_12580" data-name="Caminho 12580" d="M1316.02,514.822s3.373,4.531,13.265.173c0,0-.274-9.733,1.665-16.068s-13.276,8.447-13.276,8.447c.159.113.191.746.1,1.63a17.849,17.849,0,0,1-.488,2.618C1316.731,513.735,1317.136,513.073,1316.02,514.822Z" transform="translate(-1290.504 -475.665)" fill="#eea886"/>
        <path id="Caminho_12581" data-name="Caminho 12581" d="M1317.914,445.071s.035-4.5-1.835-4.916-2.835,2.188-2.835,2.188l-1.506-.081s1.347-4.56-.436-5.606-12.458-.127-13.8-1.662.6-10.655,3.514-11.551,10.866-2.711,15.917,1.789c0,0,4.393.084,4.569,3.661S1319.437,442.631,1317.914,445.071Z" transform="translate(-1277.032 -422.314)" fill="#665249"/>
        <path id="Caminho_12582" data-name="Caminho 12582" d="M1320.41,528.689c9.826-1.653,11.3-7.239,11.317-7.329-3.82,4.927-10.828,4.711-10.828,4.711A18.137,18.137,0,0,1,1320.41,528.689Z" transform="translate(-1293.625 -492.737)" fill="#a77860"/>
        <path id="Caminho_12583" data-name="Caminho 12583" d="M1331.583,547.927s.61,9.435-8.155,10.008-6.025-9.733-6.025-9.733S1322.792,546.112,1331.583,547.927Z" transform="translate(-1291.199 -511.099)" fill="#eea886"/>
        <path id="Caminho_12584" data-name="Caminho 12584" d="M1290.16,672.728l24.711,35.158,22.564-15.86-23.827-35.777Z" transform="translate(-1272.117 -588.645)" fill="#616161"/>
        <path id="Caminho_12585" data-name="Caminho 12585" d="M1299.48,680.877l21.946,31.222,20.042-14.085L1320.3,666.24Z" transform="translate(-1278.744 -595.748)" fill="#e0cec7"/>
        <path id="Caminho_12586" data-name="Caminho 12586" d="M1319.04,685.087l-1.54-2.193,8.1-5.693,1.855,1.968Z" transform="translate(-1291.556 -603.541)" fill="#616161"/>
        <g id="Grupo_3829" data-name="Grupo 3829" transform="translate(25.164 95.599)">
          <g id="Grupo_3828" data-name="Grupo 3828">
            <g id="Grupo_3827" data-name="Grupo 3827">
              <g id="Grupo_3826" data-name="Grupo 3826">
                <g id="Grupo_3825" data-name="Grupo 3825">
                  <path id="Caminho_12587" data-name="Caminho 12587" d="M1319.46,765.275a4.387,4.387,0,0,0,1.381-.327s.708-.5,1.234-.826c.168-.1.315-.188.416-.234a8.134,8.134,0,0,0,2.295-1.222,54.484,54.484,0,0,0,3.893-4.919l-1.8-2.266-1.381-2.361s-7,1.084-7.9,1.676a2.374,2.374,0,0,0-.249.182,10.18,10.18,0,0,0-1.353,1.656c-.124.127-1.283,1.483-1.191,2.008a1.741,1.741,0,0,0,.974,1.384,4.156,4.156,0,0,0,1.075,2.02,2.579,2.579,0,0,0,1.41,1.795S1318.659,765.151,1319.46,765.275Z" transform="translate(-1314.802 -753.12)" fill="#eea886"/>
                </g>
              </g>
            </g>
          </g>
        </g>
        <path id="Caminho_12588" data-name="Caminho 12588" d="M1365.1,565.012c-1.381.535-6.046,1.558-5.476,8.667a23.975,23.975,0,0,0,4.005,12.025c.933,1.644,6.069,11.782,5.147,13.114s-9.641,9.935-10.146,10.635-10.681,10.031-10.681,10.031l3.91,4.641s22.506-14.655,24.148-16.293,6.811-4.173,4.656-9.779-5.081-20.475-5.67-21.541S1374.24,561.475,1365.1,565.012Z" transform="translate(-1313.206 -523.367)" fill="#eea886"/>
        <path id="Caminho_12589" data-name="Caminho 12589" d="M1386.883,558.263s-5.369,4.323-2.971,13.935,3.228,11.528,3.228,11.528l16.238-4.424s-1.179-17.261-9.959-20.218C1393.42,559.09,1388.3,557.625,1386.883,558.263Z" transform="translate(-1338.337 -518.861)" fill="#2a76b8"/>
        <path id="Caminho_12590" data-name="Caminho 12590" d="M1280.2,621.31s-.662,9.765,4.034,9.592,5.04-8.814,5.04-8.814Z" transform="translate(-1265.013 -563.802)" fill="#215d91"/>
        <path id="Caminho_12591" data-name="Caminho 12591" d="M1352.86,475.1c.561-1.485,3.722-1.3,3.4,1.055s-2.936,5.979-3.988,5.3S1352.088,477.152,1352.86,475.1Z" transform="translate(-1315.934 -459.172)" fill="#eea886"/>
        <path id="Caminho_12592" data-name="Caminho 12592" d="M1306.98,542.269l4.263-1.809-.145.789-3.04,1.468Z" transform="translate(-1284.076 -506.317)" fill="#c9b9b3"/>
        <path id="Caminho_12593" data-name="Caminho 12593" d="M1351.587,542.013a12.252,12.252,0,0,0,2.075-3.673,8.046,8.046,0,0,1-.072,1.6,11.542,11.542,0,0,1-2.662,4.754C1348.836,546.935,1351.587,542.013,1351.587,542.013Z" transform="translate(-1314.766 -504.81)" fill="#eddad3"/>
        <path id="Caminho_12594" data-name="Caminho 12594" d="M1355.106,559.243s2.534-6.575,2.355-10.008a3.35,3.35,0,0,0-1.092-.208s-1.743,7.73-2.737,9S1355.106,559.243,1355.106,559.243Z" transform="translate(-1317.079 -512.407)" fill="#eddad3"/>
        <path id="Caminho_12595" data-name="Caminho 12595" d="M1264.214,598.607l-2.754-.486s1.355-8.664,4.023-13.741c0,0-1.644,8.557-1.488,11S1264.214,598.607,1264.214,598.607Z" transform="translate(-1251.711 -537.545)" fill="#215d91"/>
        <path id="Caminho_12596" data-name="Caminho 12596" d="M1344.144,840.558s-1.026-2.659-2.563.431c0,0-1.748-5.459,1.35-6.2S1344.144,840.558,1344.144,840.558Z" transform="translate(-1308.328 -715.542)" fill="#4e9bde"/>
        <path id="Caminho_12597" data-name="Caminho 12597" d="M1304.6,546.6s-2.526,3.526.581,8.872c0,0,5.658,3.286,14.539,2.011,0,0-3.286-4.841-1.205-9.632A50.56,50.56,0,0,0,1304.6,546.6Z" transform="translate(-1281.694 -510.652)" fill="#eddad3"/>
      </g>
      <g id="Grupo_3878" data-name="Grupo 3878" transform="translate(92.029 280.855)">
        <g id="Grupo_3832" data-name="Grupo 3832" transform="translate(26.45 146.288)">
          <g id="Grupo_3831" data-name="Grupo 3831">
            <path id="Caminho_12598" data-name="Caminho 12598" d="M415.732,1174.007s2.312,2.583,4.661,3.124,3.991,1.231,4.008,2.714-6.757,2.459-9.444.965c-4.011-2.231-4.419-1.558-4.864-2.673s.535-4.095.506-4.45C410.563,1173.25,415.732,1174.007,415.732,1174.007Z" transform="translate(-409.978 -1173.551)" fill="#202338"/>
          </g>
        </g>
        <g id="Grupo_3834" data-name="Grupo 3834" transform="translate(3.209 147.237)">
          <g id="Grupo_3833" data-name="Grupo 3833">
            <path id="Caminho_12599" data-name="Caminho 12599" d="M334.952,1177.016s1.7,2.514,3.977,3.1c2.245.572,3.7,1.662,3.809,3.1s-5.291,3.326-9.086.8c-2.494-1.662-3.425-1.566-3.924-2.624s.263-4.017.214-4.358C329.878,1176.6,334.952,1177.016,334.952,1177.016Z" transform="translate(-329.555 -1176.836)" fill="#202338"/>
          </g>
        </g>
        <g id="Grupo_3835" data-name="Grupo 3835" transform="translate(27.072 144.782)">
          <path id="Caminho_12600" data-name="Caminho 12600" d="M412.442,1168.34s3.234,1.234,4.528.361l.4,1.717a4.8,4.8,0,0,1-2.832.379,4.5,4.5,0,0,1-2.407-.812Z" transform="translate(-412.13 -1168.34)" fill="#202338"/>
        </g>
        <g id="Grupo_3836" data-name="Grupo 3836" transform="translate(3.592 145.406)">
          <path id="Caminho_12601" data-name="Caminho 12601" d="M331.175,1170.5s3.716,1.381,4.7.292l.168,1.925s-.367.6-1.821.523a14.985,14.985,0,0,1-3.344-.72Z" transform="translate(-330.88 -1170.5)" fill="#202338"/>
        </g>
        <g id="Grupo_3838" data-name="Grupo 3838" transform="translate(1.57 67.507)">
          <g id="Grupo_3837" data-name="Grupo 3837">
            <path id="Caminho_12602" data-name="Caminho 12602" d="M347.654,906.467s4.185,17.088,5.179,23.431c1.159,7.416,1.367,11.5,1.688,15.342.407,4.829-.549,32.289-.266,33.7s-4.56-.728-4.56-.728-4.231-30.092-5.442-35.236c-1.13-4.788-5.317-25.4-6.346-24.093s-2.306,24.055-3.069,27.83-3.988,32.89-3.988,32.89-3.228.728-4.627-.454c0,0-1.76-24.712-1.272-31.792.185-2.7-3.162-32.349,1.13-44.287C328.346,896.769,347.654,906.467,347.654,906.467Z" transform="translate(-323.882 -900.943)" fill="#eea886"/>
          </g>
        </g>
        <g id="Grupo_3840" data-name="Grupo 3840" transform="translate(1.567 66.768)">
          <g id="Grupo_3839" data-name="Grupo 3839">
            <path id="Caminho_12603" data-name="Caminho 12603" d="M348.083,900.995s3.748,20.744,4.742,27.084c1.159,7.416,1.367,11.5,1.688,15.342.408,4.829,1.445,32.161,1.454,33.6.009,1.6-7.54.578-7.54.578s-2.968-31.3-4.182-36.439c-1.13-4.788-5.317-25.4-6.346-24.093s-2.306,24.055-3.069,27.829-2.416,33.953-2.416,33.953-6.089-.02-7.488-1.2c0,0-.471-25.026.014-32.107.185-2.7-3.162-32.349,1.13-44.288C328.339,894.949,348.083,900.995,348.083,900.995Z" transform="translate(-323.872 -898.383)" fill="#ff984a"/>
          </g>
        </g>
        <g id="Grupo_3842" data-name="Grupo 3842" transform="translate(45.905 36.805)">
          <g id="Grupo_3841" data-name="Grupo 3841">
            <path id="Caminho_12604" data-name="Caminho 12604" d="M477.973,796.682s2.716-1.563,3.069-1.795a6.619,6.619,0,0,1,2.864-.1,7.667,7.667,0,0,1,3.211,1.107,1.178,1.178,0,0,1,.246.954,2.251,2.251,0,0,1-.457,1.055,1.381,1.381,0,0,1-.26,1.306,1.2,1.2,0,0,1-.48,1.248,1.006,1.006,0,0,1-.347,1.055s-1.081.09-1.61.116a33.061,33.061,0,0,1-5.141-.832S475.97,800.528,477.973,796.682Z" transform="translate(-477.299 -794.703)" fill="#eea886"/>
          </g>
        </g>
        <g id="Grupo_3843" data-name="Grupo 3843" transform="translate(17.198 26.399)">
          <path id="Caminho_12605" data-name="Caminho 12605" d="M409.972,775.824s-9.632,3.531-11.363,4.078c-1.332.419-3.029,1.653-6.129-.214a30.432,30.432,0,0,1-5.127-4.465h0c-.41-.422-.812-.847-1.2-1.263h0a55.136,55.136,0,0,1-3.818-4.45c-.37-.633-7.652-5.884-2.592-9.418,1.136-.792,5.511-2.7,8,0,2.188,2.37,3.2,6.817,3.725,7.826.624,1.191,3.338,6.222,3.338,6.222.153.376,3.82-.725,4.317-.876,1.454-.436,8.7-2.69,8.7-2.69Z" transform="translate(-377.962 -758.694)" fill="#385369"/>
        </g>
        <g id="Grupo_3849" data-name="Grupo 3849" transform="translate(7.574 0.126)">
          <g id="Grupo_3848" data-name="Grupo 3848">
            <g id="Grupo_3847" data-name="Grupo 3847">
              <g id="Grupo_3846" data-name="Grupo 3846">
                <g id="Grupo_3845" data-name="Grupo 3845">
                  <g id="Grupo_3844" data-name="Grupo 3844">
                    <path id="Caminho_12606" data-name="Caminho 12606" d="M347.849,684.348l.006.006a24.134,24.134,0,0,0,3.268,4.138c4.092,4.086,12.331,3.17,10.9-9.268a19.41,19.41,0,0,0-1.468-5.716c-2.373-5.3-6.442-5.728-6.442-5.728-2.942.2-7.967,1.566-9.2,5.583C344.043,676.218,345.476,680.591,347.849,684.348Z" transform="translate(-344.658 -667.78)" fill="#eea987"/>
                  </g>
                </g>
              </g>
            </g>
          </g>
        </g>
        <g id="Grupo_3855" data-name="Grupo 3855" transform="translate(7.575)">
          <g id="Grupo_3854" data-name="Grupo 3854">
            <g id="Grupo_3853" data-name="Grupo 3853">
              <g id="Grupo_3852" data-name="Grupo 3852">
                <g id="Grupo_3851" data-name="Grupo 3851">
                  <g id="Grupo_3850" data-name="Grupo 3850">
                    <path id="Caminho_12607" data-name="Caminho 12607" d="M347.852,684.038l.006.006s.436.061,1.572-3.2c.228-.653.517-.243.616-.532l2.3-1.246s-2.893-3.7.1-5.2c3.049-1.532,8.115-.668,8.115-.668-.977-7.21-6.442-5.728-6.442-5.728-2.942.2-7.967,1.566-9.2,5.583C344.046,675.909,345.48,680.281,347.852,684.038Z" transform="translate(-344.663 -667.344)" fill="#665249"/>
                  </g>
                </g>
              </g>
            </g>
          </g>
        </g>
        <g id="Grupo_3861" data-name="Grupo 3861" transform="translate(10.768 10.144)">
          <g id="Grupo_3860" data-name="Grupo 3860">
            <g id="Grupo_3859" data-name="Grupo 3859">
              <g id="Grupo_3858" data-name="Grupo 3858">
                <g id="Grupo_3857" data-name="Grupo 3857">
                  <g id="Grupo_3856" data-name="Grupo 3856">
                    <path id="Caminho_12608" data-name="Caminho 12608" d="M358.378,703.324c-.182-.838-1.835-1.558-2.537.24s1.647,3.708,2.269,3.312S358.679,704.708,358.378,703.324Z" transform="translate(-355.711 -702.447)" fill="#eea987"/>
                  </g>
                </g>
              </g>
            </g>
          </g>
        </g>
        <g id="Grupo_3862" data-name="Grupo 3862" transform="translate(0.667 24.93)">
          <path id="Caminho_12609" data-name="Caminho 12609" d="M338.987,753.613s5.806,1.193,6.56,1.858c.818.711,2.451,7.892,2.537,9.829s-.413,9.918-1.231,12.932-.751,17.4-.234,21.576a76.673,76.673,0,0,1-24.584,1.248S324,785.988,323.5,781.862c-.644-5.288-2.737-16.822-2.737-16.822s.156-8,1.274-8.944,9.785-2.485,9.785-2.485h7.167Z" transform="translate(-320.76 -753.61)" fill="#385369"/>
        </g>
        <g id="Grupo_3863" data-name="Grupo 3863" transform="translate(12.043 17.135)">
          <path id="Caminho_12610" data-name="Caminho 12610" d="M368.274,735.78s-1.78,1.338-7.739-1.286a12.813,12.813,0,0,0-.3-6.774c-1.168-3.815,7.41,3.69,7.41,3.69-.1.066-.116.448-.061.98,0,.035.009.069.012.1a10.325,10.325,0,0,0,.24,1.3l.043.173C368.21,735.245,368.274,734.667,368.274,735.78Z" transform="translate(-360.122 -726.639)" fill="#eea886"/>
        </g>
        <g id="Grupo_3864" data-name="Grupo 3864" transform="translate(13.085 19.615)">
          <path id="Caminho_12611" data-name="Caminho 12611" d="M370.4,739.9h0c-4.268.549-6.6-4.543-6.667-4.679,3.1,3.768,6.427,3.378,6.427,3.378h0A10.417,10.417,0,0,0,370.4,739.9Z" transform="translate(-363.73 -735.22)" fill="#a77860"/>
        </g>
        <g id="Grupo_3865" data-name="Grupo 3865" transform="translate(11.727 24.772)">
          <path id="Caminho_12612" data-name="Caminho 12612" d="M367.471,753.5s1.364,2.032-.538,2.375-5.786-.075-7.9-2.653C359.03,753.226,364.8,752.723,367.471,753.5Z" transform="translate(-359.03 -753.066)" fill="#eea886"/>
        </g>
        <g id="Grupo_3866" data-name="Grupo 3866" transform="translate(27.601 37.394)">
          <path id="Caminho_12613" data-name="Caminho 12613" d="M413.96,803.291s.419-5.606.4-6.551a41.879,41.879,0,0,1,.974,7.849Z" transform="translate(-413.96 -796.74)" fill="#2a3e4f"/>
        </g>
        <g id="Grupo_3872" data-name="Grupo 3872" transform="translate(30.17 56.563)">
          <g id="Grupo_3871" data-name="Grupo 3871">
            <g id="Grupo_3870" data-name="Grupo 3870">
              <g id="Grupo_3869" data-name="Grupo 3869">
                <g id="Grupo_3868" data-name="Grupo 3868">
                  <g id="Grupo_3867" data-name="Grupo 3867">
                    <path id="Caminho_12614" data-name="Caminho 12614" d="M430.231,871.584a3.268,3.268,0,0,1-1.046-.136s-.561-.315-.974-.517a3,3,0,0,0-.324-.142,6.044,6.044,0,0,1-1.789-.728,40.66,40.66,0,0,1-3.248-3.335l1.156-1.809.838-1.847s5.245.266,5.962.636c.069.038.136.075.2.116a7.647,7.647,0,0,1,1.124,1.118c.1.084,1.061,1,1.032,1.39a1.294,1.294,0,0,1-.613,1.1,3.092,3.092,0,0,1-.639,1.572,1.925,1.925,0,0,1-.9,1.433C431.005,870.436,430.812,871.431,430.231,871.584Z" transform="translate(-422.85 -863.07)" fill="#eea886"/>
                  </g>
                </g>
              </g>
            </g>
          </g>
        </g>
        <g id="Grupo_3873" data-name="Grupo 3873" transform="translate(0 26.595)">
          <path id="Caminho_12615" data-name="Caminho 12615" d="M322.251,759.446c1.442-.228,5.835-.344,7.335,6.124a65.9,65.9,0,0,1,1.364,7.488c.075,1.2,2.341,9.8,3.15,10.435,1.026.8,6.387,2.491,6.887,2.717,1.722.777,9.95,2.884,9.95,2.884l-.607,6.254s-18.079-4.361-20.044-5.421a10.743,10.743,0,0,1-4.832-5.361c-1.812-3.786-5.861-11.883-5.918-12.652S315.826,760.457,322.251,759.446Z" transform="translate(-318.451 -759.371)" fill="#385369"/>
        </g>
        <g id="Grupo_3875" data-name="Grupo 3875" transform="translate(50.349 37.902)">
          <g id="Grupo_3874" data-name="Grupo 3874">
            <path id="Caminho_12616" data-name="Caminho 12616" d="M497.7,798.551s-3.413-.24-3.52.306a.87.87,0,0,0,.185.809l-1.451.537s-.757.9.442,1.462c0,0-.795.766.428,1.17,0,0-.3.74.234,1.029a11.392,11.392,0,0,0,2.737.353s.471-.2.347-1.055a1.183,1.183,0,0,0,.48-1.248,1.3,1.3,0,0,0,.26-1.306s1.023-1.084.208-2.011C498.045,798.6,497.84,798.56,497.7,798.551Z" transform="translate(-492.674 -798.499)" fill="#db9c7c"/>
          </g>
        </g>
        <g id="Grupo_3877" data-name="Grupo 3877" transform="translate(48.587 36.986)">
          <g id="Grupo_3876" data-name="Grupo 3876">
            <path id="Caminho_12617" data-name="Caminho 12617" d="M487.742,795.33a11.629,11.629,0,0,1,2.815,2.358c.182.26.312.543.139.809s-.777.355-1.673-.124a8.563,8.563,0,0,0-2.277-.694S485.971,796.917,487.742,795.33Z" transform="translate(-486.577 -795.33)" fill="#eea886"/>
          </g>
        </g>
      </g>
      <g id="Grupo_3925" data-name="Grupo 3925" transform="translate(139.411 214.183)">
        <g id="Grupo_3900" data-name="Grupo 3900" transform="translate(58.49 61.92)">
          <g id="Grupo_3879" data-name="Grupo 3879" transform="translate(33.353 149.123)">
            <path id="Caminho_12618" data-name="Caminho 12618" d="M801.515,1178.806l1.246.575s-.327-3.109.76-3.153,3.251,2.87,4.861,3.433,10.392,1.049,10.435-.474-3.173-1.4-4.17-1.832-5.866-5.17-6.736-5.737-2.352-4.494-2.352-4.494l-4.609-.205s-.26,3.67-.54,5.615a17.323,17.323,0,0,0-.191,1.821A13.438,13.438,0,0,0,801.515,1178.806Z" transform="translate(-800.217 -1166.92)" fill="#eea886"/>
          </g>
          <g id="Grupo_3880" data-name="Grupo 3880" transform="translate(13.157 148.577)">
            <path id="Caminho_12619" data-name="Caminho 12619" d="M731.572,1178.485h.977v-4.127c.815.069,3.552,2.659,4.4,3.41s2.008.717,5.578.942,3.9-1.91,3.341-2.635-2.39-1.046-3.341-1.5-4.7-4.682-5.7-5.682-1.607-3.864-1.607-3.864l-4.17.364a25.635,25.635,0,0,1-.448,4.817h0a.037.037,0,0,0,0,.017c-.04.188-.084.37-.133.549C729.847,1173.064,731.572,1178.485,731.572,1178.485Z" transform="translate(-730.333 -1165.03)" fill="#eea886"/>
          </g>
          <g id="Grupo_3881" data-name="Grupo 3881" transform="translate(12.523 65.523)">
            <path id="Caminho_12620" data-name="Caminho 12620" d="M745.438,880.631a41.556,41.556,0,0,1,1.717,4.67c.139.942,5.08,13.247,5.427,16.848.347,3.641,1.39,13.357,1.763,14.747s-.835,7.606-1.02,9-.558,24.645,1.113,35.866c0,0-1.8,1.67-4.771,0,0,0-5.962-18-5.684-28.1s.98-14.441-.59-18.521-10.75-16.325-11.678-17.623-6.739-8.473-1.237-16.25S745.438,880.631,745.438,880.631Z" transform="translate(-728.139 -877.636)" fill="#eea886"/>
          </g>
          <g id="Grupo_3882" data-name="Grupo 3882" transform="translate(6.76 63.705)">
            <path id="Caminho_12621" data-name="Caminho 12621" d="M711.394,909.181c.5,3.346,1.425,7.574.373,19.81s3.546,27.59,3.546,27.59c3.633,1.243,4.381.471,4.381.471-.1-.861.28-30.665.28-33.245s.74-5.511.933-8.473a60.232,60.232,0,0,1,2.127-9.542c.318-1.139.644-2.283.962-3.393v0c.179-.621.355-1.231.526-1.823,1.488-5.161,3.491-25.1,3.491-25.1s-11.094-8.936-16.5-.523-2.63,14.53-2.439,15.582S710.891,905.835,711.394,909.181Z" transform="translate(-708.197 -871.345)" fill="#eea886"/>
          </g>
          <g id="Grupo_3883" data-name="Grupo 3883" transform="translate(14.558 83.56)">
            <path id="Caminho_12622" data-name="Caminho 12622" d="M735.18,940.05c.087.191,5.615,12.461,7.037,14.591.318-1.139.644-2.283.962-3.393v0S735.365,940.322,735.18,940.05Z" transform="translate(-735.18 -940.05)" fill="#122536"/>
          </g>
          <g id="Grupo_3884" data-name="Grupo 3884" transform="translate(1.036 30.541)">
            <path id="Caminho_12623" data-name="Caminho 12623" d="M693.04,803.6l4.7-1.133s-.818-16.594-3.647-23.622c-.026-.061-.13.023-.191.035q.039-.238.087-.477c.061-.329.121-.659.185-.985.719-3.74,1.546-7.005,1.546-7.005s5.933-14.932-1.283-13.765a10.169,10.169,0,0,0-4.546,6.869c-.812,4.774-1.636,11.808-1.488,14.614a67.978,67.978,0,0,0,1.653,9.516S692.849,802.6,693.04,803.6Z" transform="translate(-688.39 -756.585)" fill="#ff984a"/>
          </g>
          <g id="Grupo_3885" data-name="Grupo 3885" transform="translate(12.199 18.478)">
            <path id="Caminho_12624" data-name="Caminho 12624" d="M734.843,718.089s-1.771,4.685-.393,8.305c0,0-6.491-.422-6.736-1.179s.26-7.777-.633-9.849S734.843,718.089,734.843,718.089Z" transform="translate(-727.016 -714.845)" fill="#eea886"/>
          </g>
          <g id="Grupo_3886" data-name="Grupo 3886" transform="translate(4.639 27.884)">
            <path id="Caminho_12625" data-name="Caminho 12625" d="M716.871,747.95s3.835,1.364,5.569,1.743,5.361,2.1,5.066,8.563a134.264,134.264,0,0,1-1.771,14.854,58.64,58.64,0,0,0,.491,13.288,48.632,48.632,0,0,1-20.015,0s1.919-5.861,1.87-7.378-6.392-14-6.687-15.967-1.575-10.661,1.326-12.58,5.263-1.667,6.491-2.526S715.076,747.334,716.871,747.95Z" transform="translate(-700.857 -747.393)" fill="#ff984a"/>
          </g>
          <g id="Grupo_3887" data-name="Grupo 3887" transform="translate(2.672 33.89)">
            <path id="Caminho_12626" data-name="Caminho 12626" d="M694.05,846.5c19.885,9.583,43.2,3.936,43.2,3.936-.474-.977-2.948-8.733-5.713-17.62-3.393-10.895-7.23-23.483-8.366-27.33l0,0c-.159-.543-.269-.91-.309-1.075a0,0,0,0,0,0,0,41.636,41.636,0,0,1-.968-4.661,44.652,44.652,0,0,1-.48-6.554,38.28,38.28,0,0,1,.87-8.56c-1.815-14.926-24.4-19.38-26.208-14.652s3.508,25.067,3.777,26.81S694.05,846.5,694.05,846.5Z" transform="translate(-694.05 -768.176)" fill="#ff984a"/>
          </g>
          <g id="Grupo_3888" data-name="Grupo 3888" transform="translate(7.847 0.96)">
            <path id="Caminho_12627" data-name="Caminho 12627" d="M718.6,654.788c2.9-.994,10.736-2.055,12.744,9.976s-2.364,12.236-6.858,11.895-11.519-8.462-12.057-10.93S710.33,657.625,718.6,654.788Z" transform="translate(-711.956 -654.226)" fill="#eea886"/>
          </g>
          <g id="Grupo_3889" data-name="Grupo 3889" transform="translate(7.069)">
            <path id="Caminho_12628" data-name="Caminho 12628" d="M727.821,657.044s-2.393,5.121-5.534,6.907c0,0-1.968,5.442-6.228,7.644,0,0-11.305-7.488-4.745-16.389S727.081,653.394,727.821,657.044Z" transform="translate(-709.267 -650.904)" fill="#323657"/>
          </g>
          <g id="Grupo_3890" data-name="Grupo 3890" transform="translate(17.527 10.397)">
            <path id="Caminho_12629" data-name="Caminho 12629" d="M748.292,687.755a1.476,1.476,0,0,0-2.708.072c-.76,1.717,1.968,4.742,2.716,4.578S749.257,690.131,748.292,687.755Z" transform="translate(-745.452 -686.879)" fill="#eea886"/>
          </g>
          <g id="Grupo_3891" data-name="Grupo 3891" transform="translate(9.113 5.523)">
            <path id="Caminho_12630" data-name="Caminho 12630" d="M716.34,670.044a8.155,8.155,0,0,1,2.794,5.049s.465-2.41-.535-3.884A2.227,2.227,0,0,0,716.34,670.044Z" transform="translate(-716.34 -670.016)" fill="#285173"/>
          </g>
          <g id="Grupo_3892" data-name="Grupo 3892" transform="translate(24.24 30.539)">
            <path id="Caminho_12631" data-name="Caminho 12631" d="M771.751,756.58s5.381,2.133,5.7,9.609.61,11.383.9,12.536.85,5.794,2.2,8.586c1.315,2.708,6.953,15.854,6.953,15.854l-4.907,2.844s-8.3-15.556-9.034-17.761-3.734-17.55-3.974-20.137C769.4,766.027,766.653,756.733,771.751,756.58Z" transform="translate(-768.683 -756.58)" fill="#ff984a"/>
          </g>
          <g id="Grupo_3893" data-name="Grupo 3893" transform="translate(25.722 48.214)">
            <path id="Caminho_12632" data-name="Caminho 12632" d="M779.568,839.648a41.759,41.759,0,0,1-.968-4.661h0s-1.035-2.2-1.384-3.254-2.951-13.993-2.951-13.993S771.514,829.895,779.568,839.648Z" transform="translate(-773.812 -817.74)" fill="#824e26"/>
          </g>
          <g id="Grupo_3894" data-name="Grupo 3894" transform="translate(5.342 47.728)">
            <path id="Caminho_12633" data-name="Caminho 12633" d="M703.29,816.06s3.11,14.334,3.127,14.779-.879,6.3-1.144,7.618Z" transform="translate(-703.29 -816.06)" fill="#824e26"/>
          </g>
          <g id="Grupo_3895" data-name="Grupo 3895" transform="translate(0 4.513)">
            <path id="Caminho_12634" data-name="Caminho 12634" d="M694.3,667.684c-.249-.384-7.733-3.852-9.291,3.39s6.028,15.663,7.358,19.284-.6,12.106-.6,12.106,4.566-4.315,5.945-8.832C699.232,688.673,699.744,676.165,694.3,667.684Z" transform="translate(-684.804 -666.518)" fill="#323657"/>
          </g>
          <g id="Grupo_3896" data-name="Grupo 3896" transform="translate(33.235 152.917)">
            <path id="Caminho_12635" data-name="Caminho 12635" d="M807.62,1180.959s4.962,4.294,8.878,4.872,4.341,3.974,1.272,4.072-15.571.745-16.721-.9-1.673-5.6-.812-8.04c0,0,2.786.445,3.427-.327A3.033,3.033,0,0,1,807.62,1180.959Z" transform="translate(-799.809 -1180.048)" fill="#eddad3"/>
          </g>
          <g id="Grupo_3897" data-name="Grupo 3897" transform="translate(12.466 152.797)">
            <path id="Caminho_12636" data-name="Caminho 12636" d="M735.8,1179.973s4.214,4.424,5.583,4.812,4.193,1.243,4.193,3.254-9.8,1.159-11.337.665-3.685.907-5.523,0,.191-8.109.191-8.109,2.722.641,3.578.084S734.234,1179.1,735.8,1179.973Z" transform="translate(-727.94 -1179.632)" fill="#eddad3"/>
          </g>
          <g id="Grupo_3898" data-name="Grupo 3898" transform="translate(37.959 76.777)">
            <path id="Caminho_12637" data-name="Caminho 12637" d="M823.347,919.4s.335,1.381.543,2.081.335,1.555-.156,1.922-1.546,1.636-2.257,2.214-4.754-1.173-5.2-1.861.431-4.549,1.665-5.32,3.086-1.852,3.086-1.852Z" transform="translate(-816.156 -916.58)" fill="#eea886"/>
          </g>
          <g id="Grupo_3899" data-name="Grupo 3899" transform="translate(27.675 54.251)">
            <path id="Caminho_12638" data-name="Caminho 12638" d="M780.57,839.939a9.15,9.15,0,0,0,5.994-1.309,74.1,74.1,0,0,0,2.445,7.02c.85,1.795,6.953,15.854,6.953,15.854l-4.907,2.844s-8.317-15.025-9.034-17.761S780.57,839.939,780.57,839.939Z" transform="translate(-780.57 -838.63)" fill="#ff984a"/>
          </g>
        </g>
        <g id="Grupo_3924" data-name="Grupo 3924">
          <g id="Grupo_3901" data-name="Grupo 3901" transform="translate(72.291 87.342)">
            <path id="Caminho_12639" data-name="Caminho 12639" d="M734.2,738.87a20.382,20.382,0,0,0,4.248,1.1c1.847.182,4.526,2.113,5.208,2.951s6.271,6.84,6.366,7.606-1.428.512-1.942-.1-5.387-5.439-5.387-5.439,5.468,6.086,5.433,6.8-.858,1.324-1.867.694a1.261,1.261,0,0,1-2.228.223l-2.847-2.844s1.205,1.734-.376,1.237c-.841-.266-3.659-3.849-4.448-4.381s-3.806-5.124-3.806-5.124Z" transform="translate(-732.56 -738.87)" fill="#eea886"/>
          </g>
          <g id="Grupo_3902" data-name="Grupo 3902" transform="translate(46.682 205.286)">
            <path id="Caminho_12640" data-name="Caminho 12640" d="M651.764,1147s2.081,4.161,3.341,4.979,8.32,7.69,9.771,8.32,6.115,1.511,6.051,3.719-12.039,1.511-14.371.694-6.239-6.115-7.817-6.052-1.009,6.494-1.009,6.494h-1.7s-2.144-6.809-2.081-9.2a86.493,86.493,0,0,1,1.387-8.95h6.43Z" transform="translate(-643.945 -1147)" fill="#162d40"/>
          </g>
          <g id="Grupo_3903" data-name="Grupo 3903" transform="translate(17.947 202.703)">
            <path id="Caminho_12641" data-name="Caminho 12641" d="M551.873,1138.06s.916,4.118,2.419,5.557,7.144,7.519,8.571,8.173,4.176,1.113,5.026,2.159.344,4.118-5.026,3.792-7.118-.277-8.392-1.355-5.393-4.806-6.618-4.9v5.933h-1.471s-2.6-7.8-1.667-11.08a32.918,32.918,0,0,0,.881-7.748Z" transform="translate(-544.513 -1138.06)" fill="#162d40"/>
          </g>
          <g id="Grupo_3904" data-name="Grupo 3904" transform="translate(16.617 21.931)">
            <path id="Caminho_12642" data-name="Caminho 12642" d="M550.732,516.9s-2.448,6.306-.543,11.178c0,0-8.976-.569-9.317-1.589s.361-10.467-.873-13.259S550.732,516.9,550.732,516.9Z" transform="translate(-539.91 -512.528)" fill="#eea886"/>
          </g>
          <g id="Grupo_3908" data-name="Grupo 3908" transform="translate(2.336 108.634)">
            <g id="Grupo_3907" data-name="Grupo 3907">
              <g id="Grupo_3906" data-name="Grupo 3906">
                <g id="Grupo_3905" data-name="Grupo 3905">
                  <path id="Caminho_12643" data-name="Caminho 12643" d="M499.341,814.755a6.9,6.9,0,0,1,.442,2.39,11.242,11.242,0,0,0,.555,2.829,26.345,26.345,0,0,1,.471,4.621,20.076,20.076,0,0,0-1.072,2.794c-.012.653.13,1.98-.439,1.942s-1.023-1.2-1.023-1.2a.813.813,0,0,1-.555.714,1.4,1.4,0,0,1-1.4-.249s-.445.567-.884.561a1.781,1.781,0,0,1-1.355-.491,1.649,1.649,0,0,1-1.115.118,1.5,1.5,0,0,1-1.043-1s-1.081-.009-1.3-.572a5.1,5.1,0,0,1-.124-1.558,17.3,17.3,0,0,1,2.6-7.161,7.7,7.7,0,0,0,.922-5.95Z" transform="translate(-490.493 -812.55)" fill="#eea886"/>
                </g>
              </g>
            </g>
          </g>
          <g id="Grupo_3911" data-name="Grupo 3911" transform="translate(2.229 117.836)">
            <g id="Grupo_3910" data-name="Grupo 3910">
              <g id="Grupo_3909" data-name="Grupo 3909">
                <path id="Caminho_12644" data-name="Caminho 12644" d="M498.218,850.425s.717-3.63-.09-4.609-1.141.315-1.141.315.35-1.274-.647-1.673-1.306,1.139-1.306,1.139a1.069,1.069,0,0,0-1.113-1.066c-1.115-.026-1.078,1.309-1.078,1.309s-.818-1.48-1.693-.416a5.694,5.694,0,0,0-.928,4.367,1.334,1.334,0,0,0,1.376.766,1.478,1.478,0,0,0,2.156.87s1.514,1.321,2.329.026C496.086,851.451,497.932,852.439,498.218,850.425Z" transform="translate(-490.121 -844.391)" fill="#db9c7c"/>
              </g>
            </g>
          </g>
          <g id="Grupo_3912" data-name="Grupo 3912" transform="translate(6.165 34.596)">
            <path id="Caminho_12645" data-name="Caminho 12645" d="M525.883,557.1s5.3,1.835,7.7,2.347,7.413,2.823,7.005,11.528a177.222,177.222,0,0,1-2.448,19.992c-.543,3.74-.205,13.262.679,17.885a69.055,69.055,0,0,1-27.676,0s2.653-7.889,2.584-9.93-8.84-18.836-9.248-21.489-2.176-14.348,1.835-16.932,7.277-2.245,8.976-3.4S523.4,556.271,525.883,557.1Z" transform="translate(-503.741 -556.353)" fill="#ffc05c"/>
          </g>
          <g id="Grupo_3913" data-name="Grupo 3913" transform="translate(32.071 37.476)">
            <path id="Caminho_12646" data-name="Caminho 12646" d="M596.434,566.32s5.855-.159,10,9.019,5.167,14.553,6.121,15.845,4.286,6.323,7.548,8.774S636.962,616.2,636.962,616.2l-3.731,4.774s-19.585-13.871-21.625-16.253-14.429-20.4-15.172-23.122S589.966,569.134,596.434,566.32Z" transform="translate(-593.387 -566.319)" fill="#ffc05c"/>
          </g>
          <g id="Grupo_3914" data-name="Grupo 3914" transform="translate(0 39.513)">
            <path id="Caminho_12647" data-name="Caminho 12647" d="M482.409,616.937c-.038,3.673,3.777,28.731,3.777,28.731l7.2.306s-2.312-24.856-3.127-30.566a28.87,28.87,0,0,1,.37-7.158v0c.257-1.815.6-3.722.959-5.546.994-5.034,2.141-9.43,2.141-9.43s6.494-21.394-3.485-19.825a24.31,24.31,0,0,0-4.575,10.542c-1.121,6.427-2.245,16.016-2.04,19.79S482.435,614.235,482.409,616.937Z" transform="translate(-482.409 -573.365)" fill="#ffc05c"/>
          </g>
          <g id="Grupo_3915" data-name="Grupo 3915" transform="translate(15.873 82.703)">
            <path id="Caminho_12648" data-name="Caminho 12648" d="M562.706,727.212a61.454,61.454,0,0,1,2.517,6.846c.205,1.381,7.453,19.426,7.956,24.706.509,5.338,2.04,19.585,2.584,21.625s-1.225,11.152-1.5,13.192-.136,35.361,2.312,51.819c0,0-5.713,2.448-10.065,0,0,0-7.207-25.706-6.8-40.531S562,783.787,559.7,777.8s-15.764-23.937-17.125-25.841-9.881-12.427-1.812-23.827S562.706,727.212,562.706,727.212Z" transform="translate(-537.334 -722.818)" fill="#1d3b54"/>
          </g>
          <g id="Grupo_3916" data-name="Grupo 3916" transform="translate(8.845 81.963)">
            <path id="Caminho_12649" data-name="Caminho 12649" d="M517.57,774.082c.717,4.763-.038,11.016-1.532,28.428S518.656,841,518.656,841c5.167,1.769,11.117,0,11.117,0-.136-1.225,0-42.435,0-46.108s1.055-7.84,1.326-12.054c.185-2.873,1.523-8.17,3.026-13.574.451-1.618.916-3.248,1.37-4.826v0c.254-.884.5-1.751.746-2.592,2.118-7.343,4.965-35.7,4.965-35.7s-15.785-12.716-23.469-.746-3.74,20.671-3.468,22.168S516.856,769.322,517.57,774.082Z" transform="translate(-513.017 -720.257)" fill="#1d3b54"/>
          </g>
          <g id="Grupo_3917" data-name="Grupo 3917" transform="translate(5.762 42.682)">
            <path id="Caminho_12650" data-name="Caminho 12650" d="M539.062,606.481S538,627.9,543.1,640.24c0,0-16.831,5.609-38.557,0,0,0,4.656-15.351,4.286-17.7s-8.5-29.41-6-35.777S536.553,586.39,539.062,606.481Z" transform="translate(-502.348 -584.334)" fill="#ffc05c"/>
          </g>
          <g id="Grupo_3918" data-name="Grupo 3918" transform="translate(11.998 1.399)">
            <path id="Caminho_12651" data-name="Caminho 12651" d="M534.333,441.561c3.789-.428,13.6.341,12.851,15.1s-6.121,13.871-11.493,12.308-11.765-12.99-11.765-16.05S523.522,442.784,534.333,441.561Z" transform="translate(-523.925 -441.481)" fill="#eea886"/>
          </g>
          <g id="Grupo_3919" data-name="Grupo 3919" transform="translate(10.995)">
            <path id="Caminho_12652" data-name="Caminho 12652" d="M544.177,446.458s-4.268,5.445-8.56,6.745c0,0-3.3,5.907-9.068,7.413,0,0-12.294-11.756-1.956-20.6S544.244,441.944,544.177,446.458Z" transform="translate(-520.456 -436.638)" fill="#323657"/>
          </g>
          <g id="Grupo_3920" data-name="Grupo 3920" transform="translate(23.247 13.088)">
            <path id="Caminho_12653" data-name="Caminho 12653" d="M566.568,483.376c-.144-.806-1.933-2.448-3.312-.613s1.136,6.121,2.089,6.121S567.111,486.436,566.568,483.376Z" transform="translate(-562.852 -481.927)" fill="#eea886"/>
          </g>
          <g id="Grupo_3921" data-name="Grupo 3921" transform="translate(1.574 4.632)">
            <path id="Caminho_12654" data-name="Caminho 12654" d="M499.68,454.077c-.309-.468-9.626-4.664-11.562,4.107s7.505,18.972,9.158,23.359,0,14.79,0,14.79,4.933-5.352,6.653-10.823C505.815,479.5,506.451,464.354,499.68,454.077Z" transform="translate(-487.857 -452.666)" fill="#323657"/>
          </g>
          <g id="Grupo_3922" data-name="Grupo 3922" transform="translate(19.943 110.209)">
            <path id="Caminho_12655" data-name="Caminho 12655" d="M551.42,818c.121.272,7.988,17.729,10.011,20.755.451-1.618.916-3.248,1.37-4.826v0S551.683,818.384,551.42,818Z" transform="translate(-551.42 -818)" fill="#162d40"/>
          </g>
          <g id="Grupo_3923" data-name="Grupo 3923" transform="translate(6.578 56.57)">
            <path id="Caminho_12656" data-name="Caminho 12656" d="M505.17,632.39s.246,11.106,1.644,17.822c.257-1.815.6-3.722.959-5.546C507.716,644.418,505.442,634.127,505.17,632.39Z" transform="translate(-505.17 -632.39)" fill="#785b2c"/>
          </g>
        </g>
      </g>
    </g>
    <g id="Grupo_3951" data-name="Grupo 3951" transform="translate(706.747 270.123)">
      <g id="Grupo_3930" data-name="Grupo 3930" transform="translate(48.584)" opacity="0.786">
        <path id="Caminho_12657" data-name="Caminho 12657" d="M213.44,341.742v2.081h99.2v-2.081c0-1.939-1.3-3.512-2.911-3.512H216.354C214.744,338.23,213.44,339.8,213.44,341.742Z" transform="translate(-213.44 -261.241)" fill="#d6b798"/>
        <path id="Caminho_12658" data-name="Caminho 12658" d="M492.86,792.336h29.976v-4.8H495.8a2.943,2.943,0,0,0-2.943,2.943Z" transform="translate(-429.257 -608.277)" fill="#807066"/>
        <rect id="Retângulo_2149" data-name="Retângulo 2149" width="3.963" height="101.477" transform="translate(91.675 184.059) rotate(180)" fill="#c4ac9d"/>
        <rect id="Retângulo_2150" data-name="Retângulo 2150" width="3.961" height="101.477" transform="translate(83.716 184.059) rotate(180)" fill="#c4ac9d"/>
        <rect id="Retângulo_2151" data-name="Retângulo 2151" width="3.173" height="70.304" transform="translate(50.801)" fill="#e0d2c4"/>
        <g id="Grupo_3927" data-name="Grupo 3927" transform="translate(53.969 51.47)">
          <path id="Caminho_12659" data-name="Caminho 12659" d="M453.927,251.639h17.445v-1.056H453.927a2.518,2.518,0,0,1-1.944-.642,1.7,1.7,0,0,1-.387-1.213l0-.034V226.12h-1.056v22.517a2.774,2.774,0,0,0,.64,1.992A3.466,3.466,0,0,0,453.927,251.639Z" transform="translate(-450.536 -226.12)" fill="#dbcec2"/>
        </g>
        <path id="Caminho_12660" data-name="Caminho 12660" d="M357.31,330.09h17.937v1.851H355.61v-.153A1.7,1.7,0,0,1,357.31,330.09Z" transform="translate(-323.249 -254.954)" fill="#6e6760"/>
        <g id="Grupo_3929" data-name="Grupo 3929" transform="translate(58.194 46.383)">
          <g id="Grupo_3928" data-name="Grupo 3928">
            <path id="Caminho_12661" data-name="Caminho 12661" d="M570.162,249.37s-5.477.819-13.469,5.065S562.953,255.714,570.162,249.37Z" transform="translate(-534.93 -238.99)" fill="#757d28"/>
            <path id="Caminho_12662" data-name="Caminho 12662" d="M554.454,236.885s3.974-7.575,10.152-11.035c0,0-1.794,5.258-8.311,10.9S554.454,236.885,554.454,236.885Z" transform="translate(-533.772 -220.824)" fill="#5c9e33"/>
            <path id="Caminho_12663" data-name="Caminho 12663" d="M525.412,225.895s-4.1-5.015-5.745-7.3,3.444,10.664,3.865,12.034S525.688,233.19,525.412,225.895Z" transform="translate(-507.906 -215.017)" fill="#4d8b33"/>
            <path id="Caminho_12664" data-name="Caminho 12664" d="M552.72,234.556c1.823-2.736,3.1-15.046,3.1-15.046-3.191,2.645-6.2,14.536-6.2,14.536S550.9,237.292,552.72,234.556Z" transform="translate(-531.292 -215.927)" fill="#b1c265"/>
            <path id="Caminho_12665" data-name="Caminho 12665" d="M549.323,229.349c.546-1.163-.182-16.255-.619-14.887s-2.92,7.022-2.92,7.022C545.412,224.913,548.774,230.513,549.323,229.349Z" transform="translate(-528.306 -211.961)" fill="#92a05b"/>
            <path id="Caminho_12666" data-name="Caminho 12666" d="M507.263,227.5c-.967-1.757-10.523-11.19-10.523-11.19.091,2.918,6.018,9.849,6.018,9.849S508.23,229.257,507.263,227.5Z" transform="translate(-490.448 -213.456)" fill="#c7ca7f"/>
            <path id="Caminho_12667" data-name="Caminho 12667" d="M490.529,276.252A43.492,43.492,0,0,0,469.1,274.3c1.521,2.087,15.959,1.953,15.959,1.953Z" transform="translate(-469.1 -257.821)" fill="#5c9e33"/>
            <path id="Caminho_12668" data-name="Caminho 12668" d="M489.187,255.608c-5.609-6.107-18.827-9.048-18.827-9.048a60.19,60.19,0,0,0,9.512,7.487S494.8,261.713,489.187,255.608Z" transform="translate(-470.073 -236.82)" fill="#518330"/>
            <path id="Caminho_12669" data-name="Caminho 12669" d="M504.481,242.4C501.2,236.33,488.7,230.33,488.7,230.33c0,1.914,10.127,10.824,10.127,10.824S507.764,248.476,504.481,242.4Z" transform="translate(-484.239 -224.284)" fill="#6c9f44"/>
            <path id="Caminho_12670" data-name="Caminho 12670" d="M553.923,254.142c2.458-.451,11.581-9.392,11.581-9.392-2.37.455-11.581,6.289-11.581,6.289S551.464,254.592,553.923,254.142Z" transform="translate(-533.771 -235.422)" fill="#4a8a33"/>
            <path id="Caminho_12671" data-name="Caminho 12671" d="M564.241,265.637c3.1.13,13.041-6.057,13.041-6.057-2.973,0-9.8,1.8-13.138,2.736a4.941,4.941,0,0,0-2.968,2.326C559.393,267.793,561.542,265.523,564.241,265.637Z" transform="translate(-539.713 -246.876)" fill="#689c2f"/>
            <path id="Caminho_12672" data-name="Caminho 12672" d="M583.675,274.338c-.926-.073-6.892.191-9.456.312a4.528,4.528,0,0,0-2.757,1.083c-1.106.954-.781,1.671.724,1.976C574.192,278.116,584.861,274.433,583.675,274.338Z" transform="translate(-547.655 -258.265)" fill="#478b33"/>
            <path id="Caminho_12673" data-name="Caminho 12673" d="M542.02,221.459a7.882,7.882,0,0,0,.127-2.857c-.435-3.248-1.944-13.3-4.156-14.832,0,0-1,13.031,1.095,17.416C540.657,224.475,541.6,223.257,542.02,221.459Z" transform="translate(-522.126 -203.77)" fill="#61a23e"/>
            <path id="Caminho_12674" data-name="Caminho 12674" d="M553.9,245.93c1.257-1.193,6.364-12.79,6.364-12.79-4.782,2.8-6.911,8.47-6.911,8.47S552.641,247.123,553.9,245.93Z" transform="translate(-534.019 -226.455)" fill="#5c9b3b"/>
          </g>
          <path id="Caminho_12675" data-name="Caminho 12675" d="M504.7,293.2l1.577,10.25h18.606l1.577-10.25Z" transform="translate(-496.597 -272.844)" fill="#31535f"/>
          <path id="Caminho_12676" data-name="Caminho 12676" d="M526.461,293.2H504.7l1.577,10.25h3.913s3.346-6.562,15.813-7.286Z" transform="translate(-496.597 -272.844)" fill="#27434c"/>
          <rect id="Retângulo_2152" data-name="Retângulo 2152" width="23.489" height="3.423" transform="translate(7.238 18.151)" fill="#31535f"/>
        </g>
      </g>
      <g id="Grupo_3950" data-name="Grupo 3950" transform="translate(0 71.863)" opacity="0.773">
        <g id="Grupo_3932" data-name="Grupo 3932" transform="translate(5.076 95.01)">
          <g id="Grupo_3931" data-name="Grupo 3931">
            <path id="Caminho_12677" data-name="Caminho 12677" d="M22.3,745.135l.751,2.119L54.859,737.4l-1.525-4.288Z" transform="translate(-22.3 -733.11)" fill="#918783"/>
          </g>
        </g>
        <g id="Grupo_3934" data-name="Grupo 3934" transform="translate(35.111 63.209)">
          <g id="Grupo_3933" data-name="Grupo 3933">
            <rect id="Retângulo_2153" data-name="Retângulo 2153" width="3.615" height="34.581" fill="#918783"/>
          </g>
        </g>
        <g id="Grupo_3936" data-name="Grupo 3936" transform="translate(26.256 61.372)">
          <g id="Grupo_3935" data-name="Grupo 3935">
            <rect id="Retângulo_2154" data-name="Retângulo 2154" width="21.324" height="2.037" fill="#5e5854"/>
          </g>
        </g>
        <g id="Grupo_3938" data-name="Grupo 3938" transform="translate(36.481 94.742)">
          <g id="Grupo_3937" data-name="Grupo 3937">
            <path id="Caminho_12678" data-name="Caminho 12678" d="M192.829,744.224l-.753,2.119-31.806-9.856,1.4-4.557Z" transform="translate(-160.27 -731.93)" fill="#918783"/>
          </g>
        </g>
        <g id="Grupo_3940" data-name="Grupo 3940" transform="translate(36.481 94.742)">
          <g id="Grupo_3939" data-name="Grupo 3939">
            <path id="Caminho_12679" data-name="Caminho 12679" d="M170.42,746.116v2.463l-10.15-12.091,1.4-4.557Z" transform="translate(-160.27 -731.93)" fill="#918783"/>
          </g>
        </g>
        <g id="Grupo_3942" data-name="Grupo 3942" transform="translate(66.068 107.008)">
          <g id="Grupo_3941" data-name="Grupo 3941">
            <path id="Caminho_12680" data-name="Caminho 12680" d="M296.2,788.793a2.973,2.973,0,1,1-2.973-2.973A2.974,2.974,0,0,1,296.2,788.793Z" transform="translate(-290.25 -785.82)" fill="#bfb2ac"/>
          </g>
        </g>
        <g id="Grupo_3944" data-name="Grupo 3944" transform="translate(40.938 107.008)">
          <g id="Grupo_3943" data-name="Grupo 3943">
            <path id="Caminho_12681" data-name="Caminho 12681" d="M185.8,788.793a2.973,2.973,0,1,1-2.973-2.973A2.974,2.974,0,0,1,185.8,788.793Z" transform="translate(-179.85 -785.82)" fill="#bfb2ac"/>
          </g>
        </g>
        <g id="Grupo_3946" data-name="Grupo 3946" transform="translate(2.101 107.008)">
          <g id="Grupo_3945" data-name="Grupo 3945">
            <path id="Caminho_12682" data-name="Caminho 12682" d="M15.176,788.793A2.973,2.973,0,1,1,12.2,785.82,2.974,2.974,0,0,1,15.176,788.793Z" transform="translate(-9.23 -785.82)" fill="#bfb2ac"/>
          </g>
        </g>
        <g id="Grupo_3947" data-name="Grupo 3947" transform="translate(11.8 53.653)">
          <path id="Caminho_12683" data-name="Caminho 12683" d="M99.229,559.139H54.965a3.126,3.126,0,0,1-3.125-3.125v-1.468a3.126,3.126,0,0,1,3.125-3.125H99.229a3.126,3.126,0,0,1,3.125,3.125v1.468A3.123,3.123,0,0,1,99.229,559.139Z" transform="translate(-51.84 -551.42)" fill="#e2d2ca"/>
        </g>
        <g id="Grupo_3948" data-name="Grupo 3948">
          <path id="Caminho_12684" data-name="Caminho 12684" d="M28.835,363.957H6a6,6,0,0,1-6-6V321.71a6,6,0,0,1,6-6H28.835a6,6,0,0,1,6,6v36.247A6,6,0,0,1,28.835,363.957Z" transform="translate(0 -315.71)" fill="#e2d2ca"/>
        </g>
        <g id="Grupo_3949" data-name="Grupo 3949" transform="translate(10.501 30.804)">
          <path id="Caminho_12685" data-name="Caminho 12685" d="M64.3,479.684c-5.135,0-9.3-1.725-12.383-5.126-6.963-7.689-5.713-21.2-5.656-21.775a1.937,1.937,0,0,1,3.856.382c-.016.155-1.124,12.406,4.678,18.8,2.347,2.588,5.456,3.845,9.5,3.845a1.937,1.937,0,0,1,0,3.874Z" transform="translate(-46.134 -451.037)" fill="#e2d2ca"/>
        </g>
      </g>
    </g>
  </g>
</svg>
